{
.appVersion = "1352";
DisplayStrings = (

glyphs = (
{
color = 4;
glyphname = A;
layers = (
{
layerId = "863809E3-B3D3-4728-B9C6-73F0AB5A9F00";
paths = (
{
closed = 1;
nodes = (
"86 -11 OFFCURVE",
"174 -1 OFFCURVE",
"298 -1 CURVE SMOOTH",
"415 -1 OFFCURVE",
"471 -12 OFFCURVE",
"526 -17 CURVE",
"541 40 OFFCURVE",
"544 165 OFFCURVE",
"533 222 CURVE",
"505 222 LINE",
"505 272 LINE",
"592 272 LINE",
"592 222 LINE",
"564 222 LINE",
"556 165 OFFCURVE",
"559 40 OFFCURVE",
"571 -17 CURVE",
"626 -12 OFFCURVE",
"731 -1 OFFCURVE",
"842 -1 CURVE SMOOTH",
"950 -1 OFFCURVE",
"1024 -12 OFFCURVE",
"1079 -17 CURVE",
"1101 40 OFFCURVE",
"1104 165 OFFCURVE",
"1086 222 CURVE",
"1043 237 OFFCURVE",
"1006 274 OFFCURVE",
"1006 392 CURVE SMOOTH",
"1006 515 OFFCURVE",
"1033 785 OFFCURVE",
"808 785 CURVE SMOOTH",
"647 785 OFFCURVE",
"469 764 OFFCURVE",
"333 764 CURVE SMOOTH",
"199 764 OFFCURVE",
"127 770 OFFCURVE",
"72 775 CURVE",
"45 712 OFFCURVE",
"45 582 OFFCURVE",
"68 533 CURVE",
"129 523 OFFCURVE",
"119 448 OFFCURVE",
"108 374 CURVE SMOOTH",
"98 303 OFFCURVE",
"84 235 OFFCURVE",
"20 222 CURVE",
"2 165 OFFCURVE",
"5 40 OFFCURVE",
"27 -17 CURVE"
);
},
{
closed = 1;
nodes = (
"512 466 LINE",
"584 466 LINE",
"584 419 LINE",
"512 419 LINE"
);
}
);
width = 1106;
}
);
leftKerningGroup = A;
rightKerningGroup = A;
unicode = 0041;
},
{
color = 5;
glyphname = Aacute;
layers = (
{
layerId = "863809E3-B3D3-4728-B9C6-73F0AB5A9F00";
paths = (
{
closed = 1;
nodes = (
"86 -11 OFFCURVE",
"174 -1 OFFCURVE",
"298 -1 CURVE SMOOTH",
"415 -1 OFFCURVE",
"471 -12 OFFCURVE",
"526 -17 CURVE",
"541 40 OFFCURVE",
"544 165 OFFCURVE",
"533 222 CURVE",
"505 222 LINE",
"505 272 LINE",
"592 272 LINE",
"592 222 LINE",
"564 222 LINE",
"556 165 OFFCURVE",
"559 40 OFFCURVE",
"571 -17 CURVE",
"626 -12 OFFCURVE",
"731 -1 OFFCURVE",
"842 -1 CURVE SMOOTH",
"950 -1 OFFCURVE",
"1024 -12 OFFCURVE",
"1079 -17 CURVE",
"1101 40 OFFCURVE",
"1104 165 OFFCURVE",
"1086 222 CURVE",
"1043 237 OFFCURVE",
"1006 274 OFFCURVE",
"1006 392 CURVE SMOOTH",
"1006 515 OFFCURVE",
"1033 785 OFFCURVE",
"808 785 CURVE SMOOTH",
"772 785 LINE",
"774 791 OFFCURVE",
"776 798 OFFCURVE",
"776 803 CURVE",
"742 846 OFFCURVE",
"634 877 OFFCURVE",
"530 877 CURVE SMOOTH",
"481 877 OFFCURVE",
"433 870 OFFCURVE",
"394 854 CURVE",
"316 745 OFFCURVE",
"317 607 OFFCURVE",
"380 539 CURVE",
"284 575 OFFCURVE",
"286 694 OFFCURVE",
"310 764 CURVE",
"174 765 OFFCURVE",
"124 770 OFFCURVE",
"72 775 CURVE",
"45 712 OFFCURVE",
"45 582 OFFCURVE",
"68 533 CURVE",
"129 523 OFFCURVE",
"119 448 OFFCURVE",
"108 374 CURVE SMOOTH",
"98 303 OFFCURVE",
"84 235 OFFCURVE",
"20 222 CURVE",
"2 165 OFFCURVE",
"5 40 OFFCURVE",
"27 -17 CURVE"
);
},
{
closed = 1;
nodes = (
"512 466 LINE",
"584 466 LINE",
"584 419 LINE",
"512 419 LINE"
);
}
);
width = 1106;
}
);
leftKerningGroup = A;
leftMetricsKey = "=A";
rightKerningGroup = A;
rightMetricsKey = "=A";
unicode = 00C1;
},
{
color = 5;
glyphname = Abreve;
layers = (
{
layerId = "863809E3-B3D3-4728-B9C6-73F0AB5A9F00";
paths = (
{
closed = 1;
nodes = (
"86 -11 OFFCURVE",
"174 -1 OFFCURVE",
"298 -1 CURVE SMOOTH",
"415 -1 OFFCURVE",
"471 -12 OFFCURVE",
"526 -17 CURVE",
"541 40 OFFCURVE",
"544 165 OFFCURVE",
"533 222 CURVE",
"505 222 LINE",
"505 272 LINE",
"592 272 LINE",
"592 222 LINE",
"564 222 LINE",
"556 165 OFFCURVE",
"559 40 OFFCURVE",
"571 -17 CURVE",
"626 -12 OFFCURVE",
"731 -1 OFFCURVE",
"842 -1 CURVE SMOOTH",
"950 -1 OFFCURVE",
"1024 -12 OFFCURVE",
"1079 -17 CURVE",
"1101 40 OFFCURVE",
"1104 165 OFFCURVE",
"1086 222 CURVE",
"1043 237 OFFCURVE",
"1006 274 OFFCURVE",
"1006 392 CURVE SMOOTH",
"1006 508 OFFCURVE",
"1030 754 OFFCURVE",
"845 782 CURVE",
"845 803 OFFCURVE",
"844 825 OFFCURVE",
"840 847 CURVE",
"805 865 OFFCURVE",
"713 874 OFFCURVE",
"672 875 CURVE",
"652 845 OFFCURVE",
"611 830 OFFCURVE",
"551 830 CURVE SMOOTH",
"491 830 OFFCURVE",
"451 845 OFFCURVE",
"430 875 CURVE",
"385 874 OFFCURVE",
"287 865 OFFCURVE",
"252 847 CURVE",
"232 720 OFFCURVE",
"286 606 OFFCURVE",
"392 553 CURVE",
"283 569 OFFCURVE",
"220 662 OFFCURVE",
"210 766 CURVE",
"149 768 OFFCURVE",
"107 771 OFFCURVE",
"72 775 CURVE",
"45 712 OFFCURVE",
"45 582 OFFCURVE",
"68 533 CURVE",
"129 523 OFFCURVE",
"119 448 OFFCURVE",
"108 374 CURVE SMOOTH",
"98 303 OFFCURVE",
"84 235 OFFCURVE",
"20 222 CURVE",
"2 165 OFFCURVE",
"5 40 OFFCURVE",
"27 -17 CURVE"
);
},
{
closed = 1;
nodes = (
"512 466 LINE",
"584 466 LINE",
"584 419 LINE",
"512 419 LINE"
);
}
);
width = 1106;
}
);
leftKerningGroup = A;
leftMetricsKey = "=A";
rightKerningGroup = A;
rightMetricsKey = "=A";
unicode = 0102;
},
{
color = 5;
glyphname = Abreveacute;
layers = (
{
layerId = "863809E3-B3D3-4728-B9C6-73F0AB5A9F00";
paths = (
{
closed = 1;
nodes = (
"86 -11 OFFCURVE",
"174 -1 OFFCURVE",
"298 -1 CURVE SMOOTH",
"415 -1 OFFCURVE",
"471 -12 OFFCURVE",
"526 -17 CURVE",
"541 40 OFFCURVE",
"544 165 OFFCURVE",
"533 222 CURVE",
"505 222 LINE",
"505 272 LINE",
"592 272 LINE",
"592 222 LINE",
"564 222 LINE",
"556 165 OFFCURVE",
"559 40 OFFCURVE",
"571 -17 CURVE",
"626 -12 OFFCURVE",
"731 -1 OFFCURVE",
"842 -1 CURVE SMOOTH",
"950 -1 OFFCURVE",
"1024 -12 OFFCURVE",
"1079 -17 CURVE",
"1101 40 OFFCURVE",
"1104 165 OFFCURVE",
"1086 222 CURVE",
"1043 237 OFFCURVE",
"1006 274 OFFCURVE",
"1006 392 CURVE SMOOTH",
"1006 508 OFFCURVE",
"1030 754 OFFCURVE",
"845 782 CURVE",
"845 803 OFFCURVE",
"844 825 OFFCURVE",
"840 847 CURVE",
"824 855 OFFCURVE",
"795 862 OFFCURVE",
"764 866 CURVE",
"767 876 OFFCURVE",
"769 885 OFFCURVE",
"771 894 CURVE",
"742 927 OFFCURVE",
"650 953 OFFCURVE",
"563 953 CURVE SMOOTH",
"524 953 OFFCURVE",
"486 948 OFFCURVE",
"455 936 CURVE",
"421 890 OFFCURVE",
"385 783 OFFCURVE",
"424 706 CURVE",
"375 745 OFFCURVE",
"372 816 OFFCURVE",
"388 873 CURVE",
"339 869 OFFCURVE",
"278 860 OFFCURVE",
"252 847 CURVE",
"232 720 OFFCURVE",
"286 606 OFFCURVE",
"392 553 CURVE",
"283 569 OFFCURVE",
"220 662 OFFCURVE",
"210 766 CURVE",
"149 768 OFFCURVE",
"107 771 OFFCURVE",
"72 775 CURVE",
"45 712 OFFCURVE",
"45 582 OFFCURVE",
"68 533 CURVE",
"129 523 OFFCURVE",
"119 448 OFFCURVE",
"108 374 CURVE SMOOTH",
"98 303 OFFCURVE",
"84 235 OFFCURVE",
"20 222 CURVE",
"2 165 OFFCURVE",
"5 40 OFFCURVE",
"27 -17 CURVE"
);
},
{
closed = 1;
nodes = (
"512 466 LINE",
"584 466 LINE",
"584 419 LINE",
"512 419 LINE"
);
}
);
width = 1106;
}
);
leftKerningGroup = A;
leftMetricsKey = "=A";
rightKerningGroup = A;
rightMetricsKey = "=A";
unicode = 1EAE;
},
{
color = 5;
glyphname = Abrevedotbelow;
layers = (
{
layerId = "863809E3-B3D3-4728-B9C6-73F0AB5A9F00";
paths = (
{
closed = 1;
nodes = (
"700 -173 OFFCURVE",
"756 -89 OFFCURVE",
"756 -4 CURVE SMOOTH",
"756 -3 LINE",
"784 -2 OFFCURVE",
"813 -1 OFFCURVE",
"842 -1 CURVE SMOOTH",
"950 -1 OFFCURVE",
"1024 -12 OFFCURVE",
"1079 -17 CURVE",
"1101 40 OFFCURVE",
"1104 165 OFFCURVE",
"1086 222 CURVE",
"1043 237 OFFCURVE",
"1006 274 OFFCURVE",
"1006 392 CURVE SMOOTH",
"1006 508 OFFCURVE",
"1030 754 OFFCURVE",
"845 782 CURVE",
"845 803 OFFCURVE",
"844 825 OFFCURVE",
"840 847 CURVE",
"805 865 OFFCURVE",
"713 874 OFFCURVE",
"672 875 CURVE",
"652 845 OFFCURVE",
"611 830 OFFCURVE",
"551 830 CURVE SMOOTH",
"491 830 OFFCURVE",
"451 845 OFFCURVE",
"430 875 CURVE",
"385 874 OFFCURVE",
"287 865 OFFCURVE",
"252 847 CURVE",
"232 720 OFFCURVE",
"286 606 OFFCURVE",
"392 553 CURVE",
"283 569 OFFCURVE",
"220 662 OFFCURVE",
"210 766 CURVE",
"149 768 OFFCURVE",
"107 771 OFFCURVE",
"72 775 CURVE",
"45 712 OFFCURVE",
"45 582 OFFCURVE",
"68 533 CURVE",
"129 523 OFFCURVE",
"119 448 OFFCURVE",
"108 374 CURVE SMOOTH",
"98 303 OFFCURVE",
"84 235 OFFCURVE",
"20 222 CURVE",
"2 165 OFFCURVE",
"5 40 OFFCURVE",
"27 -17 CURVE",
"84 -11 OFFCURVE",
"168 -2 OFFCURVE",
"286 -1 CURVE",
"290 67 OFFCURVE",
"330 146 OFFCURVE",
"416 151 CURVE",
"346 119 OFFCURVE",
"319 59 OFFCURVE",
"319 5 CURVE SMOOTH",
"319 -97 OFFCURVE",
"395 -173 OFFCURVE",
"541 -173 CURVE SMOOTH"
);
},
{
closed = 1;
nodes = (
"504 272 LINE",
"592 272 LINE",
"592 221 LINE",
"504 221 LINE"
);
},
{
closed = 1;
nodes = (
"512 466 LINE",
"584 466 LINE",
"584 419 LINE",
"512 419 LINE"
);
}
);
width = 1106;
}
);
leftKerningGroup = A;
leftMetricsKey = "=A";
rightKerningGroup = A;
rightMetricsKey = "=A";
unicode = 1EB6;
},
{
color = 5;
glyphname = Abrevegrave;
layers = (
{
layerId = "863809E3-B3D3-4728-B9C6-73F0AB5A9F00";
paths = (
{
closed = 1;
nodes = (
"86 -11 OFFCURVE",
"174 -1 OFFCURVE",
"298 -1 CURVE SMOOTH",
"415 -1 OFFCURVE",
"471 -12 OFFCURVE",
"526 -17 CURVE",
"541 40 OFFCURVE",
"544 165 OFFCURVE",
"533 222 CURVE",
"505 222 LINE",
"505 272 LINE",
"592 272 LINE",
"592 222 LINE",
"564 222 LINE",
"556 165 OFFCURVE",
"559 40 OFFCURVE",
"571 -17 CURVE",
"626 -12 OFFCURVE",
"731 -1 OFFCURVE",
"842 -1 CURVE SMOOTH",
"950 -1 OFFCURVE",
"1024 -12 OFFCURVE",
"1079 -17 CURVE",
"1101 40 OFFCURVE",
"1104 165 OFFCURVE",
"1086 222 CURVE",
"1043 237 OFFCURVE",
"1006 274 OFFCURVE",
"1006 392 CURVE SMOOTH",
"1006 508 OFFCURVE",
"1030 754 OFFCURVE",
"845 782 CURVE",
"845 803 OFFCURVE",
"844 825 OFFCURVE",
"840 847 CURVE",
"815 860 OFFCURVE",
"763 868 OFFCURVE",
"720 872 CURVE",
"711 897 OFFCURVE",
"699 919 OFFCURVE",
"688 934 CURVE",
"656 948 OFFCURVE",
"616 953 OFFCURVE",
"575 953 CURVE SMOOTH",
"489 953 OFFCURVE",
"400 927 OFFCURVE",
"372 892 CURVE",
"383 827 OFFCURVE",
"429 758 OFFCURVE",
"480 709 CURVE",
"406 731 OFFCURVE",
"357 799 OFFCURVE",
"339 868 CURVE",
"304 863 OFFCURVE",
"270 856 OFFCURVE",
"252 847 CURVE",
"232 720 OFFCURVE",
"286 606 OFFCURVE",
"392 553 CURVE",
"283 569 OFFCURVE",
"220 662 OFFCURVE",
"210 766 CURVE",
"149 768 OFFCURVE",
"107 771 OFFCURVE",
"72 775 CURVE",
"45 712 OFFCURVE",
"45 582 OFFCURVE",
"68 533 CURVE",
"129 523 OFFCURVE",
"119 448 OFFCURVE",
"108 374 CURVE SMOOTH",
"98 303 OFFCURVE",
"84 235 OFFCURVE",
"20 222 CURVE",
"2 165 OFFCURVE",
"5 40 OFFCURVE",
"27 -17 CURVE"
);
},
{
closed = 1;
nodes = (
"512 466 LINE",
"584 466 LINE",
"584 419 LINE",
"512 419 LINE"
);
}
);
width = 1106;
}
);
leftKerningGroup = A;
leftMetricsKey = "=A";
rightKerningGroup = A;
rightMetricsKey = "=A";
unicode = 1EB0;
},
{
color = 5;
glyphname = Abrevehookabove;
layers = (
{
layerId = "863809E3-B3D3-4728-B9C6-73F0AB5A9F00";
paths = (
{
closed = 1;
nodes = (
"86 -11 OFFCURVE",
"174 -1 OFFCURVE",
"298 -1 CURVE SMOOTH",
"415 -1 OFFCURVE",
"471 -12 OFFCURVE",
"526 -17 CURVE",
"541 40 OFFCURVE",
"544 165 OFFCURVE",
"533 222 CURVE",
"505 222 LINE",
"505 272 LINE",
"592 272 LINE",
"592 222 LINE",
"564 222 LINE",
"556 165 OFFCURVE",
"559 40 OFFCURVE",
"571 -17 CURVE",
"626 -12 OFFCURVE",
"731 -1 OFFCURVE",
"842 -1 CURVE SMOOTH",
"950 -1 OFFCURVE",
"1024 -12 OFFCURVE",
"1079 -17 CURVE",
"1101 40 OFFCURVE",
"1104 165 OFFCURVE",
"1086 222 CURVE",
"1043 237 OFFCURVE",
"1006 274 OFFCURVE",
"1006 392 CURVE SMOOTH",
"1006 508 OFFCURVE",
"1030 754 OFFCURVE",
"845 782 CURVE",
"845 803 OFFCURVE",
"844 825 OFFCURVE",
"840 847 CURVE",
"820 857 OFFCURVE",
"780 865 OFFCURVE",
"743 869 CURVE",
"728 921 OFFCURVE",
"680 953 OFFCURVE",
"601 953 CURVE SMOOTH",
"518 953 OFFCURVE",
"455 941 OFFCURVE",
"386 937 CURVE",
"369 901 OFFCURVE",
"370 801 OFFCURVE",
"385 758 CURVE",
"411 761 OFFCURVE",
"436 752 OFFCURVE",
"450 723 CURVE",
"421 737 OFFCURVE",
"389 734 OFFCURVE",
"368 731 CURVE",
"350 764 OFFCURVE",
"341 823 OFFCURVE",
"343 868 CURVE",
"307 864 OFFCURVE",
"270 857 OFFCURVE",
"252 847 CURVE",
"232 720 OFFCURVE",
"286 606 OFFCURVE",
"392 553 CURVE",
"283 569 OFFCURVE",
"220 662 OFFCURVE",
"210 766 CURVE",
"149 768 OFFCURVE",
"107 771 OFFCURVE",
"72 775 CURVE",
"45 712 OFFCURVE",
"45 582 OFFCURVE",
"68 533 CURVE",
"129 523 OFFCURVE",
"119 448 OFFCURVE",
"108 374 CURVE SMOOTH",
"98 303 OFFCURVE",
"84 235 OFFCURVE",
"20 222 CURVE",
"2 165 OFFCURVE",
"5 40 OFFCURVE",
"27 -17 CURVE"
);
},
{
closed = 1;
nodes = (
"512 466 LINE",
"584 466 LINE",
"584 419 LINE",
"512 419 LINE"
);
}
);
width = 1106;
}
);
leftKerningGroup = A;
leftMetricsKey = "=A";
rightKerningGroup = A;
rightMetricsKey = "=A";
unicode = 1EB2;
},
{
color = 5;
glyphname = Abrevetilde;
layers = (
{
layerId = "863809E3-B3D3-4728-B9C6-73F0AB5A9F00";
paths = (
{
closed = 1;
nodes = (
"86 -11 OFFCURVE",
"174 -1 OFFCURVE",
"298 -1 CURVE SMOOTH",
"415 -1 OFFCURVE",
"471 -12 OFFCURVE",
"526 -17 CURVE",
"541 40 OFFCURVE",
"544 165 OFFCURVE",
"533 222 CURVE",
"505 222 LINE",
"505 272 LINE",
"592 272 LINE",
"592 222 LINE",
"564 222 LINE",
"556 165 OFFCURVE",
"559 40 OFFCURVE",
"571 -17 CURVE",
"626 -12 OFFCURVE",
"731 -1 OFFCURVE",
"842 -1 CURVE SMOOTH",
"950 -1 OFFCURVE",
"1024 -12 OFFCURVE",
"1079 -17 CURVE",
"1101 40 OFFCURVE",
"1104 165 OFFCURVE",
"1086 222 CURVE",
"1043 237 OFFCURVE",
"1006 274 OFFCURVE",
"1006 392 CURVE SMOOTH",
"1006 508 OFFCURVE",
"1030 754 OFFCURVE",
"845 782 CURVE",
"845 803 OFFCURVE",
"844 825 OFFCURVE",
"840 847 CURVE",
"825 855 OFFCURVE",
"801 861 OFFCURVE",
"774 865 CURVE",
"775 884 OFFCURVE",
"776 905 OFFCURVE",
"776 928 CURVE",
"750 943 OFFCURVE",
"681 951 OFFCURVE",
"650 952 CURVE",
"640 934 OFFCURVE",
"622 923 OFFCURVE",
"595 923 CURVE SMOOTH",
"557 923 OFFCURVE",
"514 948 OFFCURVE",
"461 948 CURVE SMOOTH",
"382 948 OFFCURVE",
"341 891 OFFCURVE",
"335 747 CURVE",
"316 783 OFFCURVE",
"317 829 OFFCURVE",
"322 865 CURVE",
"293 861 OFFCURVE",
"267 854 OFFCURVE",
"252 847 CURVE",
"232 720 OFFCURVE",
"286 606 OFFCURVE",
"392 553 CURVE",
"283 569 OFFCURVE",
"220 662 OFFCURVE",
"210 766 CURVE",
"149 768 OFFCURVE",
"107 771 OFFCURVE",
"72 775 CURVE",
"45 712 OFFCURVE",
"45 582 OFFCURVE",
"68 533 CURVE",
"129 523 OFFCURVE",
"119 448 OFFCURVE",
"108 374 CURVE SMOOTH",
"98 303 OFFCURVE",
"84 235 OFFCURVE",
"20 222 CURVE",
"2 165 OFFCURVE",
"5 40 OFFCURVE",
"27 -17 CURVE"
);
},
{
closed = 1;
nodes = (
"512 466 LINE",
"584 466 LINE",
"584 419 LINE",
"512 419 LINE"
);
}
);
width = 1106;
}
);
leftKerningGroup = A;
leftMetricsKey = "=A";
rightKerningGroup = A;
rightMetricsKey = "=A";
unicode = 1EB4;
},
{
color = 5;
glyphname = Acircumflex;
layers = (
{
layerId = "863809E3-B3D3-4728-B9C6-73F0AB5A9F00";
paths = (
{
closed = 1;
nodes = (
"86 -11 OFFCURVE",
"174 -1 OFFCURVE",
"298 -1 CURVE SMOOTH",
"415 -1 OFFCURVE",
"471 -12 OFFCURVE",
"526 -17 CURVE",
"541 40 OFFCURVE",
"544 165 OFFCURVE",
"533 222 CURVE",
"505 222 LINE",
"505 272 LINE",
"592 272 LINE",
"592 222 LINE",
"564 222 LINE",
"556 165 OFFCURVE",
"559 40 OFFCURVE",
"571 -17 CURVE",
"626 -12 OFFCURVE",
"731 -1 OFFCURVE",
"842 -1 CURVE SMOOTH",
"950 -1 OFFCURVE",
"1024 -12 OFFCURVE",
"1079 -17 CURVE",
"1101 40 OFFCURVE",
"1104 165 OFFCURVE",
"1086 222 CURVE",
"1043 237 OFFCURVE",
"1006 274 OFFCURVE",
"1006 392 CURVE SMOOTH",
"1006 515 OFFCURVE",
"1033 785 OFFCURVE",
"808 785 CURVE SMOOTH",
"773 785 LINE",
"748 820 OFFCURVE",
"720 849 OFFCURVE",
"694 867 CURVE",
"666 872 OFFCURVE",
"607 875 OFFCURVE",
"546 875 CURVE SMOOTH",
"490 875 OFFCURVE",
"431 873 OFFCURVE",
"392 867 CURVE",
"316 815 OFFCURVE",
"239 687 OFFCURVE",
"248 559 CURVE",
"221 600 OFFCURVE",
"228 705 OFFCURVE",
"257 762 CURVE",
"191 765 OFFCURVE",
"108 772 OFFCURVE",
"72 775 CURVE",
"45 712 OFFCURVE",
"45 582 OFFCURVE",
"68 533 CURVE",
"129 523 OFFCURVE",
"119 448 OFFCURVE",
"108 374 CURVE SMOOTH",
"98 303 OFFCURVE",
"84 235 OFFCURVE",
"20 222 CURVE",
"2 165 OFFCURVE",
"5 40 OFFCURVE",
"27 -17 CURVE"
);
},
{
closed = 1;
nodes = (
"523 540 LINE",
"557 540 LINE",
"557 419 LINE",
"523 419 LINE"
);
}
);
width = 1106;
}
);
leftKerningGroup = A;
leftMetricsKey = "=A";
rightKerningGroup = A;
rightMetricsKey = "=A";
unicode = 00C2;
},
{
color = 5;
glyphname = Acircumflexacute;
layers = (
{
layerId = "863809E3-B3D3-4728-B9C6-73F0AB5A9F00";
paths = (
{
closed = 1;
nodes = (
"86 -11 OFFCURVE",
"174 -1 OFFCURVE",
"298 -1 CURVE SMOOTH",
"415 -1 OFFCURVE",
"471 -12 OFFCURVE",
"526 -17 CURVE",
"541 40 OFFCURVE",
"544 165 OFFCURVE",
"533 222 CURVE",
"505 222 LINE",
"505 272 LINE",
"592 272 LINE",
"592 222 LINE",
"564 222 LINE",
"556 165 OFFCURVE",
"559 40 OFFCURVE",
"571 -17 CURVE",
"626 -12 OFFCURVE",
"731 -1 OFFCURVE",
"842 -1 CURVE SMOOTH",
"950 -1 OFFCURVE",
"1024 -12 OFFCURVE",
"1079 -17 CURVE",
"1101 40 OFFCURVE",
"1104 165 OFFCURVE",
"1086 222 CURVE",
"1043 237 OFFCURVE",
"1006 274 OFFCURVE",
"1006 392 CURVE SMOOTH",
"1006 508 OFFCURVE",
"1030 753 OFFCURVE",
"846 782 CURVE",
"868 816 OFFCURVE",
"884 852 OFFCURVE",
"890 887 CURVE",
"862 922 OFFCURVE",
"773 948 OFFCURVE",
"687 948 CURVE SMOOTH",
"646 948 OFFCURVE",
"606 943 OFFCURVE",
"574 929 CURVE",
"540 883 OFFCURVE",
"504 776 OFFCURVE",
"543 699 CURVE",
"499 734 OFFCURVE",
"487 797 OFFCURVE",
"508 875 CURVE",
"464 874 OFFCURVE",
"422 872 OFFCURVE",
"392 867 CURVE",
"316 815 OFFCURVE",
"239 687 OFFCURVE",
"248 559 CURVE",
"221 600 OFFCURVE",
"228 705 OFFCURVE",
"257 762 CURVE",
"191 765 OFFCURVE",
"108 772 OFFCURVE",
"72 775 CURVE",
"45 712 OFFCURVE",
"45 582 OFFCURVE",
"68 533 CURVE",
"129 523 OFFCURVE",
"119 448 OFFCURVE",
"108 374 CURVE SMOOTH",
"98 303 OFFCURVE",
"84 235 OFFCURVE",
"20 222 CURVE",
"2 165 OFFCURVE",
"5 40 OFFCURVE",
"27 -17 CURVE"
);
},
{
closed = 1;
nodes = (
"523 540 LINE",
"557 540 LINE",
"557 419 LINE",
"523 419 LINE"
);
}
);
width = 1106;
}
);
leftKerningGroup = A;
leftMetricsKey = "=A";
rightKerningGroup = A;
rightMetricsKey = "=A";
unicode = 1EA4;
},
{
color = 5;
glyphname = Acircumflexdotbelow;
layers = (
{
layerId = "863809E3-B3D3-4728-B9C6-73F0AB5A9F00";
paths = (
{
closed = 1;
nodes = (
"700 -173 OFFCURVE",
"756 -89 OFFCURVE",
"756 -4 CURVE SMOOTH",
"756 -3 LINE",
"784 -2 OFFCURVE",
"813 -1 OFFCURVE",
"842 -1 CURVE SMOOTH",
"950 -1 OFFCURVE",
"1024 -12 OFFCURVE",
"1079 -17 CURVE",
"1101 40 OFFCURVE",
"1104 165 OFFCURVE",
"1086 222 CURVE",
"1043 237 OFFCURVE",
"1006 274 OFFCURVE",
"1006 392 CURVE SMOOTH",
"1006 515 OFFCURVE",
"1033 785 OFFCURVE",
"808 785 CURVE SMOOTH",
"773 785 LINE",
"748 820 OFFCURVE",
"720 849 OFFCURVE",
"694 867 CURVE",
"666 872 OFFCURVE",
"607 875 OFFCURVE",
"546 875 CURVE SMOOTH",
"490 875 OFFCURVE",
"431 873 OFFCURVE",
"392 867 CURVE",
"316 815 OFFCURVE",
"239 687 OFFCURVE",
"248 559 CURVE",
"221 600 OFFCURVE",
"228 705 OFFCURVE",
"257 762 CURVE",
"191 765 OFFCURVE",
"108 772 OFFCURVE",
"72 775 CURVE",
"45 712 OFFCURVE",
"45 582 OFFCURVE",
"68 533 CURVE",
"129 523 OFFCURVE",
"119 448 OFFCURVE",
"108 374 CURVE SMOOTH",
"98 303 OFFCURVE",
"84 235 OFFCURVE",
"20 222 CURVE",
"2 165 OFFCURVE",
"5 40 OFFCURVE",
"27 -17 CURVE",
"84 -11 OFFCURVE",
"168 -2 OFFCURVE",
"286 -1 CURVE",
"290 67 OFFCURVE",
"330 146 OFFCURVE",
"416 151 CURVE",
"346 119 OFFCURVE",
"319 59 OFFCURVE",
"319 5 CURVE SMOOTH",
"319 -97 OFFCURVE",
"395 -173 OFFCURVE",
"541 -173 CURVE SMOOTH"
);
},
{
closed = 1;
nodes = (
"504 272 LINE",
"592 272 LINE",
"592 221 LINE",
"504 221 LINE"
);
},
{
closed = 1;
nodes = (
"523 540 LINE",
"557 540 LINE",
"557 419 LINE",
"523 419 LINE"
);
}
);
width = 1106;
}
);
leftKerningGroup = A;
leftMetricsKey = "=A";
rightKerningGroup = A;
rightMetricsKey = "=A";
unicode = 1EAC;
},
{
color = 5;
glyphname = Acircumflexgrave;
layers = (
{
layerId = "863809E3-B3D3-4728-B9C6-73F0AB5A9F00";
paths = (
{
closed = 1;
nodes = (
"86 -11 OFFCURVE",
"174 -1 OFFCURVE",
"298 -1 CURVE SMOOTH",
"415 -1 OFFCURVE",
"471 -12 OFFCURVE",
"526 -17 CURVE",
"541 40 OFFCURVE",
"544 165 OFFCURVE",
"533 222 CURVE",
"505 222 LINE",
"505 272 LINE",
"592 272 LINE",
"592 222 LINE",
"564 222 LINE",
"556 165 OFFCURVE",
"559 40 OFFCURVE",
"571 -17 CURVE",
"626 -12 OFFCURVE",
"731 -1 OFFCURVE",
"842 -1 CURVE SMOOTH",
"950 -1 OFFCURVE",
"1024 -12 OFFCURVE",
"1079 -17 CURVE",
"1101 40 OFFCURVE",
"1104 165 OFFCURVE",
"1086 222 CURVE",
"1043 237 OFFCURVE",
"1006 274 OFFCURVE",
"1006 392 CURVE SMOOTH",
"1006 493 OFFCURVE",
"1024 694 OFFCURVE",
"905 762 CURVE",
"911 828 OFFCURVE",
"884 899 OFFCURVE",
"858 934 CURVE",
"826 948 OFFCURVE",
"786 953 OFFCURVE",
"745 953 CURVE SMOOTH",
"659 953 OFFCURVE",
"570 927 OFFCURVE",
"542 892 CURVE",
"553 827 OFFCURVE",
"599 758 OFFCURVE",
"650 709 CURVE",
"577 731 OFFCURVE",
"529 797 OFFCURVE",
"508 875 CURVE",
"464 874 OFFCURVE",
"422 872 OFFCURVE",
"392 867 CURVE",
"316 815 OFFCURVE",
"239 687 OFFCURVE",
"248 559 CURVE",
"221 600 OFFCURVE",
"228 705 OFFCURVE",
"257 762 CURVE",
"191 765 OFFCURVE",
"108 772 OFFCURVE",
"72 775 CURVE",
"45 712 OFFCURVE",
"45 582 OFFCURVE",
"68 533 CURVE",
"129 523 OFFCURVE",
"119 448 OFFCURVE",
"108 374 CURVE SMOOTH",
"98 303 OFFCURVE",
"84 235 OFFCURVE",
"20 222 CURVE",
"2 165 OFFCURVE",
"5 40 OFFCURVE",
"27 -17 CURVE"
);
},
{
closed = 1;
nodes = (
"523 540 LINE",
"557 540 LINE",
"557 419 LINE",
"523 419 LINE"
);
}
);
width = 1106;
}
);
leftKerningGroup = A;
rightKerningGroup = A;
unicode = 1EA6;
},
{
color = 5;
glyphname = Acircumflexhookabove;
layers = (
{
layerId = "863809E3-B3D3-4728-B9C6-73F0AB5A9F00";
paths = (
{
closed = 1;
nodes = (
"86 -11 OFFCURVE",
"174 -1 OFFCURVE",
"298 -1 CURVE SMOOTH",
"415 -1 OFFCURVE",
"471 -12 OFFCURVE",
"526 -17 CURVE",
"541 40 OFFCURVE",
"544 165 OFFCURVE",
"533 222 CURVE",
"505 222 LINE",
"505 272 LINE",
"592 272 LINE",
"592 222 LINE",
"564 222 LINE",
"556 165 OFFCURVE",
"559 40 OFFCURVE",
"571 -17 CURVE",
"626 -12 OFFCURVE",
"731 -1 OFFCURVE",
"842 -1 CURVE SMOOTH",
"950 -1 OFFCURVE",
"1024 -12 OFFCURVE",
"1079 -17 CURVE",
"1101 40 OFFCURVE",
"1104 165 OFFCURVE",
"1086 222 CURVE",
"1043 237 OFFCURVE",
"1006 274 OFFCURVE",
"1006 392 CURVE SMOOTH",
"1006 496 OFFCURVE",
"1025 704 OFFCURVE",
"896 767 CURVE",
"905 791 OFFCURVE",
"908 813 OFFCURVE",
"908 832 CURVE SMOOTH",
"908 906 OFFCURVE",
"857 953 OFFCURVE",
"761 953 CURVE SMOOTH",
"678 953 OFFCURVE",
"615 941 OFFCURVE",
"546 937 CURVE",
"529 901 OFFCURVE",
"530 801 OFFCURVE",
"545 758 CURVE",
"571 761 OFFCURVE",
"596 752 OFFCURVE",
"610 723 CURVE",
"581 737 OFFCURVE",
"549 734 OFFCURVE",
"528 731 CURVE",
"511 763 OFFCURVE",
"502 819 OFFCURVE",
"505 875 CURVE",
"462 874 OFFCURVE",
"421 871 OFFCURVE",
"392 867 CURVE",
"316 815 OFFCURVE",
"239 687 OFFCURVE",
"248 559 CURVE",
"221 600 OFFCURVE",
"228 705 OFFCURVE",
"257 762 CURVE",
"191 765 OFFCURVE",
"108 772 OFFCURVE",
"72 775 CURVE",
"45 712 OFFCURVE",
"45 582 OFFCURVE",
"68 533 CURVE",
"129 523 OFFCURVE",
"119 448 OFFCURVE",
"108 374 CURVE SMOOTH",
"98 303 OFFCURVE",
"84 235 OFFCURVE",
"20 222 CURVE",
"2 165 OFFCURVE",
"5 40 OFFCURVE",
"27 -17 CURVE"
);
},
{
closed = 1;
nodes = (
"523 540 LINE",
"557 540 LINE",
"557 419 LINE",
"523 419 LINE"
);
}
);
width = 1106;
}
);
leftKerningGroup = A;
leftMetricsKey = "=A";
rightKerningGroup = A;
rightMetricsKey = "=A";
unicode = 1EA8;
},
{
color = 5;
glyphname = Acircumflextilde;
layers = (
{
layerId = "863809E3-B3D3-4728-B9C6-73F0AB5A9F00";
paths = (
{
closed = 1;
nodes = (
"86 -11 OFFCURVE",
"174 -1 OFFCURVE",
"298 -1 CURVE SMOOTH",
"415 -1 OFFCURVE",
"471 -12 OFFCURVE",
"526 -17 CURVE",
"541 40 OFFCURVE",
"544 165 OFFCURVE",
"533 222 CURVE",
"505 222 LINE",
"505 272 LINE",
"592 272 LINE",
"592 222 LINE",
"564 222 LINE",
"556 165 OFFCURVE",
"559 40 OFFCURVE",
"571 -17 CURVE",
"626 -12 OFFCURVE",
"731 -1 OFFCURVE",
"842 -1 CURVE SMOOTH",
"950 -1 OFFCURVE",
"1024 -12 OFFCURVE",
"1079 -17 CURVE",
"1101 40 OFFCURVE",
"1104 165 OFFCURVE",
"1086 222 CURVE",
"1043 237 OFFCURVE",
"1006 274 OFFCURVE",
"1006 392 CURVE SMOOTH",
"1006 489 OFFCURVE",
"1023 678 OFFCURVE",
"919 753 CURVE",
"936 792 OFFCURVE",
"944 849 OFFCURVE",
"944 928 CURVE",
"918 943 OFFCURVE",
"849 951 OFFCURVE",
"819 952 CURVE",
"809 934 OFFCURVE",
"791 923 OFFCURVE",
"764 923 CURVE SMOOTH",
"726 923 OFFCURVE",
"683 948 OFFCURVE",
"631 948 CURVE SMOOTH",
"552 948 OFFCURVE",
"511 891 OFFCURVE",
"505 747 CURVE",
"487 781 OFFCURVE",
"484 827 OFFCURVE",
"495 875 CURVE",
"456 874 OFFCURVE",
"420 871 OFFCURVE",
"392 867 CURVE",
"316 815 OFFCURVE",
"239 687 OFFCURVE",
"248 559 CURVE",
"221 600 OFFCURVE",
"228 705 OFFCURVE",
"257 762 CURVE",
"191 765 OFFCURVE",
"108 772 OFFCURVE",
"72 775 CURVE",
"45 712 OFFCURVE",
"45 582 OFFCURVE",
"68 533 CURVE",
"129 523 OFFCURVE",
"119 448 OFFCURVE",
"108 374 CURVE SMOOTH",
"98 303 OFFCURVE",
"84 235 OFFCURVE",
"20 222 CURVE",
"2 165 OFFCURVE",
"5 40 OFFCURVE",
"27 -17 CURVE"
);
},
{
closed = 1;
nodes = (
"523 540 LINE",
"557 540 LINE",
"557 419 LINE",
"523 419 LINE"
);
}
);
width = 1106;
}
);
leftKerningGroup = A;
leftMetricsKey = "=A";
rightKerningGroup = A;
rightMetricsKey = "=A";
unicode = 1EAA;
},
{
color = 5;
glyphname = Adblgrave;
layers = (
{
layerId = "863809E3-B3D3-4728-B9C6-73F0AB5A9F00";
paths = (
{
closed = 1;
nodes = (
"86 -11 OFFCURVE",
"174 -1 OFFCURVE",
"298 -1 CURVE SMOOTH",
"415 -1 OFFCURVE",
"471 -12 OFFCURVE",
"526 -17 CURVE",
"541 40 OFFCURVE",
"544 165 OFFCURVE",
"533 222 CURVE",
"505 222 LINE",
"505 272 LINE",
"592 272 LINE",
"592 222 LINE",
"564 222 LINE",
"556 165 OFFCURVE",
"559 40 OFFCURVE",
"571 -17 CURVE",
"626 -12 OFFCURVE",
"731 -1 OFFCURVE",
"842 -1 CURVE SMOOTH",
"950 -1 OFFCURVE",
"1024 -12 OFFCURVE",
"1079 -17 CURVE",
"1101 40 OFFCURVE",
"1104 165 OFFCURVE",
"1086 222 CURVE",
"1043 237 OFFCURVE",
"1006 274 OFFCURVE",
"1006 392 CURVE SMOOTH",
"1006 510 OFFCURVE",
"1031 762 OFFCURVE",
"836 784 CURVE",
"825 812 OFFCURVE",
"812 837 OFFCURVE",
"799 854 CURVE",
"760 870 OFFCURVE",
"712 877 OFFCURVE",
"663 877 CURVE SMOOTH",
"559 877 OFFCURVE",
"451 846 OFFCURVE",
"417 803 CURVE",
"426 835 OFFCURVE",
"453 864 OFFCURVE",
"474 872 CURVE",
"451 876 OFFCURVE",
"427 877 OFFCURVE",
"403 877 CURVE SMOOTH",
"299 877 OFFCURVE",
"191 846 OFFCURVE",
"157 803 CURVE",
"172 712 OFFCURVE",
"243 615 OFFCURVE",
"316 557 CURVE",
"237 582 OFFCURVE",
"165 645 OFFCURVE",
"122 771 CURVE",
"104 772 OFFCURVE",
"87 774 OFFCURVE",
"72 775 CURVE",
"45 712 OFFCURVE",
"45 582 OFFCURVE",
"68 533 CURVE",
"129 523 OFFCURVE",
"119 448 OFFCURVE",
"108 374 CURVE SMOOTH",
"98 303 OFFCURVE",
"84 235 OFFCURVE",
"20 222 CURVE",
"2 165 OFFCURVE",
"5 40 OFFCURVE",
"27 -17 CURVE"
);
},
{
closed = 1;
nodes = (
"523 496 LINE",
"573 496 LINE",
"573 419 LINE",
"523 419 LINE"
);
}
);
width = 1106;
}
);
leftKerningGroup = A;
leftMetricsKey = "=A";
rightKerningGroup = A;
rightMetricsKey = "=A";
unicode = 0200;
},
{
color = 5;
glyphname = Adieresis;
layers = (
{
layerId = "863809E3-B3D3-4728-B9C6-73F0AB5A9F00";
paths = (
{
closed = 1;
nodes = (
"86 -11 OFFCURVE",
"174 -1 OFFCURVE",
"298 -1 CURVE SMOOTH",
"415 -1 OFFCURVE",
"471 -12 OFFCURVE",
"526 -17 CURVE",
"541 40 OFFCURVE",
"544 165 OFFCURVE",
"533 222 CURVE",
"505 222 LINE",
"505 272 LINE",
"592 272 LINE",
"592 222 LINE",
"564 222 LINE",
"556 165 OFFCURVE",
"559 40 OFFCURVE",
"571 -17 CURVE",
"626 -12 OFFCURVE",
"731 -1 OFFCURVE",
"842 -1 CURVE SMOOTH",
"950 -1 OFFCURVE",
"1024 -12 OFFCURVE",
"1079 -17 CURVE",
"1101 40 OFFCURVE",
"1104 165 OFFCURVE",
"1086 222 CURVE",
"1043 237 OFFCURVE",
"1006 274 OFFCURVE",
"1006 392 CURVE SMOOTH",
"1006 500 OFFCURVE",
"1027 721 OFFCURVE",
"880 774 CURVE",
"854 832 OFFCURVE",
"792 876 OFFCURVE",
"679 876 CURVE SMOOTH",
"551 876 OFFCURVE",
"488 822 OFFCURVE",
"467 760 CURVE",
"459 795 OFFCURVE",
"471 837 OFFCURVE",
"515 866 CURVE",
"491 871 OFFCURVE",
"462 876 OFFCURVE",
"429 876 CURVE SMOOTH",
"264 876 OFFCURVE",
"209 786 OFFCURVE",
"209 707 CURVE SMOOTH",
"209 633 OFFCURVE",
"255 573 OFFCURVE",
"318 545 CURVE",
"221 554 OFFCURVE",
"152 639 OFFCURVE",
"181 768 CURVE",
"139 770 OFFCURVE",
"98 772 OFFCURVE",
"72 775 CURVE",
"45 712 OFFCURVE",
"45 582 OFFCURVE",
"68 533 CURVE",
"129 523 OFFCURVE",
"119 448 OFFCURVE",
"108 374 CURVE SMOOTH",
"98 303 OFFCURVE",
"84 235 OFFCURVE",
"20 222 CURVE",
"2 165 OFFCURVE",
"5 40 OFFCURVE",
"27 -17 CURVE"
);
},
{
closed = 1;
nodes = (
"512 466 LINE",
"584 466 LINE",
"584 419 LINE",
"512 419 LINE"
);
}
);
width = 1106;
}
);
leftKerningGroup = A;
leftMetricsKey = "=A";
rightKerningGroup = A;
rightMetricsKey = "=A";
unicode = 00C4;
},
{
color = 5;
glyphname = Adotbelow;
layers = (
{
layerId = "863809E3-B3D3-4728-B9C6-73F0AB5A9F00";
paths = (
{
closed = 1;
nodes = (
"700 -173 OFFCURVE",
"756 -89 OFFCURVE",
"756 -4 CURVE SMOOTH",
"756 -3 LINE",
"784 -2 OFFCURVE",
"813 -1 OFFCURVE",
"842 -1 CURVE SMOOTH",
"950 -1 OFFCURVE",
"1024 -12 OFFCURVE",
"1079 -17 CURVE",
"1101 40 OFFCURVE",
"1104 165 OFFCURVE",
"1086 222 CURVE",
"1043 237 OFFCURVE",
"1006 274 OFFCURVE",
"1006 392 CURVE SMOOTH",
"1006 515 OFFCURVE",
"1033 785 OFFCURVE",
"808 785 CURVE SMOOTH",
"647 785 OFFCURVE",
"469 764 OFFCURVE",
"333 764 CURVE SMOOTH",
"199 764 OFFCURVE",
"127 770 OFFCURVE",
"72 775 CURVE",
"45 712 OFFCURVE",
"45 582 OFFCURVE",
"68 533 CURVE",
"129 523 OFFCURVE",
"119 448 OFFCURVE",
"108 374 CURVE SMOOTH",
"98 303 OFFCURVE",
"84 235 OFFCURVE",
"20 222 CURVE",
"2 165 OFFCURVE",
"5 40 OFFCURVE",
"27 -17 CURVE",
"84 -11 OFFCURVE",
"168 -2 OFFCURVE",
"286 -1 CURVE",
"290 67 OFFCURVE",
"330 146 OFFCURVE",
"416 151 CURVE",
"346 119 OFFCURVE",
"319 59 OFFCURVE",
"319 5 CURVE SMOOTH",
"319 -97 OFFCURVE",
"395 -173 OFFCURVE",
"541 -173 CURVE SMOOTH"
);
},
{
closed = 1;
nodes = (
"504 272 LINE",
"592 272 LINE",
"592 221 LINE",
"504 221 LINE"
);
},
{
closed = 1;
nodes = (
"512 466 LINE",
"584 466 LINE",
"584 419 LINE",
"512 419 LINE"
);
}
);
width = 1106;
}
);
leftKerningGroup = A;
leftMetricsKey = "=A";
rightKerningGroup = A;
rightMetricsKey = "=A";
unicode = 1EA0;
},
{
color = 5;
glyphname = Agrave;
layers = (
{
layerId = "863809E3-B3D3-4728-B9C6-73F0AB5A9F00";
paths = (
{
closed = 1;
nodes = (
"86 -11 OFFCURVE",
"174 -1 OFFCURVE",
"298 -1 CURVE SMOOTH",
"415 -1 OFFCURVE",
"471 -12 OFFCURVE",
"526 -17 CURVE",
"541 40 OFFCURVE",
"544 165 OFFCURVE",
"533 222 CURVE",
"505 222 LINE",
"505 272 LINE",
"592 272 LINE",
"592 222 LINE",
"564 222 LINE",
"556 165 OFFCURVE",
"559 40 OFFCURVE",
"571 -17 CURVE",
"626 -12 OFFCURVE",
"731 -1 OFFCURVE",
"842 -1 CURVE SMOOTH",
"950 -1 OFFCURVE",
"1024 -12 OFFCURVE",
"1079 -17 CURVE",
"1101 40 OFFCURVE",
"1104 165 OFFCURVE",
"1086 222 CURVE",
"1043 237 OFFCURVE",
"1006 274 OFFCURVE",
"1006 392 CURVE SMOOTH",
"1006 515 OFFCURVE",
"1033 785 OFFCURVE",
"808 785 CURVE SMOOTH",
"768 785 OFFCURVE",
"728 784 OFFCURVE",
"687 782 CURVE",
"677 811 OFFCURVE",
"663 836 OFFCURVE",
"650 854 CURVE",
"611 870 OFFCURVE",
"563 877 OFFCURVE",
"514 877 CURVE SMOOTH",
"410 877 OFFCURVE",
"302 846 OFFCURVE",
"268 803 CURVE",
"283 712 OFFCURVE",
"354 615 OFFCURVE",
"427 557 CURVE",
"346 582 OFFCURVE",
"278 648 OFFCURVE",
"236 765 CURVE",
"161 767 OFFCURVE",
"112 771 OFFCURVE",
"72 775 CURVE",
"45 712 OFFCURVE",
"45 582 OFFCURVE",
"68 533 CURVE",
"129 523 OFFCURVE",
"119 448 OFFCURVE",
"108 374 CURVE SMOOTH",
"98 303 OFFCURVE",
"84 235 OFFCURVE",
"20 222 CURVE",
"2 165 OFFCURVE",
"5 40 OFFCURVE",
"27 -17 CURVE"
);
},
{
closed = 1;
nodes = (
"512 466 LINE",
"584 466 LINE",
"584 419 LINE",
"512 419 LINE"
);
}
);
width = 1106;
}
);
leftKerningGroup = A;
leftMetricsKey = "=A";
rightKerningGroup = A;
rightMetricsKey = "=A";
unicode = 00C0;
},
{
color = 5;
glyphname = Ahookabove;
layers = (
{
layerId = "863809E3-B3D3-4728-B9C6-73F0AB5A9F00";
paths = (
{
closed = 1;
nodes = (
"86 -11 OFFCURVE",
"174 -1 OFFCURVE",
"298 -1 CURVE SMOOTH",
"415 -1 OFFCURVE",
"471 -12 OFFCURVE",
"526 -17 CURVE",
"541 40 OFFCURVE",
"544 165 OFFCURVE",
"533 222 CURVE",
"505 222 LINE",
"505 272 LINE",
"592 272 LINE",
"592 222 LINE",
"564 222 LINE",
"556 165 OFFCURVE",
"559 40 OFFCURVE",
"571 -17 CURVE",
"626 -12 OFFCURVE",
"731 -1 OFFCURVE",
"842 -1 CURVE SMOOTH",
"950 -1 OFFCURVE",
"1024 -12 OFFCURVE",
"1079 -17 CURVE",
"1101 40 OFFCURVE",
"1104 165 OFFCURVE",
"1086 222 CURVE",
"1043 237 OFFCURVE",
"1006 274 OFFCURVE",
"1006 392 CURVE SMOOTH",
"1006 515 OFFCURVE",
"1033 785 OFFCURVE",
"808 785 CURVE SMOOTH",
"783 785 OFFCURVE",
"757 784 OFFCURVE",
"731 784 CURVE",
"710 841 OFFCURVE",
"653 876 OFFCURVE",
"563 876 CURVE SMOOTH",
"462 876 OFFCURVE",
"386 861 OFFCURVE",
"302 856 CURVE",
"282 813 OFFCURVE",
"283 692 OFFCURVE",
"301 639 CURVE",
"336 644 OFFCURVE",
"368 630 OFFCURVE",
"383 588 CURVE",
"359 605 OFFCURVE",
"327 614 OFFCURVE",
"286 609 CURVE",
"268 632 OFFCURVE",
"254 700 OFFCURVE",
"256 765 CURVE",
"168 766 OFFCURVE",
"115 771 OFFCURVE",
"72 775 CURVE",
"45 712 OFFCURVE",
"45 582 OFFCURVE",
"68 533 CURVE",
"129 523 OFFCURVE",
"119 448 OFFCURVE",
"108 374 CURVE SMOOTH",
"98 303 OFFCURVE",
"84 235 OFFCURVE",
"20 222 CURVE",
"2 165 OFFCURVE",
"5 40 OFFCURVE",
"27 -17 CURVE"
);
},
{
closed = 1;
nodes = (
"512 466 LINE",
"584 466 LINE",
"584 419 LINE",
"512 419 LINE"
);
}
);
width = 1106;
}
);
leftKerningGroup = A;
leftMetricsKey = "=A";
rightKerningGroup = A;
rightMetricsKey = "=A";
unicode = 1EA2;
},
{
color = 5;
glyphname = Ainvertedbreve;
layers = (
{
layerId = "863809E3-B3D3-4728-B9C6-73F0AB5A9F00";
paths = (
{
closed = 1;
nodes = (
"86 -11 OFFCURVE",
"174 -1 OFFCURVE",
"298 -1 CURVE SMOOTH",
"415 -1 OFFCURVE",
"471 -12 OFFCURVE",
"526 -17 CURVE",
"541 40 OFFCURVE",
"544 165 OFFCURVE",
"533 222 CURVE",
"505 222 LINE",
"505 272 LINE",
"592 272 LINE",
"592 222 LINE",
"564 222 LINE",
"556 165 OFFCURVE",
"559 40 OFFCURVE",
"571 -17 CURVE",
"626 -12 OFFCURVE",
"731 -1 OFFCURVE",
"842 -1 CURVE SMOOTH",
"950 -1 OFFCURVE",
"1024 -12 OFFCURVE",
"1079 -17 CURVE",
"1101 40 OFFCURVE",
"1104 165 OFFCURVE",
"1086 222 CURVE",
"1043 237 OFFCURVE",
"1006 274 OFFCURVE",
"1006 392 CURVE SMOOTH",
"1006 515 OFFCURVE",
"1033 785 OFFCURVE",
"808 785 CURVE SMOOTH",
"784 785 LINE",
"734 840 OFFCURVE",
"659 875 OFFCURVE",
"564 875 CURVE SMOOTH",
"339 875 OFFCURVE",
"227 745 OFFCURVE",
"258 550 CURVE",
"220 618 OFFCURVE",
"220 699 OFFCURVE",
"252 764 CURVE",
"168 767 OFFCURVE",
"115 771 OFFCURVE",
"72 775 CURVE",
"45 712 OFFCURVE",
"45 582 OFFCURVE",
"68 533 CURVE",
"129 523 OFFCURVE",
"119 448 OFFCURVE",
"108 374 CURVE SMOOTH",
"98 303 OFFCURVE",
"84 235 OFFCURVE",
"20 222 CURVE",
"2 165 OFFCURVE",
"5 40 OFFCURVE",
"27 -17 CURVE"
);
},
{
closed = 1;
nodes = (
"521 486 LINE",
"575 486 LINE",
"575 419 LINE",
"521 419 LINE"
);
}
);
width = 1106;
}
);
leftKerningGroup = A;
leftMetricsKey = "=A";
rightKerningGroup = A;
rightMetricsKey = "=A";
unicode = 0202;
},
{
color = 5;
glyphname = Amacron;
layers = (
{
layerId = "863809E3-B3D3-4728-B9C6-73F0AB5A9F00";
paths = (
{
closed = 1;
nodes = (
"86 -11 OFFCURVE",
"174 -1 OFFCURVE",
"298 -1 CURVE SMOOTH",
"415 -1 OFFCURVE",
"471 -12 OFFCURVE",
"526 -17 CURVE",
"541 40 OFFCURVE",
"544 165 OFFCURVE",
"533 222 CURVE",
"505 222 LINE",
"505 272 LINE",
"592 272 LINE",
"592 222 LINE",
"564 222 LINE",
"556 165 OFFCURVE",
"559 40 OFFCURVE",
"571 -17 CURVE",
"626 -12 OFFCURVE",
"731 -1 OFFCURVE",
"842 -1 CURVE SMOOTH",
"950 -1 OFFCURVE",
"1024 -12 OFFCURVE",
"1079 -17 CURVE",
"1101 40 OFFCURVE",
"1104 165 OFFCURVE",
"1086 222 CURVE",
"1043 237 OFFCURVE",
"1006 274 OFFCURVE",
"1006 392 CURVE SMOOTH",
"1006 515 OFFCURVE",
"1033 785 OFFCURVE",
"808 785 CURVE SMOOTH",
"794 785 LINE",
"793 813 OFFCURVE",
"790 840 OFFCURVE",
"786 854 CURVE",
"649 844 OFFCURVE",
"397 844 OFFCURVE",
"262 854 CURVE",
"250 798 OFFCURVE",
"252 588 OFFCURVE",
"262 552 CURVE",
"228 608 OFFCURVE",
"217 714 OFFCURVE",
"217 765 CURVE",
"173 766 OFFCURVE",
"117 771 OFFCURVE",
"72 775 CURVE",
"45 712 OFFCURVE",
"45 582 OFFCURVE",
"68 533 CURVE",
"129 523 OFFCURVE",
"119 448 OFFCURVE",
"108 374 CURVE SMOOTH",
"98 303 OFFCURVE",
"84 235 OFFCURVE",
"20 222 CURVE",
"2 165 OFFCURVE",
"5 40 OFFCURVE",
"27 -17 CURVE"
);
},
{
closed = 1;
nodes = (
"512 466 LINE",
"584 466 LINE",
"584 419 LINE",
"512 419 LINE"
);
}
);
width = 1106;
}
);
leftKerningGroup = A;
leftMetricsKey = "=A";
rightKerningGroup = A;
rightMetricsKey = "=A";
unicode = 0100;
},
{
color = 5;
glyphname = Aogonek;
layers = (
{
layerId = "863809E3-B3D3-4728-B9C6-73F0AB5A9F00";
paths = (
{
closed = 1;
nodes = (
"937 -169 OFFCURVE",
"991 -152 OFFCURVE",
"1080 -159 CURVE",
"1102 -75 OFFCURVE",
"1104 137 OFFCURVE",
"1086 222 CURVE",
"1043 237 OFFCURVE",
"1006 274 OFFCURVE",
"1006 392 CURVE SMOOTH",
"1006 515 OFFCURVE",
"1033 785 OFFCURVE",
"808 785 CURVE SMOOTH",
"647 785 OFFCURVE",
"469 764 OFFCURVE",
"333 764 CURVE SMOOTH",
"199 764 OFFCURVE",
"127 770 OFFCURVE",
"72 775 CURVE",
"45 712 OFFCURVE",
"45 582 OFFCURVE",
"68 533 CURVE",
"129 523 OFFCURVE",
"119 448 OFFCURVE",
"108 374 CURVE SMOOTH",
"98 303 OFFCURVE",
"84 235 OFFCURVE",
"20 222 CURVE",
"2 165 OFFCURVE",
"5 40 OFFCURVE",
"27 -17 CURVE",
"86 -11 OFFCURVE",
"174 -1 OFFCURVE",
"298 -1 CURVE SMOOTH",
"415 -1 OFFCURVE",
"483 -12 OFFCURVE",
"539 -17 CURVE",
"554 40 OFFCURVE",
"557 165 OFFCURVE",
"546 222 CURVE",
"526 222 LINE",
"526 272 LINE",
"572 272 LINE",
"572 222 LINE SMOOTH",
"572 43 OFFCURVE",
"592 5 OFFCURVE",
"660 3 CURVE",
"652 -17 OFFCURVE",
"648 -37 OFFCURVE",
"648 -53 CURVE SMOOTH",
"648 -132 OFFCURVE",
"700 -169 OFFCURVE",
"826 -169 CURVE SMOOTH"
);
},
{
closed = 1;
nodes = (
"512 466 LINE",
"584 466 LINE",
"584 419 LINE",
"512 419 LINE"
);
}
);
width = 1106;
}
);
leftKerningGroup = A;
leftMetricsKey = "=A";
rightKerningGroup = A;
rightMetricsKey = "=A";
unicode = 0104;
},
{
color = 5;
glyphname = Aring;
layers = (
{
layerId = "863809E3-B3D3-4728-B9C6-73F0AB5A9F00";
paths = (
{
closed = 1;
nodes = (
"86 -11 OFFCURVE",
"174 -1 OFFCURVE",
"298 -1 CURVE SMOOTH",
"415 -1 OFFCURVE",
"471 -12 OFFCURVE",
"526 -17 CURVE",
"541 40 OFFCURVE",
"544 165 OFFCURVE",
"533 222 CURVE",
"505 222 LINE",
"505 272 LINE",
"592 272 LINE",
"592 222 LINE",
"564 222 LINE",
"556 165 OFFCURVE",
"559 40 OFFCURVE",
"571 -17 CURVE",
"626 -12 OFFCURVE",
"731 -1 OFFCURVE",
"842 -1 CURVE SMOOTH",
"950 -1 OFFCURVE",
"1024 -12 OFFCURVE",
"1079 -17 CURVE",
"1101 40 OFFCURVE",
"1104 165 OFFCURVE",
"1086 222 CURVE",
"1043 237 OFFCURVE",
"1006 274 OFFCURVE",
"1006 392 CURVE SMOOTH",
"1006 515 OFFCURVE",
"1033 785 OFFCURVE",
"808 785 CURVE SMOOTH",
"784 785 OFFCURVE",
"759 784 OFFCURVE",
"734 784 CURVE",
"699 845 OFFCURVE",
"633 876 OFFCURVE",
"527 876 CURVE SMOOTH",
"371 876 OFFCURVE",
"318 788 OFFCURVE",
"318 707 CURVE SMOOTH",
"318 647 OFFCURVE",
"348 597 OFFCURVE",
"392 565 CURVE",
"314 584 OFFCURVE",
"264 654 OFFCURVE",
"287 764 CURVE",
"182 766 OFFCURVE",
"120 770 OFFCURVE",
"72 775 CURVE",
"45 712 OFFCURVE",
"45 582 OFFCURVE",
"68 533 CURVE",
"129 523 OFFCURVE",
"119 448 OFFCURVE",
"108 374 CURVE SMOOTH",
"98 303 OFFCURVE",
"84 235 OFFCURVE",
"20 222 CURVE",
"2 165 OFFCURVE",
"5 40 OFFCURVE",
"27 -17 CURVE"
);
},
{
closed = 1;
nodes = (
"512 466 LINE",
"584 466 LINE",
"584 419 LINE",
"512 419 LINE"
);
},
{
closed = 1;
nodes = (
"525 744 LINE",
"557 744 LINE",
"557 668 LINE",
"525 668 LINE"
);
}
);
width = 1106;
}
);
leftKerningGroup = A;
leftMetricsKey = "=A";
rightKerningGroup = A;
rightMetricsKey = "=A";
unicode = 00C5;
},
{
color = 5;
glyphname = Aringacute;
layers = (
{
layerId = "863809E3-B3D3-4728-B9C6-73F0AB5A9F00";
paths = (
{
closed = 1;
nodes = (
"86 -11 OFFCURVE",
"174 -1 OFFCURVE",
"298 -1 CURVE SMOOTH",
"415 -1 OFFCURVE",
"471 -12 OFFCURVE",
"526 -17 CURVE",
"541 40 OFFCURVE",
"544 165 OFFCURVE",
"533 222 CURVE",
"505 222 LINE",
"505 272 LINE",
"592 272 LINE",
"592 222 LINE",
"564 222 LINE",
"556 165 OFFCURVE",
"559 40 OFFCURVE",
"571 -17 CURVE",
"626 -12 OFFCURVE",
"731 -1 OFFCURVE",
"842 -1 CURVE SMOOTH",
"950 -1 OFFCURVE",
"1024 -12 OFFCURVE",
"1079 -17 CURVE",
"1101 40 OFFCURVE",
"1104 165 OFFCURVE",
"1086 222 CURVE",
"1043 237 OFFCURVE",
"1006 274 OFFCURVE",
"1006 392 CURVE SMOOTH",
"1006 489 OFFCURVE",
"1023 676 OFFCURVE",
"921 752 CURVE",
"939 785 OFFCURVE",
"952 819 OFFCURVE",
"958 853 CURVE",
"924 896 OFFCURVE",
"816 927 OFFCURVE",
"712 927 CURVE SMOOTH",
"663 927 OFFCURVE",
"615 920 OFFCURVE",
"576 904 CURVE",
"555 875 OFFCURVE",
"532 826 OFFCURVE",
"523 773 CURVE",
"502 822 OFFCURVE",
"516 856 OFFCURVE",
"522 876 CURVE",
"381 876 OFFCURVE",
"318 788 OFFCURVE",
"318 707 CURVE SMOOTH",
"318 647 OFFCURVE",
"348 597 OFFCURVE",
"392 565 CURVE",
"314 584 OFFCURVE",
"264 654 OFFCURVE",
"287 764 CURVE",
"182 766 OFFCURVE",
"120 770 OFFCURVE",
"72 775 CURVE",
"45 712 OFFCURVE",
"45 582 OFFCURVE",
"68 533 CURVE",
"129 523 OFFCURVE",
"119 448 OFFCURVE",
"108 374 CURVE SMOOTH",
"98 303 OFFCURVE",
"84 235 OFFCURVE",
"20 222 CURVE",
"2 165 OFFCURVE",
"5 40 OFFCURVE",
"27 -17 CURVE"
);
},
{
closed = 1;
nodes = (
"512 466 LINE",
"584 466 LINE",
"584 419 LINE",
"512 419 LINE"
);
},
{
closed = 1;
nodes = (
"486 744 LINE",
"519 744 LINE",
"518 732 OFFCURVE",
"517 719 OFFCURVE",
"518 707 CURVE",
"518 668 LINE",
"486 668 LINE"
);
}
);
width = 1106;
}
);
leftKerningGroup = A;
leftMetricsKey = "=A";
rightKerningGroup = A;
rightMetricsKey = "=A";
unicode = 01FA;
},
{
color = 5;
glyphname = Atilde;
layers = (
{
layerId = "863809E3-B3D3-4728-B9C6-73F0AB5A9F00";
paths = (
{
closed = 1;
nodes = (
"86 -11 OFFCURVE",
"174 -1 OFFCURVE",
"298 -1 CURVE SMOOTH",
"415 -1 OFFCURVE",
"471 -12 OFFCURVE",
"526 -17 CURVE",
"541 40 OFFCURVE",
"544 165 OFFCURVE",
"533 222 CURVE",
"505 222 LINE",
"505 272 LINE",
"592 272 LINE",
"592 222 LINE",
"564 222 LINE",
"556 165 OFFCURVE",
"559 40 OFFCURVE",
"571 -17 CURVE",
"626 -12 OFFCURVE",
"731 -1 OFFCURVE",
"842 -1 CURVE SMOOTH",
"950 -1 OFFCURVE",
"1024 -12 OFFCURVE",
"1079 -17 CURVE",
"1101 40 OFFCURVE",
"1104 165 OFFCURVE",
"1086 222 CURVE",
"1043 237 OFFCURVE",
"1006 274 OFFCURVE",
"1006 392 CURVE SMOOTH",
"1006 515 OFFCURVE",
"1033 785 OFFCURVE",
"808 785 CURVE SMOOTH",
"801 785 LINE",
"802 798 OFFCURVE",
"802 812 OFFCURVE",
"802 827 CURVE",
"767 845 OFFCURVE",
"675 854 OFFCURVE",
"634 855 CURVE",
"620 834 OFFCURVE",
"597 821 OFFCURVE",
"561 821 CURVE SMOOTH",
"510 821 OFFCURVE",
"454 851 OFFCURVE",
"383 851 CURVE SMOOTH",
"273 851 OFFCURVE",
"218 774 OFFCURVE",
"214 576 CURVE",
"193 609 OFFCURVE",
"184 689 OFFCURVE",
"203 767 CURVE",
"146 769 OFFCURVE",
"106 772 OFFCURVE",
"72 775 CURVE",
"45 712 OFFCURVE",
"45 582 OFFCURVE",
"68 533 CURVE",
"129 523 OFFCURVE",
"119 448 OFFCURVE",
"108 374 CURVE SMOOTH",
"98 303 OFFCURVE",
"84 235 OFFCURVE",
"20 222 CURVE",
"2 165 OFFCURVE",
"5 40 OFFCURVE",
"27 -17 CURVE"
);
},
{
closed = 1;
nodes = (
"512 466 LINE",
"584 466 LINE",
"584 419 LINE",
"512 419 LINE"
);
}
);
width = 1106;
}
);
leftKerningGroup = A;
leftMetricsKey = "=A";
rightKerningGroup = A;
rightMetricsKey = "=A";
unicode = 00C3;
},
{
color = 4;
glyphname = AE;
layers = (
{
layerId = "863809E3-B3D3-4728-B9C6-73F0AB5A9F00";
paths = (
{
closed = 1;
nodes = (
"630 -12 OFFCURVE",
"848 -2 OFFCURVE",
"988 -2 CURVE SMOOTH",
"1145 -2 OFFCURVE",
"1317 -15 OFFCURVE",
"1457 -17 CURVE",
"1472 40 OFFCURVE",
"1475 315 OFFCURVE",
"1464 374 CURVE",
"1362 381 OFFCURVE",
"1240 381 OFFCURVE",
"1128 374 CURVE",
"1120 343 OFFCURVE",
"1120 311 OFFCURVE",
"1128 280 CURVE",
"1011 280 LINE",
"1011 323 LINE",
"1105 323 LINE",
"1105 462 LINE",
"1012 462 LINE",
"1012 504 LINE",
"1128 504 LINE",
"1120 473 OFFCURVE",
"1120 442 OFFCURVE",
"1128 411 CURVE",
"1232 399 OFFCURVE",
"1364 399 OFFCURVE",
"1458 411 CURVE",
"1478 482 OFFCURVE",
"1470 713 OFFCURVE",
"1453 776 CURVE",
"1284 775 OFFCURVE",
"959 763 OFFCURVE",
"626 763 CURVE SMOOTH",
"411 763 OFFCURVE",
"232 763 OFFCURVE",
"72 775 CURVE",
"45 712 OFFCURVE",
"45 582 OFFCURVE",
"68 533 CURVE",
"129 523 OFFCURVE",
"119 448 OFFCURVE",
"108 374 CURVE SMOOTH",
"98 303 OFFCURVE",
"84 235 OFFCURVE",
"20 222 CURVE",
"2 165 OFFCURVE",
"5 40 OFFCURVE",
"27 -17 CURVE",
"86 -11 OFFCURVE",
"174 -1 OFFCURVE",
"298 -1 CURVE SMOOTH",
"415 -1 OFFCURVE",
"471 -12 OFFCURVE",
"526 -17 CURVE",
"541 40 OFFCURVE",
"544 165 OFFCURVE",
"533 222 CURVE",
"505 222 LINE",
"505 272 LINE",
"592 272 LINE",
"592 222 LINE",
"564 222 LINE",
"556 165 OFFCURVE",
"559 39 OFFCURVE",
"571 -18 CURVE"
);
},
{
closed = 1;
nodes = (
"512 466 LINE",
"584 466 LINE",
"584 419 LINE",
"512 419 LINE"
);
}
);
width = 1479;
}
);
leftKerningGroup = A;
leftMetricsKey = "=A";
rightKerningGroup = E;
rightMetricsKey = "=E";
unicode = 00C6;
},
{
color = 5;
glyphname = AEacute;
layers = (
{
layerId = "863809E3-B3D3-4728-B9C6-73F0AB5A9F00";
paths = (
{
closed = 1;
nodes = (
"630 -12 OFFCURVE",
"848 -2 OFFCURVE",
"988 -2 CURVE SMOOTH",
"1145 -2 OFFCURVE",
"1317 -15 OFFCURVE",
"1457 -17 CURVE",
"1472 40 OFFCURVE",
"1475 315 OFFCURVE",
"1464 374 CURVE",
"1362 381 OFFCURVE",
"1240 381 OFFCURVE",
"1128 374 CURVE",
"1120 343 OFFCURVE",
"1120 311 OFFCURVE",
"1128 280 CURVE",
"1011 280 LINE",
"1011 323 LINE",
"1105 323 LINE",
"1105 462 LINE",
"1012 462 LINE",
"1012 504 LINE",
"1128 504 LINE",
"1120 473 OFFCURVE",
"1120 442 OFFCURVE",
"1128 411 CURVE",
"1232 399 OFFCURVE",
"1364 399 OFFCURVE",
"1458 411 CURVE",
"1478 482 OFFCURVE",
"1470 713 OFFCURVE",
"1453 776 CURVE",
"1343 775 OFFCURVE",
"1168 770 OFFCURVE",
"967 766 CURVE",
"971 780 OFFCURVE",
"974 793 OFFCURVE",
"976 803 CURVE",
"942 846 OFFCURVE",
"834 877 OFFCURVE",
"730 877 CURVE SMOOTH",
"681 877 OFFCURVE",
"633 870 OFFCURVE",
"594 854 CURVE",
"526 759 OFFCURVE",
"518 642 OFFCURVE",
"559 569 CURVE",
"487 610 OFFCURVE",
"494 705 OFFCURVE",
"510 763 CURVE",
"346 763 OFFCURVE",
"202 765 OFFCURVE",
"72 775 CURVE",
"45 712 OFFCURVE",
"45 582 OFFCURVE",
"68 533 CURVE",
"129 523 OFFCURVE",
"119 448 OFFCURVE",
"108 374 CURVE SMOOTH",
"98 303 OFFCURVE",
"84 235 OFFCURVE",
"20 222 CURVE",
"2 165 OFFCURVE",
"5 40 OFFCURVE",
"27 -17 CURVE",
"86 -11 OFFCURVE",
"174 -1 OFFCURVE",
"298 -1 CURVE SMOOTH",
"415 -1 OFFCURVE",
"471 -12 OFFCURVE",
"526 -17 CURVE",
"541 40 OFFCURVE",
"544 165 OFFCURVE",
"533 222 CURVE",
"505 222 LINE",
"505 272 LINE",
"592 272 LINE",
"592 222 LINE",
"564 222 LINE",
"556 165 OFFCURVE",
"559 39 OFFCURVE",
"571 -18 CURVE"
);
},
{
closed = 1;
nodes = (
"512 466 LINE",
"584 466 LINE",
"584 419 LINE",
"512 419 LINE"
);
}
);
width = 1479;
}
);
leftKerningGroup = A;
rightKerningGroup = E;
unicode = 01FC;
},
{
color = 4;
glyphname = B;
layers = (
{
layerId = "863809E3-B3D3-4728-B9C6-73F0AB5A9F00";
paths = (
{
closed = 1;
nodes = (
"959 -23 OFFCURVE",
"1041 72 OFFCURVE",
"1041 224 CURVE SMOOTH",
"1041 291 OFFCURVE",
"1017 349 OFFCURVE",
"939 396 CURVE",
"984 441 OFFCURVE",
"1013 495 OFFCURVE",
"1013 555 CURVE SMOOTH",
"1013 754 OFFCURVE",
"851 781 OFFCURVE",
"623 781 CURVE SMOOTH",
"408 781 OFFCURVE",
"253 766 OFFCURVE",
"29 778 CURVE",
"1 713 OFFCURVE",
"2 592 OFFCURVE",
"25 533 CURVE",
"49 532 OFFCURVE",
"91 509 OFFCURVE",
"91 381 CURVE SMOOTH",
"91 263 OFFCURVE",
"57 233 OFFCURVE",
"25 222 CURVE",
"7 165 OFFCURVE",
"9 41 OFFCURVE",
"31 -16 CURVE",
"282 0 OFFCURVE",
"408 -23 OFFCURVE",
"642 -23 CURVE SMOOTH"
);
},
{
closed = 1;
nodes = (
"503 319 LINE",
"585 319 LINE",
"585 262 LINE",
"503 262 LINE"
);
},
{
closed = 1;
nodes = (
"503 504 LINE",
"577 504 LINE",
"577 450 LINE",
"503 450 LINE"
);
}
);
width = 1051;
}
);
leftKerningGroup = N;
rightKerningGroup = B;
unicode = 0042;
},
{
color = 4;
glyphname = C;
layers = (
{
layerId = "863809E3-B3D3-4728-B9C6-73F0AB5A9F00";
paths = (
{
closed = 1;
nodes = (
"850 -35 OFFCURVE",
"984 94 OFFCURVE",
"994 368 CURVE",
"824 376 OFFCURVE",
"681 376 OFFCURVE",
"526 368 CURVE",
"526 321 LINE",
"473 321 LINE",
"473 450 LINE",
"526 450 LINE",
"527 409 LINE",
"622 393 OFFCURVE",
"883 393 OFFCURVE",
"987 409 CURVE",
"1006 515 OFFCURVE",
"1002 699 OFFCURVE",
"984 781 CURVE",
"904 781 OFFCURVE",
"754 774 OFFCURVE",
"658 773 CURVE",
"663 720 OFFCURVE",
"673 667 OFFCURVE",
"655 616 CURVE",
"652 753 OFFCURVE",
"560 795 OFFCURVE",
"402 795 CURVE SMOOTH",
"172 795 OFFCURVE",
"10 645 OFFCURVE",
"10 388 CURVE SMOOTH",
"10 135 OFFCURVE",
"156 -35 OFFCURVE",
"522 -35 CURVE SMOOTH"
);
}
);
width = 1009;
}
);
leftKerningGroup = O;
rightKerningGroup = C;
unicode = 0043;
},
{
color = 5;
glyphname = Cacute;
layers = (
{
layerId = "863809E3-B3D3-4728-B9C6-73F0AB5A9F00";
paths = (
{
closed = 1;
nodes = (
"850 -35 OFFCURVE",
"984 94 OFFCURVE",
"994 368 CURVE",
"824 376 OFFCURVE",
"681 376 OFFCURVE",
"526 368 CURVE",
"526 321 LINE",
"473 321 LINE",
"473 450 LINE",
"526 450 LINE",
"527 409 LINE",
"622 393 OFFCURVE",
"883 393 OFFCURVE",
"987 409 CURVE",
"1006 515 OFFCURVE",
"1002 699 OFFCURVE",
"984 781 CURVE",
"925 781 OFFCURVE",
"835 777 OFFCURVE",
"752 775 CURVE",
"755 786 OFFCURVE",
"758 795 OFFCURVE",
"759 803 CURVE",
"725 846 OFFCURVE",
"617 877 OFFCURVE",
"513 877 CURVE SMOOTH",
"464 877 OFFCURVE",
"416 870 OFFCURVE",
"377 854 CURVE",
"295 739 OFFCURVE",
"300 590 OFFCURVE",
"376 528 CURVE",
"246 573 OFFCURVE",
"277 729 OFFCURVE",
"298 782 CURVE",
"121 740 OFFCURVE",
"10 601 OFFCURVE",
"10 388 CURVE SMOOTH",
"10 135 OFFCURVE",
"156 -35 OFFCURVE",
"522 -35 CURVE SMOOTH"
);
}
);
width = 1009;
}
);
leftKerningGroup = O;
leftMetricsKey = "=C";
rightKerningGroup = C;
rightMetricsKey = "=C";
unicode = 0106;
},
{
color = 5;
glyphname = Ccaron;
layers = (
{
layerId = "863809E3-B3D3-4728-B9C6-73F0AB5A9F00";
paths = (
{
closed = 1;
nodes = (
"850 -35 OFFCURVE",
"984 94 OFFCURVE",
"994 368 CURVE",
"824 376 OFFCURVE",
"681 376 OFFCURVE",
"526 368 CURVE",
"526 321 LINE",
"473 321 LINE",
"473 450 LINE",
"526 450 LINE",
"527 409 LINE",
"622 393 OFFCURVE",
"883 393 OFFCURVE",
"987 409 CURVE",
"1006 515 OFFCURVE",
"1002 699 OFFCURVE",
"984 781 CURVE",
"942 781 OFFCURVE",
"885 779 OFFCURVE",
"827 777 CURVE",
"830 801 OFFCURVE",
"831 824 OFFCURVE",
"827 847 CURVE",
"792 865 OFFCURVE",
"694 874 OFFCURVE",
"649 875 CURVE",
"596 861 OFFCURVE",
"535 811 OFFCURVE",
"480 748 CURVE",
"455 765 LINE",
"473 785 OFFCURVE",
"491 804 OFFCURVE",
"509 821 CURVE",
"475 846 OFFCURVE",
"436 867 OFFCURVE",
"407 875 CURVE",
"366 874 OFFCURVE",
"274 865 OFFCURVE",
"239 847 CURVE",
"222 737 OFFCURVE",
"288 605 OFFCURVE",
"357 543 CURVE",
"290 564 OFFCURVE",
"214 651 OFFCURVE",
"205 742 CURVE",
"78 677 OFFCURVE",
"10 556 OFFCURVE",
"10 388 CURVE SMOOTH",
"10 135 OFFCURVE",
"156 -35 OFFCURVE",
"522 -35 CURVE SMOOTH"
);
}
);
width = 1009;
}
);
leftKerningGroup = O;
leftMetricsKey = "=C";
rightKerningGroup = C;
rightMetricsKey = "=C";
unicode = 010C;
},
{
color = 5;
glyphname = Ccedilla;
layers = (
{
layerId = "863809E3-B3D3-4728-B9C6-73F0AB5A9F00";
paths = (
{
closed = 1;
nodes = (
"617 -172 OFFCURVE",
"707 -135 OFFCURVE",
"719 -14 CURVE",
"905 32 OFFCURVE",
"986 157 OFFCURVE",
"994 368 CURVE",
"824 376 OFFCURVE",
"681 376 OFFCURVE",
"526 368 CURVE",
"526 321 LINE",
"473 321 LINE",
"473 450 LINE",
"526 450 LINE",
"527 409 LINE",
"622 393 OFFCURVE",
"883 393 OFFCURVE",
"987 409 CURVE",
"1006 515 OFFCURVE",
"1002 699 OFFCURVE",
"984 781 CURVE",
"904 781 OFFCURVE",
"754 774 OFFCURVE",
"658 773 CURVE",
"663 720 OFFCURVE",
"673 667 OFFCURVE",
"655 616 CURVE",
"652 753 OFFCURVE",
"560 795 OFFCURVE",
"402 795 CURVE SMOOTH",
"172 795 OFFCURVE",
"10 645 OFFCURVE",
"10 388 CURVE SMOOTH",
"10 204 OFFCURVE",
"88 63 OFFCURVE",
"272 1 CURVE",
"293 37 OFFCURVE",
"300 84 OFFCURVE",
"293 139 CURVE",
"359 10 OFFCURVE",
"277 -96 OFFCURVE",
"240 -150 CURVE",
"291 -165 OFFCURVE",
"363 -172 OFFCURVE",
"455 -172 CURVE SMOOTH"
);
}
);
width = 1009;
}
);
leftKerningGroup = O;
leftMetricsKey = "=C";
rightKerningGroup = C;
rightMetricsKey = "=C";
unicode = 00C7;
},
{
color = 5;
glyphname = Ccircumflex;
layers = (
{
layerId = "863809E3-B3D3-4728-B9C6-73F0AB5A9F00";
paths = (
{
closed = 1;
nodes = (
"850 -35 OFFCURVE",
"984 94 OFFCURVE",
"994 368 CURVE",
"824 376 OFFCURVE",
"681 376 OFFCURVE",
"526 368 CURVE",
"526 321 LINE",
"473 321 LINE",
"473 450 LINE",
"526 450 LINE",
"527 409 LINE",
"622 393 OFFCURVE",
"883 393 OFFCURVE",
"987 409 CURVE",
"1006 515 OFFCURVE",
"1002 699 OFFCURVE",
"984 781 CURVE",
"921 781 OFFCURVE",
"816 777 OFFCURVE",
"727 774 CURVE",
"701 814 OFFCURVE",
"670 847 OFFCURVE",
"641 867 CURVE",
"613 872 OFFCURVE",
"554 875 OFFCURVE",
"493 875 CURVE SMOOTH",
"436 875 OFFCURVE",
"378 873 OFFCURVE",
"339 867 CURVE",
"263 815 OFFCURVE",
"207 697 OFFCURVE",
"195 559 CURVE",
"170 594 OFFCURVE",
"178 684 OFFCURVE",
"191 743 CURVE",
"79 678 OFFCURVE",
"10 556 OFFCURVE",
"10 388 CURVE SMOOTH",
"10 135 OFFCURVE",
"156 -35 OFFCURVE",
"522 -35 CURVE SMOOTH"
);
}
);
width = 1009;
}
);
leftKerningGroup = O;
leftMetricsKey = "=C";
rightKerningGroup = C;
rightMetricsKey = "=C";
unicode = 0108;
},
{
color = 5;
glyphname = Cdotaccent;
layers = (
{
layerId = "863809E3-B3D3-4728-B9C6-73F0AB5A9F00";
paths = (
{
closed = 1;
nodes = (
"850 -35 OFFCURVE",
"984 94 OFFCURVE",
"994 368 CURVE",
"824 376 OFFCURVE",
"681 376 OFFCURVE",
"526 368 CURVE",
"526 321 LINE",
"473 321 LINE",
"473 450 LINE",
"526 450 LINE",
"527 409 LINE",
"622 393 OFFCURVE",
"883 393 OFFCURVE",
"987 409 CURVE",
"1006 515 OFFCURVE",
"1002 699 OFFCURVE",
"984 781 CURVE",
"914 781 OFFCURVE",
"816 776 OFFCURVE",
"729 774 CURVE",
"693 841 OFFCURVE",
"625 876 OFFCURVE",
"518 876 CURVE SMOOTH",
"369 876 OFFCURVE",
"309 788 OFFCURVE",
"309 707 CURVE SMOOTH",
"309 625 OFFCURVE",
"365 561 OFFCURVE",
"438 538 CURVE",
"330 542 OFFCURVE",
"235 628 OFFCURVE",
"271 775 CURVE",
"116 725 OFFCURVE",
"10 589 OFFCURVE",
"10 388 CURVE SMOOTH",
"10 135 OFFCURVE",
"156 -35 OFFCURVE",
"522 -35 CURVE SMOOTH"
);
}
);
width = 1009;
}
);
leftKerningGroup = O;
leftMetricsKey = "=C";
rightKerningGroup = C;
rightMetricsKey = "=C";
unicode = 010A;
},
{
color = 4;
glyphname = D;
layers = (
{
layerId = "863809E3-B3D3-4728-B9C6-73F0AB5A9F00";
paths = (
{
closed = 1;
nodes = (
"927 -24 OFFCURVE",
"1003 196 OFFCURVE",
"1003 413 CURVE SMOOTH",
"1003 671 OFFCURVE",
"848 783 OFFCURVE",
"566 783 CURVE SMOOTH",
"318 783 OFFCURVE",
"198 764 OFFCURVE",
"28 779 CURVE",
"1 712 OFFCURVE",
"4 592 OFFCURVE",
"24 535 CURVE",
"59 528 OFFCURVE",
"91 505 OFFCURVE",
"91 391 CURVE SMOOTH",
"91 271 OFFCURVE",
"66 233 OFFCURVE",
"24 222 CURVE",
"6 165 OFFCURVE",
"9 41 OFFCURVE",
"31 -16 CURVE",
"228 -7 OFFCURVE",
"312 -24 OFFCURVE",
"525 -24 CURVE SMOOTH"
);
},
{
closed = 1;
nodes = (
"480 450 LINE",
"541 450 LINE",
"541 321 LINE",
"480 321 LINE"
);
}
);
width = 1013;
}
);
leftKerningGroup = N;
rightKerningGroup = O;
unicode = 0044;
},
{
color = 5;
glyphname = Eth;
layers = (
{
layerId = "863809E3-B3D3-4728-B9C6-73F0AB5A9F00";
paths = (
{
closed = 1;
nodes = (
"927 -24 OFFCURVE",
"1003 196 OFFCURVE",
"1003 413 CURVE SMOOTH",
"1003 671 OFFCURVE",
"848 783 OFFCURVE",
"566 783 CURVE SMOOTH",
"318 783 OFFCURVE",
"198 764 OFFCURVE",
"28 779 CURVE",
"1 712 OFFCURVE",
"4 592 OFFCURVE",
"24 535 CURVE",
"56 529 OFFCURVE",
"133 519 OFFCURVE",
"184 494 CURVE",
"23 494 LINE",
"3 450 OFFCURVE",
"4 321 OFFCURVE",
"23 277 CURVE",
"83 277 LINE",
"71 243 OFFCURVE",
"51 228 OFFCURVE",
"24 222 CURVE",
"6 165 OFFCURVE",
"9 41 OFFCURVE",
"31 -16 CURVE",
"228 -7 OFFCURVE",
"312 -24 OFFCURVE",
"525 -24 CURVE SMOOTH"
);
},
{
closed = 1;
nodes = (
"480 329 LINE",
"521 329 LINE",
"521 441 LINE",
"480 441 LINE",
"480 483 LINE",
"541 483 LINE",
"541 288 LINE",
"480 288 LINE"
);
}
);
width = 1013;
}
);
leftKerningGroup = Eth;
leftMetricsKey = "=D";
rightKerningGroup = O;
rightMetricsKey = "=D";
unicode = 00D0;
},
{
color = 5;
glyphname = Dcaron;
layers = (
{
layerId = "863809E3-B3D3-4728-B9C6-73F0AB5A9F00";
paths = (
{
closed = 1;
nodes = (
"927 -24 OFFCURVE",
"1003 196 OFFCURVE",
"1003 413 CURVE SMOOTH",
"1003 594 OFFCURVE",
"927 703 OFFCURVE",
"784 752 CURVE",
"791 784 OFFCURVE",
"793 817 OFFCURVE",
"788 847 CURVE",
"753 865 OFFCURVE",
"655 874 OFFCURVE",
"610 875 CURVE",
"557 861 OFFCURVE",
"496 811 OFFCURVE",
"441 748 CURVE",
"416 765 LINE",
"434 785 OFFCURVE",
"452 804 OFFCURVE",
"470 821 CURVE",
"436 846 OFFCURVE",
"397 867 OFFCURVE",
"368 875 CURVE",
"327 874 OFFCURVE",
"235 865 OFFCURVE",
"200 847 CURVE",
"184 745 OFFCURVE",
"240 624 OFFCURVE",
"303 557 CURVE",
"226 590 OFFCURVE",
"160 705 OFFCURVE",
"163 773 CURVE",
"120 773 OFFCURVE",
"75 775 OFFCURVE",
"28 779 CURVE",
"1 712 OFFCURVE",
"4 592 OFFCURVE",
"24 535 CURVE",
"59 528 OFFCURVE",
"91 505 OFFCURVE",
"91 391 CURVE SMOOTH",
"91 271 OFFCURVE",
"66 233 OFFCURVE",
"24 222 CURVE",
"6 165 OFFCURVE",
"9 41 OFFCURVE",
"31 -16 CURVE",
"228 -7 OFFCURVE",
"312 -24 OFFCURVE",
"525 -24 CURVE SMOOTH"
);
},
{
closed = 1;
nodes = (
"480 450 LINE",
"541 450 LINE",
"541 321 LINE",
"480 321 LINE"
);
}
);
width = 1013;
}
);
leftKerningGroup = N;
leftMetricsKey = "=D";
rightKerningGroup = O;
rightMetricsKey = "=D";
unicode = 010E;
},
{
color = 5;
glyphname = Dcroat;
layers = (
{
layerId = "863809E3-B3D3-4728-B9C6-73F0AB5A9F00";
paths = (
{
closed = 1;
nodes = (
"927 -24 OFFCURVE",
"1003 196 OFFCURVE",
"1003 413 CURVE SMOOTH",
"1003 671 OFFCURVE",
"848 783 OFFCURVE",
"566 783 CURVE SMOOTH",
"318 783 OFFCURVE",
"198 764 OFFCURVE",
"28 779 CURVE",
"1 712 OFFCURVE",
"4 592 OFFCURVE",
"24 535 CURVE",
"56 529 OFFCURVE",
"133 519 OFFCURVE",
"184 494 CURVE",
"23 494 LINE",
"3 450 OFFCURVE",
"4 321 OFFCURVE",
"23 277 CURVE",
"83 277 LINE",
"71 243 OFFCURVE",
"51 228 OFFCURVE",
"24 222 CURVE",
"6 165 OFFCURVE",
"9 41 OFFCURVE",
"31 -16 CURVE",
"228 -7 OFFCURVE",
"312 -24 OFFCURVE",
"525 -24 CURVE SMOOTH"
);
},
{
closed = 1;
nodes = (
"480 329 LINE",
"521 329 LINE",
"521 441 LINE",
"480 441 LINE",
"480 483 LINE",
"541 483 LINE",
"541 288 LINE",
"480 288 LINE"
);
}
);
width = 1013;
}
);
leftKerningGroup = Eth;
rightKerningGroup = O;
unicode = 0110;
},
{
color = 4;
glyphname = E;
layers = (
{
layerId = "863809E3-B3D3-4728-B9C6-73F0AB5A9F00";
paths = (
{
closed = 1;
nodes = (
"91 -11 OFFCURVE",
"319 -2 OFFCURVE",
"489 -2 CURVE SMOOTH",
"646 -2 OFFCURVE",
"818 -15 OFFCURVE",
"958 -17 CURVE",
"973 40 OFFCURVE",
"976 315 OFFCURVE",
"965 374 CURVE",
"863 381 OFFCURVE",
"741 381 OFFCURVE",
"629 374 CURVE",
"621 343 OFFCURVE",
"621 311 OFFCURVE",
"629 280 CURVE",
"512 280 LINE",
"512 323 LINE",
"606 323 LINE",
"606 462 LINE",
"513 462 LINE",
"513 504 LINE",
"629 504 LINE",
"621 473 OFFCURVE",
"621 442 OFFCURVE",
"629 411 CURVE",
"733 399 OFFCURVE",
"865 399 OFFCURVE",
"959 411 CURVE",
"979 482 OFFCURVE",
"971 713 OFFCURVE",
"954 776 CURVE",
"785 769 OFFCURVE",
"605 765 OFFCURVE",
"465 765 CURVE SMOOTH",
"327 765 OFFCURVE",
"84 770 OFFCURVE",
"29 775 CURVE",
"2 712 OFFCURVE",
"2 582 OFFCURVE",
"25 533 CURVE",
"49 532 OFFCURVE",
"91 509 OFFCURVE",
"91 381 CURVE SMOOTH",
"91 263 OFFCURVE",
"57 233 OFFCURVE",
"25 222 CURVE",
"7 165 OFFCURVE",
"10 40 OFFCURVE",
"32 -17 CURVE"
);
}
);
width = 980;
}
);
leftKerningGroup = N;
rightKerningGroup = E;
unicode = 0045;
},
{
color = 5;
glyphname = Eacute;
layers = (
{
layerId = "863809E3-B3D3-4728-B9C6-73F0AB5A9F00";
paths = (
{
closed = 1;
nodes = (
"91 -11 OFFCURVE",
"319 -2 OFFCURVE",
"489 -2 CURVE SMOOTH",
"646 -2 OFFCURVE",
"818 -15 OFFCURVE",
"958 -17 CURVE",
"973 40 OFFCURVE",
"976 315 OFFCURVE",
"965 374 CURVE",
"863 381 OFFCURVE",
"741 381 OFFCURVE",
"629 374 CURVE",
"621 343 OFFCURVE",
"621 311 OFFCURVE",
"629 280 CURVE",
"512 280 LINE",
"512 323 LINE",
"606 323 LINE",
"606 462 LINE",
"513 462 LINE",
"513 504 LINE",
"629 504 LINE",
"621 473 OFFCURVE",
"621 442 OFFCURVE",
"629 411 CURVE",
"733 399 OFFCURVE",
"865 399 OFFCURVE",
"959 411 CURVE",
"979 482 OFFCURVE",
"971 713 OFFCURVE",
"954 776 CURVE",
"880 773 OFFCURVE",
"815 771 OFFCURVE",
"746 769 CURVE",
"750 782 OFFCURVE",
"753 794 OFFCURVE",
"755 803 CURVE",
"721 846 OFFCURVE",
"613 877 OFFCURVE",
"509 877 CURVE SMOOTH",
"460 877 OFFCURVE",
"412 870 OFFCURVE",
"373 854 CURVE",
"296 745 OFFCURVE",
"296 607 OFFCURVE",
"359 540 CURVE",
"264 575 OFFCURVE",
"266 692 OFFCURVE",
"290 767 CURVE",
"182 769 OFFCURVE",
"62 772 OFFCURVE",
"29 775 CURVE",
"2 712 OFFCURVE",
"2 582 OFFCURVE",
"25 533 CURVE",
"49 532 OFFCURVE",
"91 509 OFFCURVE",
"91 381 CURVE SMOOTH",
"91 263 OFFCURVE",
"57 233 OFFCURVE",
"25 222 CURVE",
"7 165 OFFCURVE",
"10 40 OFFCURVE",
"32 -17 CURVE"
);
}
);
width = 980;
}
);
leftKerningGroup = N;
leftMetricsKey = "=E";
rightKerningGroup = E;
rightMetricsKey = "=E";
unicode = 00C9;
},
{
color = 5;
glyphname = Ebreve;
layers = (
{
layerId = "863809E3-B3D3-4728-B9C6-73F0AB5A9F00";
paths = (
{
closed = 1;
nodes = (
"91 -11 OFFCURVE",
"319 -2 OFFCURVE",
"489 -2 CURVE SMOOTH",
"646 -2 OFFCURVE",
"818 -15 OFFCURVE",
"958 -17 CURVE",
"973 40 OFFCURVE",
"976 315 OFFCURVE",
"965 374 CURVE",
"863 381 OFFCURVE",
"741 381 OFFCURVE",
"629 374 CURVE",
"621 343 OFFCURVE",
"621 311 OFFCURVE",
"629 280 CURVE",
"512 280 LINE",
"512 323 LINE",
"606 323 LINE",
"606 462 LINE",
"513 462 LINE",
"513 504 LINE",
"629 504 LINE",
"621 473 OFFCURVE",
"621 442 OFFCURVE",
"629 411 CURVE",
"733 399 OFFCURVE",
"865 399 OFFCURVE",
"959 411 CURVE",
"979 482 OFFCURVE",
"971 713 OFFCURVE",
"954 776 CURVE",
"795 770 LINE",
"794 808 OFFCURVE",
"793 828 OFFCURVE",
"789 847 CURVE",
"754 865 OFFCURVE",
"662 874 OFFCURVE",
"621 875 CURVE",
"601 845 OFFCURVE",
"560 830 OFFCURVE",
"500 830 CURVE SMOOTH",
"440 830 OFFCURVE",
"400 845 OFFCURVE",
"379 875 CURVE",
"334 874 OFFCURVE",
"236 865 OFFCURVE",
"201 847 CURVE",
"184 736 OFFCURVE",
"223 635 OFFCURVE",
"303 576 CURVE",
"218 600 OFFCURVE",
"168 675 OFFCURVE",
"159 766 CURVE",
"101 771 OFFCURVE",
"50 773 OFFCURVE",
"29 775 CURVE",
"2 712 OFFCURVE",
"2 582 OFFCURVE",
"25 533 CURVE",
"49 532 OFFCURVE",
"91 509 OFFCURVE",
"91 381 CURVE SMOOTH",
"91 263 OFFCURVE",
"57 233 OFFCURVE",
"25 222 CURVE",
"7 165 OFFCURVE",
"10 40 OFFCURVE",
"32 -17 CURVE"
);
}
);
width = 980;
}
);
leftKerningGroup = N;
leftMetricsKey = "=E";
rightKerningGroup = E;
rightMetricsKey = "=E";
unicode = 0114;
},
{
color = 5;
glyphname = Ecaron;
layers = (
{
layerId = "863809E3-B3D3-4728-B9C6-73F0AB5A9F00";
paths = (
{
closed = 1;
nodes = (
"91 -11 OFFCURVE",
"319 -2 OFFCURVE",
"489 -2 CURVE SMOOTH",
"646 -2 OFFCURVE",
"818 -15 OFFCURVE",
"958 -17 CURVE",
"973 40 OFFCURVE",
"976 315 OFFCURVE",
"965 374 CURVE",
"863 381 OFFCURVE",
"741 381 OFFCURVE",
"629 374 CURVE",
"621 343 OFFCURVE",
"621 311 OFFCURVE",
"629 280 CURVE",
"512 280 LINE",
"512 323 LINE",
"606 323 LINE",
"606 462 LINE",
"513 462 LINE",
"513 504 LINE",
"629 504 LINE",
"621 473 OFFCURVE",
"621 442 OFFCURVE",
"629 411 CURVE",
"733 399 OFFCURVE",
"865 399 OFFCURVE",
"959 411 CURVE",
"979 482 OFFCURVE",
"971 713 OFFCURVE",
"954 776 CURVE",
"910 774 OFFCURVE",
"856 772 OFFCURVE",
"808 771 CURVE",
"812 797 OFFCURVE",
"813 822 OFFCURVE",
"809 847 CURVE",
"774 865 OFFCURVE",
"676 874 OFFCURVE",
"631 875 CURVE",
"578 861 OFFCURVE",
"517 811 OFFCURVE",
"462 748 CURVE",
"437 765 LINE",
"455 785 OFFCURVE",
"473 804 OFFCURVE",
"491 821 CURVE",
"457 846 OFFCURVE",
"418 867 OFFCURVE",
"389 875 CURVE",
"348 874 OFFCURVE",
"256 865 OFFCURVE",
"221 847 CURVE",
"205 747 OFFCURVE",
"259 627 OFFCURVE",
"322 560 CURVE",
"248 592 OFFCURVE",
"187 694 OFFCURVE",
"187 769 CURVE",
"116 771 OFFCURVE",
"53 773 OFFCURVE",
"29 775 CURVE",
"2 712 OFFCURVE",
"2 582 OFFCURVE",
"25 533 CURVE",
"49 532 OFFCURVE",
"91 509 OFFCURVE",
"91 381 CURVE SMOOTH",
"91 263 OFFCURVE",
"57 233 OFFCURVE",
"25 222 CURVE",
"7 165 OFFCURVE",
"10 40 OFFCURVE",
"32 -17 CURVE"
);
}
);
width = 980;
}
);
leftKerningGroup = N;
leftMetricsKey = "=E";
rightKerningGroup = E;
rightMetricsKey = "=E";
unicode = 011A;
},
{
color = 5;
glyphname = Ecircumflex;
layers = (
{
layerId = "863809E3-B3D3-4728-B9C6-73F0AB5A9F00";
paths = (
{
closed = 1;
nodes = (
"91 -11 OFFCURVE",
"319 -2 OFFCURVE",
"489 -2 CURVE SMOOTH",
"646 -2 OFFCURVE",
"818 -15 OFFCURVE",
"958 -17 CURVE",
"973 40 OFFCURVE",
"976 315 OFFCURVE",
"965 374 CURVE",
"863 381 OFFCURVE",
"741 381 OFFCURVE",
"629 374 CURVE",
"621 343 OFFCURVE",
"621 311 OFFCURVE",
"629 280 CURVE",
"512 280 LINE",
"512 323 LINE",
"606 323 LINE",
"606 462 LINE",
"513 462 LINE",
"513 504 LINE",
"629 504 LINE",
"621 473 OFFCURVE",
"621 442 OFFCURVE",
"629 411 CURVE",
"733 399 OFFCURVE",
"865 399 OFFCURVE",
"959 411 CURVE",
"979 482 OFFCURVE",
"971 713 OFFCURVE",
"954 776 CURVE",
"899 773 OFFCURVE",
"828 770 OFFCURVE",
"755 769 CURVE",
"729 811 OFFCURVE",
"696 846 OFFCURVE",
"666 867 CURVE",
"638 872 OFFCURVE",
"579 875 OFFCURVE",
"518 875 CURVE SMOOTH",
"462 875 OFFCURVE",
"403 873 OFFCURVE",
"364 867 CURVE",
"288 815 OFFCURVE",
"211 687 OFFCURVE",
"220 559 CURVE",
"192 601 OFFCURVE",
"199 713 OFFCURVE",
"231 768 CURVE",
"149 770 OFFCURVE",
"56 772 OFFCURVE",
"29 775 CURVE",
"2 712 OFFCURVE",
"2 582 OFFCURVE",
"25 533 CURVE",
"49 532 OFFCURVE",
"91 509 OFFCURVE",
"91 381 CURVE SMOOTH",
"91 263 OFFCURVE",
"57 233 OFFCURVE",
"25 222 CURVE",
"7 165 OFFCURVE",
"10 40 OFFCURVE",
"32 -17 CURVE"
);
}
);
width = 980;
}
);
leftKerningGroup = N;
leftMetricsKey = "=E";
rightKerningGroup = E;
rightMetricsKey = "=E";
unicode = 00CA;
},
{
color = 5;
glyphname = Ecircumflexacute;
layers = (
{
layerId = "863809E3-B3D3-4728-B9C6-73F0AB5A9F00";
paths = (
{
closed = 1;
nodes = (
"91 -11 OFFCURVE",
"319 -2 OFFCURVE",
"489 -2 CURVE SMOOTH",
"646 -2 OFFCURVE",
"818 -15 OFFCURVE",
"958 -17 CURVE",
"973 40 OFFCURVE",
"976 315 OFFCURVE",
"965 374 CURVE",
"863 381 OFFCURVE",
"741 381 OFFCURVE",
"629 374 CURVE",
"621 343 OFFCURVE",
"621 311 OFFCURVE",
"629 280 CURVE",
"512 280 LINE",
"512 323 LINE",
"606 323 LINE",
"606 462 LINE",
"513 462 LINE",
"513 504 LINE",
"629 504 LINE",
"621 473 OFFCURVE",
"621 442 OFFCURVE",
"629 411 CURVE",
"733 399 OFFCURVE",
"865 399 OFFCURVE",
"959 411 CURVE",
"979 482 OFFCURVE",
"971 713 OFFCURVE",
"954 776 CURVE",
"811 770 LINE",
"844 823 OFFCURVE",
"857 855 OFFCURVE",
"862 887 CURVE",
"834 922 OFFCURVE",
"745 948 OFFCURVE",
"659 948 CURVE SMOOTH",
"618 948 OFFCURVE",
"578 943 OFFCURVE",
"546 929 CURVE",
"512 883 OFFCURVE",
"476 776 OFFCURVE",
"515 699 CURVE",
"471 734 OFFCURVE",
"459 797 OFFCURVE",
"480 875 CURVE",
"436 874 OFFCURVE",
"394 872 OFFCURVE",
"364 867 CURVE",
"288 815 OFFCURVE",
"211 687 OFFCURVE",
"220 559 CURVE",
"192 601 OFFCURVE",
"199 713 OFFCURVE",
"231 768 CURVE",
"149 770 OFFCURVE",
"56 772 OFFCURVE",
"29 775 CURVE",
"2 712 OFFCURVE",
"2 582 OFFCURVE",
"25 533 CURVE",
"49 532 OFFCURVE",
"91 509 OFFCURVE",
"91 381 CURVE SMOOTH",
"91 263 OFFCURVE",
"57 233 OFFCURVE",
"25 222 CURVE",
"7 165 OFFCURVE",
"10 40 OFFCURVE",
"32 -17 CURVE"
);
}
);
width = 980;
}
);
leftKerningGroup = N;
leftMetricsKey = "=E";
rightKerningGroup = E;
rightMetricsKey = "=E";
unicode = 1EBE;
},
{
color = 5;
glyphname = Ecircumflexdotbelow;
layers = (
{
layerId = "863809E3-B3D3-4728-B9C6-73F0AB5A9F00";
paths = (
{
closed = 1;
nodes = (
"666 -173 OFFCURVE",
"723 -92 OFFCURVE",
"725 -9 CURVE",
"807 -12 OFFCURVE",
"886 -16 OFFCURVE",
"958 -17 CURVE",
"973 40 OFFCURVE",
"976 315 OFFCURVE",
"965 374 CURVE",
"863 381 OFFCURVE",
"741 381 OFFCURVE",
"629 374 CURVE",
"621 343 OFFCURVE",
"621 311 OFFCURVE",
"629 280 CURVE",
"512 280 LINE",
"512 323 LINE",
"606 323 LINE",
"606 462 LINE",
"513 462 LINE",
"513 504 LINE",
"629 504 LINE",
"621 473 OFFCURVE",
"621 442 OFFCURVE",
"629 411 CURVE",
"733 399 OFFCURVE",
"865 399 OFFCURVE",
"959 411 CURVE",
"979 482 OFFCURVE",
"971 713 OFFCURVE",
"954 776 CURVE",
"899 773 OFFCURVE",
"828 770 OFFCURVE",
"755 769 CURVE",
"729 811 OFFCURVE",
"696 846 OFFCURVE",
"666 867 CURVE",
"638 872 OFFCURVE",
"579 875 OFFCURVE",
"518 875 CURVE SMOOTH",
"462 875 OFFCURVE",
"403 873 OFFCURVE",
"364 867 CURVE",
"288 815 OFFCURVE",
"211 687 OFFCURVE",
"220 559 CURVE",
"192 601 OFFCURVE",
"199 713 OFFCURVE",
"231 768 CURVE",
"149 770 OFFCURVE",
"56 772 OFFCURVE",
"29 775 CURVE",
"2 712 OFFCURVE",
"2 582 OFFCURVE",
"25 533 CURVE",
"49 532 OFFCURVE",
"91 509 OFFCURVE",
"91 381 CURVE SMOOTH",
"91 263 OFFCURVE",
"57 233 OFFCURVE",
"25 222 CURVE",
"7 165 OFFCURVE",
"10 40 OFFCURVE",
"32 -17 CURVE",
"66 -13 OFFCURVE",
"154 -9 OFFCURVE",
"254 -6 CURVE",
"257 63 OFFCURVE",
"297 146 OFFCURVE",
"385 151 CURVE",
"315 119 OFFCURVE",
"288 59 OFFCURVE",
"288 5 CURVE SMOOTH",
"288 -97 OFFCURVE",
"364 -173 OFFCURVE",
"510 -173 CURVE SMOOTH"
);
}
);
width = 980;
}
);
leftKerningGroup = N;
rightKerningGroup = E;
unicode = 1EC6;
},
{
color = 5;
glyphname = Ecircumflexgrave;
layers = (
{
layerId = "863809E3-B3D3-4728-B9C6-73F0AB5A9F00";
paths = (
{
closed = 1;
nodes = (
"91 -11 OFFCURVE",
"319 -2 OFFCURVE",
"489 -2 CURVE SMOOTH",
"646 -2 OFFCURVE",
"818 -15 OFFCURVE",
"958 -17 CURVE",
"973 40 OFFCURVE",
"976 315 OFFCURVE",
"965 374 CURVE",
"863 381 OFFCURVE",
"741 381 OFFCURVE",
"629 374 CURVE",
"621 343 OFFCURVE",
"621 311 OFFCURVE",
"629 280 CURVE",
"512 280 LINE",
"512 323 LINE",
"606 323 LINE",
"606 462 LINE",
"513 462 LINE",
"513 504 LINE",
"629 504 LINE",
"621 473 OFFCURVE",
"621 442 OFFCURVE",
"629 411 CURVE",
"733 399 OFFCURVE",
"865 399 OFFCURVE",
"959 411 CURVE",
"979 482 OFFCURVE",
"971 713 OFFCURVE",
"954 776 CURVE",
"931 775 OFFCURVE",
"905 773 OFFCURVE",
"878 772 CURVE",
"880 835 OFFCURVE",
"855 901 OFFCURVE",
"830 934 CURVE",
"798 948 OFFCURVE",
"758 953 OFFCURVE",
"717 953 CURVE SMOOTH",
"631 953 OFFCURVE",
"542 927 OFFCURVE",
"514 892 CURVE",
"525 827 OFFCURVE",
"571 758 OFFCURVE",
"622 709 CURVE",
"549 731 OFFCURVE",
"501 797 OFFCURVE",
"480 875 CURVE",
"436 874 OFFCURVE",
"394 872 OFFCURVE",
"364 867 CURVE",
"288 815 OFFCURVE",
"211 687 OFFCURVE",
"220 559 CURVE",
"192 601 OFFCURVE",
"199 713 OFFCURVE",
"231 768 CURVE",
"149 770 OFFCURVE",
"56 772 OFFCURVE",
"29 775 CURVE",
"2 712 OFFCURVE",
"2 582 OFFCURVE",
"25 533 CURVE",
"49 532 OFFCURVE",
"91 509 OFFCURVE",
"91 381 CURVE SMOOTH",
"91 263 OFFCURVE",
"57 233 OFFCURVE",
"25 222 CURVE",
"7 165 OFFCURVE",
"10 40 OFFCURVE",
"32 -17 CURVE"
);
}
);
width = 980;
}
);
leftKerningGroup = N;
leftMetricsKey = "=E";
rightKerningGroup = E;
rightMetricsKey = "=E";
unicode = 1EC0;
},
{
color = 5;
glyphname = Ecircumflexhookabove;
layers = (
{
layerId = "863809E3-B3D3-4728-B9C6-73F0AB5A9F00";
paths = (
{
closed = 1;
nodes = (
"91 -11 OFFCURVE",
"319 -2 OFFCURVE",
"489 -2 CURVE SMOOTH",
"646 -2 OFFCURVE",
"818 -15 OFFCURVE",
"958 -17 CURVE",
"973 40 OFFCURVE",
"976 315 OFFCURVE",
"965 374 CURVE",
"863 381 OFFCURVE",
"741 381 OFFCURVE",
"629 374 CURVE",
"621 343 OFFCURVE",
"621 311 OFFCURVE",
"629 280 CURVE",
"512 280 LINE",
"512 323 LINE",
"606 323 LINE",
"606 462 LINE",
"513 462 LINE",
"513 504 LINE",
"629 504 LINE",
"621 473 OFFCURVE",
"621 442 OFFCURVE",
"629 411 CURVE",
"733 399 OFFCURVE",
"865 399 OFFCURVE",
"959 411 CURVE",
"979 482 OFFCURVE",
"971 713 OFFCURVE",
"954 776 CURVE",
"929 775 OFFCURVE",
"900 773 OFFCURVE",
"870 772 CURVE",
"877 794 OFFCURVE",
"880 814 OFFCURVE",
"880 832 CURVE SMOOTH",
"880 906 OFFCURVE",
"829 953 OFFCURVE",
"733 953 CURVE SMOOTH",
"650 953 OFFCURVE",
"587 941 OFFCURVE",
"518 937 CURVE",
"501 901 OFFCURVE",
"502 801 OFFCURVE",
"517 758 CURVE",
"543 761 OFFCURVE",
"568 752 OFFCURVE",
"582 723 CURVE",
"553 737 OFFCURVE",
"521 734 OFFCURVE",
"500 731 CURVE",
"483 763 OFFCURVE",
"474 819 OFFCURVE",
"477 875 CURVE",
"434 874 OFFCURVE",
"393 871 OFFCURVE",
"364 867 CURVE",
"288 815 OFFCURVE",
"211 687 OFFCURVE",
"220 559 CURVE",
"192 601 OFFCURVE",
"199 713 OFFCURVE",
"231 768 CURVE",
"149 770 OFFCURVE",
"56 772 OFFCURVE",
"29 775 CURVE",
"2 712 OFFCURVE",
"2 582 OFFCURVE",
"25 533 CURVE",
"49 532 OFFCURVE",
"91 509 OFFCURVE",
"91 381 CURVE SMOOTH",
"91 263 OFFCURVE",
"57 233 OFFCURVE",
"25 222 CURVE",
"7 165 OFFCURVE",
"10 40 OFFCURVE",
"32 -17 CURVE"
);
}
);
width = 980;
}
);
leftKerningGroup = N;
leftMetricsKey = "=E";
rightKerningGroup = E;
rightMetricsKey = "=E";
unicode = 1EC2;
},
{
color = 5;
glyphname = Ecircumflextilde;
layers = (
{
layerId = "863809E3-B3D3-4728-B9C6-73F0AB5A9F00";
paths = (
{
closed = 1;
nodes = (
"91 -11 OFFCURVE",
"319 -2 OFFCURVE",
"489 -2 CURVE SMOOTH",
"646 -2 OFFCURVE",
"818 -15 OFFCURVE",
"958 -17 CURVE",
"973 40 OFFCURVE",
"976 315 OFFCURVE",
"965 374 CURVE",
"863 381 OFFCURVE",
"741 381 OFFCURVE",
"629 374 CURVE",
"621 343 OFFCURVE",
"621 311 OFFCURVE",
"629 280 CURVE",
"512 280 LINE",
"512 323 LINE",
"606 323 LINE",
"606 462 LINE",
"513 462 LINE",
"513 504 LINE",
"629 504 LINE",
"621 473 OFFCURVE",
"621 442 OFFCURVE",
"629 411 CURVE",
"733 399 OFFCURVE",
"865 399 OFFCURVE",
"959 411 CURVE",
"979 482 OFFCURVE",
"971 713 OFFCURVE",
"954 776 CURVE",
"899 773 LINE",
"910 811 OFFCURVE",
"916 862 OFFCURVE",
"916 928 CURVE",
"890 943 OFFCURVE",
"821 951 OFFCURVE",
"791 952 CURVE",
"781 934 OFFCURVE",
"763 923 OFFCURVE",
"736 923 CURVE SMOOTH",
"698 923 OFFCURVE",
"655 948 OFFCURVE",
"603 948 CURVE SMOOTH",
"524 948 OFFCURVE",
"483 891 OFFCURVE",
"477 747 CURVE",
"459 781 OFFCURVE",
"456 827 OFFCURVE",
"467 875 CURVE",
"428 874 OFFCURVE",
"392 871 OFFCURVE",
"364 867 CURVE",
"288 815 OFFCURVE",
"211 687 OFFCURVE",
"220 559 CURVE",
"192 601 OFFCURVE",
"199 713 OFFCURVE",
"231 768 CURVE",
"149 770 OFFCURVE",
"56 772 OFFCURVE",
"29 775 CURVE",
"2 712 OFFCURVE",
"2 582 OFFCURVE",
"25 533 CURVE",
"49 532 OFFCURVE",
"91 509 OFFCURVE",
"91 381 CURVE SMOOTH",
"91 263 OFFCURVE",
"57 233 OFFCURVE",
"25 222 CURVE",
"7 165 OFFCURVE",
"10 40 OFFCURVE",
"32 -17 CURVE"
);
}
);
width = 980;
}
);
leftKerningGroup = N;
leftMetricsKey = "=E";
rightKerningGroup = E;
rightMetricsKey = "=E";
unicode = 1EC4;
},
{
color = 5;
glyphname = Edblgrave;
layers = (
{
layerId = "863809E3-B3D3-4728-B9C6-73F0AB5A9F00";
paths = (
{
closed = 1;
nodes = (
"91 -11 OFFCURVE",
"319 -2 OFFCURVE",
"489 -2 CURVE SMOOTH",
"646 -2 OFFCURVE",
"818 -15 OFFCURVE",
"958 -17 CURVE",
"973 40 OFFCURVE",
"976 315 OFFCURVE",
"965 374 CURVE",
"863 381 OFFCURVE",
"741 381 OFFCURVE",
"629 374 CURVE",
"621 343 OFFCURVE",
"621 311 OFFCURVE",
"629 280 CURVE",
"512 280 LINE",
"512 323 LINE",
"606 323 LINE",
"606 462 LINE",
"513 462 LINE",
"513 504 LINE",
"629 504 LINE",
"621 473 OFFCURVE",
"621 442 OFFCURVE",
"629 411 CURVE",
"733 399 OFFCURVE",
"865 399 OFFCURVE",
"959 411 CURVE",
"979 482 OFFCURVE",
"971 713 OFFCURVE",
"954 776 CURVE",
"913 774 OFFCURVE",
"872 773 OFFCURVE",
"831 771 CURVE",
"820 805 OFFCURVE",
"805 834 OFFCURVE",
"790 854 CURVE",
"751 870 OFFCURVE",
"703 877 OFFCURVE",
"654 877 CURVE SMOOTH",
"550 877 OFFCURVE",
"442 846 OFFCURVE",
"408 803 CURVE",
"417 835 OFFCURVE",
"444 864 OFFCURVE",
"465 872 CURVE",
"344 891 OFFCURVE",
"190 856 OFFCURVE",
"148 803 CURVE",
"163 712 OFFCURVE",
"234 615 OFFCURVE",
"307 557 CURVE",
"227 582 OFFCURVE",
"157 644 OFFCURVE",
"113 771 CURVE",
"75 772 OFFCURVE",
"44 773 OFFCURVE",
"29 775 CURVE",
"2 712 OFFCURVE",
"2 582 OFFCURVE",
"25 533 CURVE",
"49 532 OFFCURVE",
"91 509 OFFCURVE",
"91 381 CURVE SMOOTH",
"91 263 OFFCURVE",
"57 233 OFFCURVE",
"25 222 CURVE",
"7 165 OFFCURVE",
"10 40 OFFCURVE",
"32 -17 CURVE"
);
}
);
width = 980;
}
);
leftKerningGroup = N;
leftMetricsKey = "=E";
rightKerningGroup = E;
rightMetricsKey = "=E";
unicode = 0204;
},
{
color = 5;
glyphname = Edieresis;
layers = (
{
layerId = "863809E3-B3D3-4728-B9C6-73F0AB5A9F00";
paths = (
{
closed = 1;
nodes = (
"91 -11 OFFCURVE",
"319 -2 OFFCURVE",
"489 -2 CURVE SMOOTH",
"646 -2 OFFCURVE",
"818 -15 OFFCURVE",
"958 -17 CURVE",
"973 40 OFFCURVE",
"976 315 OFFCURVE",
"965 374 CURVE",
"863 381 OFFCURVE",
"741 381 OFFCURVE",
"629 374 CURVE",
"621 343 OFFCURVE",
"621 311 OFFCURVE",
"629 280 CURVE",
"512 280 LINE",
"512 323 LINE",
"606 323 LINE",
"606 462 LINE",
"513 462 LINE",
"513 504 LINE",
"629 504 LINE",
"621 473 OFFCURVE",
"621 442 OFFCURVE",
"629 411 CURVE",
"733 399 OFFCURVE",
"865 399 OFFCURVE",
"959 411 CURVE",
"979 482 OFFCURVE",
"971 713 OFFCURVE",
"954 776 CURVE",
"923 774 OFFCURVE",
"890 773 OFFCURVE",
"858 772 CURVE",
"833 831 OFFCURVE",
"771 876 OFFCURVE",
"657 876 CURVE SMOOTH",
"529 876 OFFCURVE",
"466 822 OFFCURVE",
"445 760 CURVE",
"437 795 OFFCURVE",
"449 837 OFFCURVE",
"493 866 CURVE",
"469 871 OFFCURVE",
"440 876 OFFCURVE",
"407 876 CURVE SMOOTH",
"242 876 OFFCURVE",
"187 786 OFFCURVE",
"187 707 CURVE SMOOTH",
"187 633 OFFCURVE",
"233 573 OFFCURVE",
"296 546 CURVE",
"198 555 OFFCURVE",
"127 640 OFFCURVE",
"158 770 CURVE",
"93 771 OFFCURVE",
"47 773 OFFCURVE",
"29 775 CURVE",
"2 712 OFFCURVE",
"2 582 OFFCURVE",
"25 533 CURVE",
"49 532 OFFCURVE",
"91 509 OFFCURVE",
"91 381 CURVE SMOOTH",
"91 263 OFFCURVE",
"57 233 OFFCURVE",
"25 222 CURVE",
"7 165 OFFCURVE",
"10 40 OFFCURVE",
"32 -17 CURVE"
);
}
);
width = 980;
}
);
leftKerningGroup = N;
leftMetricsKey = "=E";
rightKerningGroup = E;
rightMetricsKey = "=E";
unicode = 00CB;
},
{
color = 5;
glyphname = Edotaccent;
layers = (
{
layerId = "863809E3-B3D3-4728-B9C6-73F0AB5A9F00";
paths = (
{
closed = 1;
nodes = (
"91 -11 OFFCURVE",
"319 -2 OFFCURVE",
"489 -2 CURVE SMOOTH",
"646 -2 OFFCURVE",
"818 -15 OFFCURVE",
"958 -17 CURVE",
"973 40 OFFCURVE",
"976 315 OFFCURVE",
"965 374 CURVE",
"863 381 OFFCURVE",
"741 381 OFFCURVE",
"629 374 CURVE",
"621 343 OFFCURVE",
"621 311 OFFCURVE",
"629 280 CURVE",
"512 280 LINE",
"512 323 LINE",
"606 323 LINE",
"606 462 LINE",
"513 462 LINE",
"513 504 LINE",
"629 504 LINE",
"621 473 OFFCURVE",
"621 442 OFFCURVE",
"629 411 CURVE",
"733 399 OFFCURVE",
"865 399 OFFCURVE",
"959 411 CURVE",
"979 482 OFFCURVE",
"971 713 OFFCURVE",
"954 776 CURVE",
"868 772 OFFCURVE",
"792 770 OFFCURVE",
"713 768 CURVE",
"681 839 OFFCURVE",
"613 876 OFFCURVE",
"498 876 CURVE SMOOTH",
"342 876 OFFCURVE",
"289 788 OFFCURVE",
"289 707 CURVE SMOOTH",
"289 648 OFFCURVE",
"319 597 OFFCURVE",
"363 565 CURVE",
"284 584 OFFCURVE",
"234 656 OFFCURVE",
"259 767 CURVE",
"154 769 OFFCURVE",
"59 772 OFFCURVE",
"29 775 CURVE",
"2 712 OFFCURVE",
"2 582 OFFCURVE",
"25 533 CURVE",
"49 532 OFFCURVE",
"91 509 OFFCURVE",
"91 381 CURVE SMOOTH",
"91 263 OFFCURVE",
"57 233 OFFCURVE",
"25 222 CURVE",
"7 165 OFFCURVE",
"10 40 OFFCURVE",
"32 -17 CURVE"
);
}
);
width = 980;
}
);
leftKerningGroup = N;
leftMetricsKey = "=E";
rightKerningGroup = E;
rightMetricsKey = "=E";
unicode = 0116;
},
{
color = 5;
glyphname = Edotbelow;
layers = (
{
layerId = "863809E3-B3D3-4728-B9C6-73F0AB5A9F00";
paths = (
{
closed = 1;
nodes = (
"666 -173 OFFCURVE",
"723 -92 OFFCURVE",
"725 -9 CURVE",
"807 -12 OFFCURVE",
"886 -16 OFFCURVE",
"958 -17 CURVE",
"973 40 OFFCURVE",
"976 315 OFFCURVE",
"965 374 CURVE",
"863 381 OFFCURVE",
"741 381 OFFCURVE",
"629 374 CURVE",
"621 343 OFFCURVE",
"621 311 OFFCURVE",
"629 280 CURVE",
"512 280 LINE",
"512 323 LINE",
"606 323 LINE",
"606 462 LINE",
"513 462 LINE",
"513 504 LINE",
"629 504 LINE",
"621 473 OFFCURVE",
"621 442 OFFCURVE",
"629 411 CURVE",
"733 399 OFFCURVE",
"865 399 OFFCURVE",
"959 411 CURVE",
"979 482 OFFCURVE",
"971 713 OFFCURVE",
"954 776 CURVE",
"785 769 OFFCURVE",
"605 765 OFFCURVE",
"465 765 CURVE SMOOTH",
"327 765 OFFCURVE",
"84 770 OFFCURVE",
"29 775 CURVE",
"2 712 OFFCURVE",
"2 582 OFFCURVE",
"25 533 CURVE",
"49 532 OFFCURVE",
"91 509 OFFCURVE",
"91 381 CURVE SMOOTH",
"91 263 OFFCURVE",
"57 233 OFFCURVE",
"25 222 CURVE",
"7 165 OFFCURVE",
"10 40 OFFCURVE",
"32 -17 CURVE",
"66 -13 OFFCURVE",
"154 -9 OFFCURVE",
"254 -6 CURVE",
"257 63 OFFCURVE",
"297 146 OFFCURVE",
"385 151 CURVE",
"315 119 OFFCURVE",
"288 59 OFFCURVE",
"288 5 CURVE SMOOTH",
"288 -97 OFFCURVE",
"364 -173 OFFCURVE",
"510 -173 CURVE SMOOTH"
);
}
);
width = 980;
}
);
leftKerningGroup = N;
leftMetricsKey = "=E";
rightKerningGroup = E;
rightMetricsKey = "=E";
unicode = 1EB8;
},
{
color = 5;
glyphname = Egrave;
layers = (
{
layerId = "863809E3-B3D3-4728-B9C6-73F0AB5A9F00";
paths = (
{
closed = 1;
nodes = (
"91 -11 OFFCURVE",
"319 -2 OFFCURVE",
"489 -2 CURVE SMOOTH",
"646 -2 OFFCURVE",
"818 -15 OFFCURVE",
"958 -17 CURVE",
"973 40 OFFCURVE",
"976 315 OFFCURVE",
"965 374 CURVE",
"863 381 OFFCURVE",
"741 381 OFFCURVE",
"629 374 CURVE",
"621 343 OFFCURVE",
"621 311 OFFCURVE",
"629 280 CURVE",
"512 280 LINE",
"512 323 LINE",
"606 323 LINE",
"606 462 LINE",
"513 462 LINE",
"513 504 LINE",
"629 504 LINE",
"621 473 OFFCURVE",
"621 442 OFFCURVE",
"629 411 CURVE",
"733 399 OFFCURVE",
"865 399 OFFCURVE",
"959 411 CURVE",
"979 482 OFFCURVE",
"971 713 OFFCURVE",
"954 776 CURVE",
"854 772 OFFCURVE",
"750 769 OFFCURVE",
"652 767 CURVE",
"641 802 OFFCURVE",
"625 833 OFFCURVE",
"610 854 CURVE",
"571 870 OFFCURVE",
"523 877 OFFCURVE",
"474 877 CURVE SMOOTH",
"370 877 OFFCURVE",
"262 846 OFFCURVE",
"228 803 CURVE",
"242 718 OFFCURVE",
"305 629 OFFCURVE",
"372 569 CURVE",
"297 594 OFFCURVE",
"232 654 OFFCURVE",
"193 768 CURVE",
"117 770 OFFCURVE",
"54 773 OFFCURVE",
"29 775 CURVE",
"2 712 OFFCURVE",
"2 582 OFFCURVE",
"25 533 CURVE",
"49 532 OFFCURVE",
"91 509 OFFCURVE",
"91 381 CURVE SMOOTH",
"91 263 OFFCURVE",
"57 233 OFFCURVE",
"25 222 CURVE",
"7 165 OFFCURVE",
"10 40 OFFCURVE",
"32 -17 CURVE"
);
}
);
width = 980;
}
);
leftKerningGroup = N;
leftMetricsKey = "=E";
rightKerningGroup = E;
rightMetricsKey = "=E";
unicode = 00C8;
},
{
color = 5;
glyphname = Ehookabove;
layers = (
{
layerId = "863809E3-B3D3-4728-B9C6-73F0AB5A9F00";
paths = (
{
closed = 1;
nodes = (
"91 -11 OFFCURVE",
"319 -2 OFFCURVE",
"489 -2 CURVE SMOOTH",
"646 -2 OFFCURVE",
"818 -15 OFFCURVE",
"958 -17 CURVE",
"973 40 OFFCURVE",
"976 315 OFFCURVE",
"965 374 CURVE",
"863 381 OFFCURVE",
"741 381 OFFCURVE",
"629 374 CURVE",
"621 343 OFFCURVE",
"621 311 OFFCURVE",
"629 280 CURVE",
"512 280 LINE",
"512 323 LINE",
"606 323 LINE",
"606 462 LINE",
"513 462 LINE",
"513 504 LINE",
"629 504 LINE",
"621 473 OFFCURVE",
"621 442 OFFCURVE",
"629 411 CURVE",
"733 399 OFFCURVE",
"865 399 OFFCURVE",
"959 411 CURVE",
"979 482 OFFCURVE",
"971 713 OFFCURVE",
"954 776 CURVE",
"878 773 OFFCURVE",
"799 770 OFFCURVE",
"723 768 CURVE",
"707 835 OFFCURVE",
"648 876 OFFCURVE",
"550 876 CURVE SMOOTH",
"449 876 OFFCURVE",
"373 861 OFFCURVE",
"289 856 CURVE",
"269 813 OFFCURVE",
"270 692 OFFCURVE",
"288 639 CURVE",
"323 644 OFFCURVE",
"355 630 OFFCURVE",
"370 588 CURVE",
"346 605 OFFCURVE",
"314 614 OFFCURVE",
"273 609 CURVE",
"255 632 OFFCURVE",
"241 699 OFFCURVE",
"243 768 CURVE",
"147 770 OFFCURVE",
"59 772 OFFCURVE",
"29 775 CURVE",
"2 712 OFFCURVE",
"2 582 OFFCURVE",
"25 533 CURVE",
"49 532 OFFCURVE",
"91 509 OFFCURVE",
"91 381 CURVE SMOOTH",
"91 263 OFFCURVE",
"57 233 OFFCURVE",
"25 222 CURVE",
"7 165 OFFCURVE",
"10 40 OFFCURVE",
"32 -17 CURVE"
);
}
);
width = 980;
}
);
leftKerningGroup = N;
leftMetricsKey = "=E";
rightKerningGroup = E;
rightMetricsKey = "=E";
unicode = 1EBA;
},
{
color = 5;
glyphname = Einvertedbreve;
layers = (
{
layerId = "863809E3-B3D3-4728-B9C6-73F0AB5A9F00";
paths = (
{
closed = 1;
nodes = (
"91 -11 OFFCURVE",
"319 -2 OFFCURVE",
"489 -2 CURVE SMOOTH",
"646 -2 OFFCURVE",
"818 -15 OFFCURVE",
"958 -17 CURVE",
"973 40 OFFCURVE",
"976 315 OFFCURVE",
"965 374 CURVE",
"863 381 OFFCURVE",
"741 381 OFFCURVE",
"629 374 CURVE",
"621 343 OFFCURVE",
"621 311 OFFCURVE",
"629 280 CURVE",
"512 280 LINE",
"512 323 LINE",
"606 323 LINE",
"606 462 LINE",
"513 462 LINE",
"513 504 LINE",
"629 504 LINE",
"621 473 OFFCURVE",
"621 442 OFFCURVE",
"629 411 CURVE",
"733 399 OFFCURVE",
"865 399 OFFCURVE",
"959 411 CURVE",
"979 482 OFFCURVE",
"971 713 OFFCURVE",
"954 776 CURVE",
"883 773 OFFCURVE",
"824 771 OFFCURVE",
"753 769 CURVE",
"704 834 OFFCURVE",
"624 875 OFFCURVE",
"520 875 CURVE SMOOTH",
"295 875 OFFCURVE",
"183 745 OFFCURVE",
"214 550 CURVE",
"176 618 OFFCURVE",
"175 700 OFFCURVE",
"209 768 CURVE",
"120 770 OFFCURVE",
"55 773 OFFCURVE",
"29 775 CURVE",
"2 712 OFFCURVE",
"2 582 OFFCURVE",
"25 533 CURVE",
"49 532 OFFCURVE",
"91 509 OFFCURVE",
"91 381 CURVE SMOOTH",
"91 263 OFFCURVE",
"57 233 OFFCURVE",
"25 222 CURVE",
"7 165 OFFCURVE",
"10 40 OFFCURVE",
"32 -17 CURVE"
);
}
);
width = 980;
}
);
leftKerningGroup = N;
leftMetricsKey = "=E";
rightKerningGroup = E;
rightMetricsKey = "=E";
unicode = 0206;
},
{
color = 5;
glyphname = Emacron;
layers = (
{
layerId = "863809E3-B3D3-4728-B9C6-73F0AB5A9F00";
paths = (
{
closed = 1;
nodes = (
"91 -11 OFFCURVE",
"319 -2 OFFCURVE",
"489 -2 CURVE SMOOTH",
"646 -2 OFFCURVE",
"818 -15 OFFCURVE",
"958 -17 CURVE",
"973 40 OFFCURVE",
"976 315 OFFCURVE",
"965 374 CURVE",
"863 381 OFFCURVE",
"741 381 OFFCURVE",
"629 374 CURVE",
"621 343 OFFCURVE",
"621 311 OFFCURVE",
"629 280 CURVE",
"512 280 LINE",
"512 323 LINE",
"606 323 LINE",
"606 462 LINE",
"513 462 LINE",
"513 504 LINE",
"629 504 LINE",
"621 473 OFFCURVE",
"621 442 OFFCURVE",
"629 411 CURVE",
"733 399 OFFCURVE",
"865 399 OFFCURVE",
"959 411 CURVE",
"979 482 OFFCURVE",
"971 713 OFFCURVE",
"954 776 CURVE",
"891 774 OFFCURVE",
"829 771 OFFCURVE",
"767 770 CURVE",
"766 803 OFFCURVE",
"763 837 OFFCURVE",
"758 854 CURVE",
"621 844 OFFCURVE",
"369 844 OFFCURVE",
"234 854 CURVE",
"222 798 OFFCURVE",
"224 588 OFFCURVE",
"234 552 CURVE",
"200 608 OFFCURVE",
"193 724 OFFCURVE",
"191 768 CURVE",
"120 770 OFFCURVE",
"53 773 OFFCURVE",
"29 775 CURVE",
"2 712 OFFCURVE",
"2 582 OFFCURVE",
"25 533 CURVE",
"49 532 OFFCURVE",
"91 509 OFFCURVE",
"91 381 CURVE SMOOTH",
"91 263 OFFCURVE",
"57 233 OFFCURVE",
"25 222 CURVE",
"7 165 OFFCURVE",
"10 40 OFFCURVE",
"32 -17 CURVE"
);
}
);
width = 980;
}
);
leftKerningGroup = N;
leftMetricsKey = "=E";
rightKerningGroup = E;
rightMetricsKey = "=E";
unicode = 0112;
},
{
color = 5;
glyphname = Eogonek;
layers = (
{
layerId = "863809E3-B3D3-4728-B9C6-73F0AB5A9F00";
paths = (
{
closed = 1;
nodes = (
"810 -169 OFFCURVE",
"864 -152 OFFCURVE",
"953 -159 CURVE",
"973 30 OFFCURVE",
"976 315 OFFCURVE",
"965 374 CURVE",
"863 381 OFFCURVE",
"741 381 OFFCURVE",
"629 374 CURVE",
"621 343 OFFCURVE",
"621 311 OFFCURVE",
"629 280 CURVE",
"512 280 LINE",
"512 323 LINE",
"606 323 LINE",
"606 462 LINE",
"513 462 LINE",
"513 504 LINE",
"629 504 LINE",
"621 473 OFFCURVE",
"621 442 OFFCURVE",
"629 411 CURVE",
"733 399 OFFCURVE",
"865 399 OFFCURVE",
"959 411 CURVE",
"979 482 OFFCURVE",
"971 713 OFFCURVE",
"954 776 CURVE",
"785 769 OFFCURVE",
"605 765 OFFCURVE",
"465 765 CURVE SMOOTH",
"327 765 OFFCURVE",
"84 770 OFFCURVE",
"29 775 CURVE",
"2 712 OFFCURVE",
"2 582 OFFCURVE",
"25 533 CURVE",
"49 532 OFFCURVE",
"91 509 OFFCURVE",
"91 381 CURVE SMOOTH",
"91 263 OFFCURVE",
"57 233 OFFCURVE",
"25 222 CURVE",
"7 165 OFFCURVE",
"10 40 OFFCURVE",
"32 -17 CURVE",
"67 -13 OFFCURVE",
"170 -7 OFFCURVE",
"480 -5 CURVE",
"491 24 OFFCURVE",
"519 93 OFFCURVE",
"583 106 CURVE",
"539 59 OFFCURVE",
"521 7 OFFCURVE",
"521 -34 CURVE SMOOTH",
"521 -123 OFFCURVE",
"583 -169 OFFCURVE",
"699 -169 CURVE SMOOTH"
);
}
);
width = 979;
}
);
leftKerningGroup = N;
leftMetricsKey = "=E";
rightKerningGroup = E;
rightMetricsKey = "=E";
unicode = 0118;
},
{
color = 5;
glyphname = Etilde;
layers = (
{
layerId = "863809E3-B3D3-4728-B9C6-73F0AB5A9F00";
paths = (
{
closed = 1;
nodes = (
"91 -11 OFFCURVE",
"319 -2 OFFCURVE",
"489 -2 CURVE SMOOTH",
"646 -2 OFFCURVE",
"818 -15 OFFCURVE",
"958 -17 CURVE",
"973 40 OFFCURVE",
"976 315 OFFCURVE",
"965 374 CURVE",
"863 381 OFFCURVE",
"741 381 OFFCURVE",
"629 374 CURVE",
"621 343 OFFCURVE",
"621 311 OFFCURVE",
"629 280 CURVE",
"512 280 LINE",
"512 323 LINE",
"606 323 LINE",
"606 462 LINE",
"513 462 LINE",
"513 504 LINE",
"629 504 LINE",
"621 473 OFFCURVE",
"621 442 OFFCURVE",
"629 411 CURVE",
"733 399 OFFCURVE",
"865 399 OFFCURVE",
"959 411 CURVE",
"979 482 OFFCURVE",
"971 713 OFFCURVE",
"954 776 CURVE",
"803 770 LINE",
"804 788 OFFCURVE",
"805 807 OFFCURVE",
"805 827 CURVE",
"770 845 OFFCURVE",
"678 854 OFFCURVE",
"637 855 CURVE",
"623 834 OFFCURVE",
"600 821 OFFCURVE",
"564 821 CURVE SMOOTH",
"513 821 OFFCURVE",
"457 851 OFFCURVE",
"386 851 CURVE SMOOTH",
"276 851 OFFCURVE",
"221 780 OFFCURVE",
"217 581 CURVE",
"196 614 OFFCURVE",
"189 692 OFFCURVE",
"206 768 CURVE",
"145 769 OFFCURVE",
"74 771 OFFCURVE",
"29 775 CURVE",
"2 712 OFFCURVE",
"2 582 OFFCURVE",
"25 533 CURVE",
"49 532 OFFCURVE",
"91 509 OFFCURVE",
"91 381 CURVE SMOOTH",
"91 263 OFFCURVE",
"57 233 OFFCURVE",
"25 222 CURVE",
"7 165 OFFCURVE",
"10 40 OFFCURVE",
"32 -17 CURVE"
);
}
);
width = 980;
}
);
leftKerningGroup = N;
leftMetricsKey = "=E";
rightKerningGroup = E;
rightMetricsKey = "=E";
unicode = 1EBC;
},
{
color = 4;
glyphname = F;
layers = (
{
layerId = "863809E3-B3D3-4728-B9C6-73F0AB5A9F00";
paths = (
{
closed = 1;
nodes = (
"104 -11 OFFCURVE",
"255 -1 OFFCURVE",
"354 -1 CURVE SMOOTH",
"443 -1 OFFCURVE",
"569 -12 OFFCURVE",
"608 -17 CURVE",
"629 40 OFFCURVE",
"627 195 OFFCURVE",
"609 242 CURVE",
"526 239 OFFCURVE",
"509 253 OFFCURVE",
"509 288 CURVE",
"606 288 LINE",
"606 455 LINE",
"509 455 LINE",
"509 496 LINE",
"628 496 LINE",
"622 445 OFFCURVE",
"622 395 OFFCURVE",
"628 344 CURVE",
"754 328 OFFCURVE",
"840 328 OFFCURVE",
"934 344 CURVE",
"954 411 OFFCURVE",
"946 713 OFFCURVE",
"929 776 CURVE",
"758 769 OFFCURVE",
"611 765 OFFCURVE",
"470 765 CURVE SMOOTH",
"330 765 OFFCURVE",
"85 770 OFFCURVE",
"29 775 CURVE",
"2 712 OFFCURVE",
"2 582 OFFCURVE",
"25 533 CURVE",
"49 532 OFFCURVE",
"91 509 OFFCURVE",
"91 381 CURVE SMOOTH",
"91 263 OFFCURVE",
"56 233 OFFCURVE",
"27 222 CURVE",
"7 165 OFFCURVE",
"11 40 OFFCURVE",
"34 -17 CURVE"
);
}
);
width = 954;
}
);
leftKerningGroup = N;
rightKerningGroup = F;
unicode = 0046;
},
{
color = 4;
glyphname = G;
layers = (
{
layerId = "863809E3-B3D3-4728-B9C6-73F0AB5A9F00";
paths = (
{
closed = 1;
nodes = (
"635 -24 OFFCURVE",
"801 0 OFFCURVE",
"964 -15 CURVE",
"964 58 OFFCURVE",
"986 136 OFFCURVE",
"1020 138 CURVE",
"1043 187 OFFCURVE",
"1043 339 OFFCURVE",
"1016 392 CURVE",
"951 386 OFFCURVE",
"835 381 OFFCURVE",
"756 381 CURVE SMOOTH",
"634 381 OFFCURVE",
"554 389 OFFCURVE",
"499 394 CURVE",
"490 356 OFFCURVE",
"490 333 OFFCURVE",
"497 301 CURVE",
"531 301 LINE",
"531 265 LINE",
"472 265 LINE",
"472 470 LINE",
"521 470 LINE",
"521 417 LINE",
"649 405 OFFCURVE",
"921 405 OFFCURVE",
"1005 417 CURVE",
"1024 515 OFFCURVE",
"1020 699 OFFCURVE",
"1002 780 CURVE",
"922 780 OFFCURVE",
"763 773 OFFCURVE",
"667 772 CURVE",
"672 719 OFFCURVE",
"684 666 OFFCURVE",
"664 622 CURVE",
"658 755 OFFCURVE",
"567 795 OFFCURVE",
"411 795 CURVE SMOOTH",
"162 795 OFFCURVE",
"10 649 OFFCURVE",
"10 378 CURVE SMOOTH",
"10 102 OFFCURVE",
"171 -24 OFFCURVE",
"486 -24 CURVE SMOOTH"
);
}
);
width = 1045;
}
);
leftKerningGroup = O;
rightKerningGroup = G;
unicode = 0047;
},
{
color = 5;
glyphname = Gbreve;
layers = (
{
layerId = "863809E3-B3D3-4728-B9C6-73F0AB5A9F00";
paths = (
{
closed = 1;
nodes = (
"635 -24 OFFCURVE",
"801 0 OFFCURVE",
"964 -15 CURVE",
"964 58 OFFCURVE",
"986 136 OFFCURVE",
"1020 138 CURVE",
"1043 187 OFFCURVE",
"1043 339 OFFCURVE",
"1016 392 CURVE",
"951 386 OFFCURVE",
"835 381 OFFCURVE",
"756 381 CURVE SMOOTH",
"634 381 OFFCURVE",
"554 389 OFFCURVE",
"499 394 CURVE",
"490 356 OFFCURVE",
"490 333 OFFCURVE",
"497 301 CURVE",
"531 301 LINE",
"531 265 LINE",
"472 265 LINE",
"472 470 LINE",
"521 470 LINE",
"521 417 LINE",
"649 405 OFFCURVE",
"921 405 OFFCURVE",
"1005 417 CURVE",
"1024 515 OFFCURVE",
"1020 699 OFFCURVE",
"1002 780 CURVE",
"962 780 OFFCURVE",
"905 778 OFFCURVE",
"846 777 CURVE",
"847 799 OFFCURVE",
"845 822 OFFCURVE",
"841 847 CURVE",
"806 865 OFFCURVE",
"714 874 OFFCURVE",
"673 875 CURVE",
"653 845 OFFCURVE",
"612 830 OFFCURVE",
"552 830 CURVE SMOOTH",
"492 830 OFFCURVE",
"452 845 OFFCURVE",
"431 875 CURVE",
"386 874 OFFCURVE",
"288 865 OFFCURVE",
"253 847 CURVE",
"234 731 OFFCURVE",
"278 626 OFFCURVE",
"367 568 CURVE",
"279 590 OFFCURVE",
"228 662 OFFCURVE",
"211 751 CURVE",
"80 689 OFFCURVE",
"10 562 OFFCURVE",
"10 378 CURVE SMOOTH",
"10 102 OFFCURVE",
"171 -24 OFFCURVE",
"486 -24 CURVE SMOOTH"
);
}
);
width = 1045;
}
);
leftKerningGroup = O;
leftMetricsKey = "=G";
rightKerningGroup = G;
rightMetricsKey = "=G";
unicode = 011E;
},
{
color = 5;
glyphname = Gcaron;
layers = (
{
layerId = "863809E3-B3D3-4728-B9C6-73F0AB5A9F00";
paths = (
{
closed = 1;
nodes = (
"635 -24 OFFCURVE",
"801 0 OFFCURVE",
"964 -15 CURVE",
"964 58 OFFCURVE",
"986 136 OFFCURVE",
"1020 138 CURVE",
"1043 187 OFFCURVE",
"1043 339 OFFCURVE",
"1016 392 CURVE",
"951 386 OFFCURVE",
"835 381 OFFCURVE",
"756 381 CURVE SMOOTH",
"634 381 OFFCURVE",
"554 389 OFFCURVE",
"499 394 CURVE",
"490 356 OFFCURVE",
"490 333 OFFCURVE",
"497 301 CURVE",
"531 301 LINE",
"531 265 LINE",
"472 265 LINE",
"472 470 LINE",
"521 470 LINE",
"521 417 LINE",
"649 405 OFFCURVE",
"921 405 OFFCURVE",
"1005 417 CURVE",
"1024 515 OFFCURVE",
"1020 699 OFFCURVE",
"1002 780 CURVE",
"961 780 OFFCURVE",
"900 778 OFFCURVE",
"837 776 CURVE",
"840 800 OFFCURVE",
"841 824 OFFCURVE",
"837 847 CURVE",
"802 865 OFFCURVE",
"704 874 OFFCURVE",
"659 875 CURVE",
"606 861 OFFCURVE",
"545 811 OFFCURVE",
"490 748 CURVE",
"465 765 LINE",
"483 785 OFFCURVE",
"501 804 OFFCURVE",
"519 821 CURVE",
"485 846 OFFCURVE",
"446 867 OFFCURVE",
"417 875 CURVE",
"376 874 OFFCURVE",
"284 865 OFFCURVE",
"249 847 CURVE",
"232 738 OFFCURVE",
"297 605 OFFCURVE",
"367 543 CURVE",
"298 567 OFFCURVE",
"223 666 OFFCURVE",
"214 756 CURVE",
"84 696 OFFCURVE",
"10 567 OFFCURVE",
"10 378 CURVE SMOOTH",
"10 102 OFFCURVE",
"171 -24 OFFCURVE",
"486 -24 CURVE SMOOTH"
);
}
);
width = 1045;
}
);
leftKerningGroup = O;
leftMetricsKey = "=G";
rightKerningGroup = G;
rightMetricsKey = "=G";
unicode = 01E6;
},
{
color = 5;
glyphname = Gcircumflex;
layers = (
{
layerId = "863809E3-B3D3-4728-B9C6-73F0AB5A9F00";
paths = (
{
closed = 1;
nodes = (
"635 -24 OFFCURVE",
"801 0 OFFCURVE",
"964 -15 CURVE",
"964 58 OFFCURVE",
"986 136 OFFCURVE",
"1020 138 CURVE",
"1043 187 OFFCURVE",
"1043 339 OFFCURVE",
"1016 392 CURVE",
"951 386 OFFCURVE",
"835 381 OFFCURVE",
"756 381 CURVE SMOOTH",
"634 381 OFFCURVE",
"554 389 OFFCURVE",
"499 394 CURVE",
"490 356 OFFCURVE",
"490 333 OFFCURVE",
"497 301 CURVE",
"531 301 LINE",
"531 265 LINE",
"472 265 LINE",
"472 470 LINE",
"521 470 LINE",
"521 417 LINE",
"649 405 OFFCURVE",
"921 405 OFFCURVE",
"1005 417 CURVE",
"1024 515 OFFCURVE",
"1020 699 OFFCURVE",
"1002 780 CURVE",
"944 780 OFFCURVE",
"846 776 OFFCURVE",
"759 774 CURVE",
"734 814 OFFCURVE",
"704 847 OFFCURVE",
"675 867 CURVE",
"645 872 OFFCURVE",
"585 875 OFFCURVE",
"523 875 CURVE SMOOTH",
"467 875 OFFCURVE",
"408 873 OFFCURVE",
"369 867 CURVE",
"293 815 OFFCURVE",
"237 697 OFFCURVE",
"225 559 CURVE",
"197 599 OFFCURVE",
"211 708 OFFCURVE",
"243 763 CURVE",
"91 703 OFFCURVE",
"10 573 OFFCURVE",
"10 378 CURVE SMOOTH",
"10 102 OFFCURVE",
"171 -24 OFFCURVE",
"486 -24 CURVE SMOOTH"
);
}
);
width = 1045;
}
);
leftKerningGroup = O;
leftMetricsKey = "=G";
rightKerningGroup = G;
rightMetricsKey = "=G";
unicode = 011C;
},
{
color = 5;
glyphname = Gcommaaccent;
layers = (
{
layerId = "863809E3-B3D3-4728-B9C6-73F0AB5A9F00";
paths = (
{
closed = 1;
nodes = (
"670 -130 OFFCURVE",
"729 -78 OFFCURVE",
"749 -13 CURVE",
"815 -9 OFFCURVE",
"890 -8 OFFCURVE",
"964 -15 CURVE",
"964 58 OFFCURVE",
"986 136 OFFCURVE",
"1020 138 CURVE",
"1043 187 OFFCURVE",
"1043 339 OFFCURVE",
"1016 392 CURVE",
"951 386 OFFCURVE",
"835 381 OFFCURVE",
"756 381 CURVE SMOOTH",
"634 381 OFFCURVE",
"554 389 OFFCURVE",
"499 394 CURVE",
"490 356 OFFCURVE",
"490 333 OFFCURVE",
"497 301 CURVE",
"531 301 LINE",
"531 265 LINE",
"472 265 LINE",
"472 470 LINE",
"521 470 LINE",
"521 417 LINE",
"649 405 OFFCURVE",
"921 405 OFFCURVE",
"1005 417 CURVE",
"1024 515 OFFCURVE",
"1020 699 OFFCURVE",
"1002 780 CURVE",
"922 780 OFFCURVE",
"763 773 OFFCURVE",
"667 772 CURVE",
"672 719 OFFCURVE",
"684 666 OFFCURVE",
"664 622 CURVE",
"658 755 OFFCURVE",
"567 795 OFFCURVE",
"411 795 CURVE SMOOTH",
"162 795 OFFCURVE",
"10 649 OFFCURVE",
"10 378 CURVE SMOOTH",
"10 161 OFFCURVE",
"109 36 OFFCURVE",
"309 -8 CURVE",
"324 24 OFFCURVE",
"326 75 OFFCURVE",
"325 117 CURVE",
"378 -14 OFFCURVE",
"357 -95 OFFCURVE",
"343 -163 CURVE",
"367 -170 OFFCURVE",
"444 -174 OFFCURVE",
"507 -174 CURVE SMOOTH",
"543 -174 OFFCURVE",
"574 -173 OFFCURVE",
"588 -170 CURVE"
);
}
);
width = 1045;
}
);
leftKerningGroup = O;
leftMetricsKey = "=G";
rightKerningGroup = G;
rightMetricsKey = "=G";
unicode = 0122;
},
{
color = 5;
glyphname = Gdotaccent;
layers = (
{
layerId = "863809E3-B3D3-4728-B9C6-73F0AB5A9F00";
paths = (
{
closed = 1;
nodes = (
"635 -24 OFFCURVE",
"801 0 OFFCURVE",
"964 -15 CURVE",
"964 58 OFFCURVE",
"986 136 OFFCURVE",
"1020 138 CURVE",
"1043 187 OFFCURVE",
"1043 339 OFFCURVE",
"1016 392 CURVE",
"951 386 OFFCURVE",
"835 381 OFFCURVE",
"756 381 CURVE SMOOTH",
"634 381 OFFCURVE",
"554 389 OFFCURVE",
"499 394 CURVE",
"490 356 OFFCURVE",
"490 333 OFFCURVE",
"497 301 CURVE",
"531 301 LINE",
"531 265 LINE",
"472 265 LINE",
"472 470 LINE",
"520 470 LINE",
"521 417 LINE",
"649 405 OFFCURVE",
"921 405 OFFCURVE",
"1005 417 CURVE",
"1024 515 OFFCURVE",
"1020 699 OFFCURVE",
"1002 780 CURVE",
"938 780 OFFCURVE",
"822 775 OFFCURVE",
"745 773 CURVE",
"710 841 OFFCURVE",
"641 876 OFFCURVE",
"534 876 CURVE SMOOTH",
"385 876 OFFCURVE",
"325 788 OFFCURVE",
"325 707 CURVE SMOOTH",
"325 639 OFFCURVE",
"364 583 OFFCURVE",
"419 553 CURVE",
"329 569 OFFCURVE",
"260 647 OFFCURVE",
"291 780 CURVE",
"110 736 OFFCURVE",
"10 598 OFFCURVE",
"10 378 CURVE SMOOTH",
"10 102 OFFCURVE",
"171 -24 OFFCURVE",
"486 -24 CURVE SMOOTH"
);
}
);
width = 1045;
}
);
leftKerningGroup = O;
leftMetricsKey = "=G";
rightKerningGroup = G;
rightMetricsKey = "=G";
unicode = 0120;
},
{
color = 4;
glyphname = H;
layers = (
{
layerId = "863809E3-B3D3-4728-B9C6-73F0AB5A9F00";
paths = (
{
closed = 1;
nodes = (
"91 -11 OFFCURVE",
"179 -1 OFFCURVE",
"287 -1 CURVE SMOOTH",
"420 -1 OFFCURVE",
"476 -12 OFFCURVE",
"531 -17 CURVE",
"546 40 OFFCURVE",
"549 175 OFFCURVE",
"538 232 CURVE",
"514 232 LINE",
"514 283 LINE",
"594 283 LINE",
"594 232 LINE",
"569 232 LINE",
"561 175 OFFCURVE",
"564 40 OFFCURVE",
"576 -17 CURVE",
"631 -12 OFFCURVE",
"726 -1 OFFCURVE",
"833 -1 CURVE SMOOTH",
"951 -1 OFFCURVE",
"1025 -12 OFFCURVE",
"1080 -17 CURVE",
"1102 40 OFFCURVE",
"1105 165 OFFCURVE",
"1087 222 CURVE",
"1055 233 OFFCURVE",
"1021 263 OFFCURVE",
"1021 381 CURVE SMOOTH",
"1021 509 OFFCURVE",
"1063 532 OFFCURVE",
"1087 533 CURVE",
"1110 582 OFFCURVE",
"1110 712 OFFCURVE",
"1083 775 CURVE",
"1028 770 OFFCURVE",
"912 761 OFFCURVE",
"833 761 CURVE SMOOTH",
"711 761 OFFCURVE",
"631 770 OFFCURVE",
"576 775 CURVE",
"564 715 OFFCURVE",
"561 575 OFFCURVE",
"569 515 CURVE",
"594 515 LINE",
"594 469 LINE",
"514 469 LINE",
"514 515 LINE",
"538 515 LINE",
"549 575 OFFCURVE",
"546 715 OFFCURVE",
"531 775 CURVE",
"475 770 OFFCURVE",
"401 761 OFFCURVE",
"288 761 CURVE SMOOTH",
"200 761 OFFCURVE",
"84 770 OFFCURVE",
"29 775 CURVE",
"2 712 OFFCURVE",
"2 582 OFFCURVE",
"25 533 CURVE",
"49 532 OFFCURVE",
"91 509 OFFCURVE",
"91 381 CURVE SMOOTH",
"91 263 OFFCURVE",
"57 233 OFFCURVE",
"25 222 CURVE",
"7 165 OFFCURVE",
"10 40 OFFCURVE",
"32 -17 CURVE"
);
}
);
width = 1112;
}
);
leftKerningGroup = N;
rightKerningGroup = N;
unicode = 0048;
},
{
color = 5;
glyphname = Hbar;
layers = (
{
layerId = "863809E3-B3D3-4728-B9C6-73F0AB5A9F00";
paths = (
{
closed = 1;
nodes = (
"91 -11 OFFCURVE",
"179 -1 OFFCURVE",
"287 -1 CURVE SMOOTH",
"420 -1 OFFCURVE",
"476 -12 OFFCURVE",
"531 -17 CURVE",
"546 40 OFFCURVE",
"549 175 OFFCURVE",
"538 232 CURVE",
"514 232 LINE",
"514 283 LINE",
"594 283 LINE",
"594 232 LINE",
"569 232 LINE",
"561 175 OFFCURVE",
"564 40 OFFCURVE",
"576 -17 CURVE",
"631 -12 OFFCURVE",
"726 -1 OFFCURVE",
"833 -1 CURVE SMOOTH",
"951 -1 OFFCURVE",
"1025 -12 OFFCURVE",
"1080 -17 CURVE",
"1102 40 OFFCURVE",
"1105 165 OFFCURVE",
"1087 222 CURVE",
"1055 233 OFFCURVE",
"1021 263 OFFCURVE",
"1021 381 CURVE SMOOTH",
"1021 392 LINE",
"1089 392 LINE",
"1112 476 OFFCURVE",
"1107 731 OFFCURVE",
"1083 775 CURVE",
"1028 770 OFFCURVE",
"912 761 OFFCURVE",
"824 761 CURVE SMOOTH",
"702 761 OFFCURVE",
"631 770 OFFCURVE",
"576 775 CURVE",
"569 739 OFFCURVE",
"565 673 OFFCURVE",
"565 609 CURVE",
"545 609 LINE",
"545 673 OFFCURVE",
"540 739 OFFCURVE",
"531 775 CURVE",
"475 770 OFFCURVE",
"401 761 OFFCURVE",
"288 761 CURVE SMOOTH",
"200 761 OFFCURVE",
"84 770 OFFCURVE",
"29 775 CURVE",
"22 759 OFFCURVE",
"17 729 OFFCURVE",
"14 636 CURVE",
"200 636 LINE",
"158 607 OFFCURVE",
"62 609 OFFCURVE",
"23 609 CURVE",
"3 565 OFFCURVE",
"4 436 OFFCURVE",
"23 392 CURVE",
"91 392 LINE",
"91 381 LINE SMOOTH",
"91 263 OFFCURVE",
"57 233 OFFCURVE",
"25 222 CURVE",
"7 165 OFFCURVE",
"10 40 OFFCURVE",
"32 -17 CURVE"
);
},
{
closed = 1;
nodes = (
"514 497 LINE",
"594 497 LINE",
"594 451 LINE",
"514 451 LINE"
);
}
);
width = 1112;
}
);
leftKerningGroup = Hbar;
leftMetricsKey = "=H";
rightKerningGroup = Hbar;
rightMetricsKey = "=H";
unicode = 0126;
},
{
color = 5;
glyphname = Hcircumflex;
layers = (
{
layerId = "863809E3-B3D3-4728-B9C6-73F0AB5A9F00";
paths = (
{
closed = 1;
nodes = (
"91 -11 OFFCURVE",
"179 -1 OFFCURVE",
"287 -1 CURVE SMOOTH",
"420 -1 OFFCURVE",
"476 -12 OFFCURVE",
"531 -17 CURVE",
"546 40 OFFCURVE",
"549 175 OFFCURVE",
"538 232 CURVE",
"514 232 LINE",
"514 283 LINE",
"594 283 LINE",
"594 232 LINE",
"569 232 LINE",
"561 175 OFFCURVE",
"564 40 OFFCURVE",
"576 -17 CURVE",
"631 -12 OFFCURVE",
"726 -1 OFFCURVE",
"833 -1 CURVE SMOOTH",
"951 -1 OFFCURVE",
"1025 -12 OFFCURVE",
"1080 -17 CURVE",
"1102 40 OFFCURVE",
"1105 165 OFFCURVE",
"1087 222 CURVE",
"1055 233 OFFCURVE",
"1021 263 OFFCURVE",
"1021 381 CURVE SMOOTH",
"1021 509 OFFCURVE",
"1063 532 OFFCURVE",
"1087 533 CURVE",
"1110 582 OFFCURVE",
"1110 712 OFFCURVE",
"1083 775 CURVE",
"1028 770 OFFCURVE",
"912 761 OFFCURVE",
"833 761 CURVE SMOOTH",
"797 761 LINE",
"765 814 OFFCURVE",
"734 847 OFFCURVE",
"706 867 CURVE",
"678 872 OFFCURVE",
"619 875 OFFCURVE",
"558 875 CURVE SMOOTH",
"502 875 OFFCURVE",
"443 873 OFFCURVE",
"404 867 CURVE",
"341 824 OFFCURVE",
"281 728 OFFCURVE",
"267 624 CURVE",
"257 671 OFFCURVE",
"260 725 OFFCURVE",
"276 761 CURVE",
"190 762 OFFCURVE",
"82 770 OFFCURVE",
"29 775 CURVE",
"2 712 OFFCURVE",
"2 582 OFFCURVE",
"25 533 CURVE",
"49 532 OFFCURVE",
"91 509 OFFCURVE",
"91 381 CURVE SMOOTH",
"91 263 OFFCURVE",
"57 233 OFFCURVE",
"25 222 CURVE",
"7 165 OFFCURVE",
"10 40 OFFCURVE",
"32 -17 CURVE"
);
},
{
closed = 1;
nodes = (
"514 507 LINE",
"594 507 LINE",
"594 451 LINE",
"514 451 LINE"
);
}
);
width = 1112;
}
);
leftKerningGroup = N;
leftMetricsKey = "=H";
rightKerningGroup = N;
rightMetricsKey = "=H";
unicode = 0124;
},
{
color = 4;
glyphname = I;
layers = (
{
layerId = "863809E3-B3D3-4728-B9C6-73F0AB5A9F00";
paths = (
{
closed = 1;
nodes = (
"93 -12 OFFCURVE",
"209 -1 OFFCURVE",
"301 -1 CURVE SMOOTH",
"400 -1 OFFCURVE",
"521 -12 OFFCURVE",
"581 -17 CURVE",
"604 40 OFFCURVE",
"608 165 OFFCURVE",
"588 222 CURVE",
"558 233 OFFCURVE",
"522 263 OFFCURVE",
"522 381 CURVE SMOOTH",
"522 509 OFFCURVE",
"557 531 OFFCURVE",
"587 532 CURVE",
"610 581 OFFCURVE",
"611 712 OFFCURVE",
"584 775 CURVE",
"524 770 OFFCURVE",
"403 760 OFFCURVE",
"304 760 CURVE SMOOTH",
"213 760 OFFCURVE",
"90 770 OFFCURVE",
"30 775 CURVE",
"1 712 OFFCURVE",
"1 582 OFFCURVE",
"26 533 CURVE",
"47 532 OFFCURVE",
"92 509 OFFCURVE",
"92 381 CURVE SMOOTH",
"92 263 OFFCURVE",
"56 233 OFFCURVE",
"26 222 CURVE",
"6 165 OFFCURVE",
"10 40 OFFCURVE",
"33 -17 CURVE"
);
}
);
width = 612;
}
);
leftKerningGroup = N;
rightKerningGroup = N;
unicode = 0049;
},
{
color = 5;
glyphname = Iacute;
layers = (
{
layerId = "863809E3-B3D3-4728-B9C6-73F0AB5A9F00";
paths = (
{
closed = 1;
nodes = (
"93 -12 OFFCURVE",
"209 -1 OFFCURVE",
"301 -1 CURVE SMOOTH",
"400 -1 OFFCURVE",
"521 -12 OFFCURVE",
"581 -17 CURVE",
"604 40 OFFCURVE",
"608 165 OFFCURVE",
"588 222 CURVE",
"558 233 OFFCURVE",
"522 263 OFFCURVE",
"522 381 CURVE SMOOTH",
"522 509 OFFCURVE",
"557 531 OFFCURVE",
"587 532 CURVE",
"610 581 OFFCURVE",
"611 712 OFFCURVE",
"584 775 CURVE",
"537 772 LINE",
"541 784 OFFCURVE",
"544 794 OFFCURVE",
"545 803 CURVE",
"511 846 OFFCURVE",
"403 877 OFFCURVE",
"299 877 CURVE SMOOTH",
"250 877 OFFCURVE",
"202 870 OFFCURVE",
"163 854 CURVE",
"88 748 OFFCURVE",
"86 615 OFFCURVE",
"144 546 CURVE",
"61 586 OFFCURVE",
"63 694 OFFCURVE",
"82 770 CURVE",
"62 772 OFFCURVE",
"47 774 OFFCURVE",
"30 775 CURVE",
"1 712 OFFCURVE",
"1 582 OFFCURVE",
"26 533 CURVE",
"47 532 OFFCURVE",
"92 509 OFFCURVE",
"92 381 CURVE SMOOTH",
"92 263 OFFCURVE",
"56 233 OFFCURVE",
"26 222 CURVE",
"6 165 OFFCURVE",
"10 40 OFFCURVE",
"33 -17 CURVE"
);
}
);
width = 612;
}
);
leftKerningGroup = N;
leftMetricsKey = "=I";
rightKerningGroup = N;
rightMetricsKey = "=I";
unicode = 00CD;
},
{
color = 5;
glyphname = Ibreve;
layers = (
{
layerId = "863809E3-B3D3-4728-B9C6-73F0AB5A9F00";
paths = (
{
closed = 1;
nodes = (
"93 -12 OFFCURVE",
"209 -1 OFFCURVE",
"301 -1 CURVE SMOOTH",
"400 -1 OFFCURVE",
"521 -12 OFFCURVE",
"581 -17 CURVE",
"604 40 OFFCURVE",
"608 165 OFFCURVE",
"588 222 CURVE",
"558 233 OFFCURVE",
"522 263 OFFCURVE",
"522 381 CURVE SMOOTH",
"522 509 OFFCURVE",
"557 531 OFFCURVE",
"587 532 CURVE",
"606 573 OFFCURVE",
"609 682 OFFCURVE",
"602 785 CURVE",
"602 804 OFFCURVE",
"600 825 OFFCURVE",
"597 847 CURVE",
"562 865 OFFCURVE",
"472 874 OFFCURVE",
"431 875 CURVE",
"411 845 OFFCURVE",
"370 830 OFFCURVE",
"310 830 CURVE SMOOTH",
"250 830 OFFCURVE",
"210 845 OFFCURVE",
"189 875 CURVE",
"144 874 OFFCURVE",
"46 865 OFFCURVE",
"11 847 CURVE",
"-8 727 OFFCURVE",
"44 618 OFFCURVE",
"139 562 CURVE",
"79 581 OFFCURVE",
"35 613 OFFCURVE",
"8 655 CURVE",
"6 611 OFFCURVE",
"12 560 OFFCURVE",
"26 533 CURVE",
"47 532 OFFCURVE",
"92 509 OFFCURVE",
"92 381 CURVE SMOOTH",
"92 263 OFFCURVE",
"56 233 OFFCURVE",
"26 222 CURVE",
"6 165 OFFCURVE",
"10 40 OFFCURVE",
"33 -17 CURVE"
);
}
);
width = 612;
}
);
leftKerningGroup = N;
rightKerningGroup = N;
unicode = 012C;
},
{
color = 5;
glyphname = Icircumflex;
layers = (
{
layerId = "863809E3-B3D3-4728-B9C6-73F0AB5A9F00";
paths = (
{
closed = 1;
nodes = (
"93 -12 OFFCURVE",
"209 -1 OFFCURVE",
"301 -1 CURVE SMOOTH",
"400 -1 OFFCURVE",
"521 -12 OFFCURVE",
"581 -17 CURVE",
"604 40 OFFCURVE",
"608 165 OFFCURVE",
"588 222 CURVE",
"558 233 OFFCURVE",
"522 263 OFFCURVE",
"522 381 CURVE SMOOTH",
"522 509 OFFCURVE",
"557 531 OFFCURVE",
"587 532 CURVE",
"595 548 OFFCURVE",
"600 574 OFFCURVE",
"600 602 CURVE SMOOTH",
"600 703 OFFCURVE",
"524 821 OFFCURVE",
"462 867 CURVE",
"433 872 OFFCURVE",
"372 875 OFFCURVE",
"308 875 CURVE SMOOTH",
"249 875 OFFCURVE",
"188 873 OFFCURVE",
"147 867 CURVE",
"68 815 OFFCURVE",
"0 687 OFFCURVE",
"9 549 CURVE",
"45 531 OFFCURVE",
"136 520 OFFCURVE",
"178 519 CURVE",
"148 502 OFFCURVE",
"105 501 OFFCURVE",
"66 505 CURVE",
"81 483 OFFCURVE",
"92 446 OFFCURVE",
"92 381 CURVE SMOOTH",
"92 263 OFFCURVE",
"56 233 OFFCURVE",
"26 222 CURVE",
"6 165 OFFCURVE",
"10 40 OFFCURVE",
"33 -17 CURVE"
);
}
);
width = 612;
}
);
leftKerningGroup = N;
leftMetricsKey = "=I";
rightKerningGroup = N;
unicode = 00CE;
},
{
color = 5;
glyphname = Idblgrave;
layers = (
{
layerId = "863809E3-B3D3-4728-B9C6-73F0AB5A9F00";
paths = (
{
closed = 1;
nodes = (
"93 -12 OFFCURVE",
"209 -1 OFFCURVE",
"301 -1 CURVE SMOOTH",
"400 -1 OFFCURVE",
"521 -12 OFFCURVE",
"581 -17 CURVE",
"604 40 OFFCURVE",
"608 165 OFFCURVE",
"588 222 CURVE",
"558 233 OFFCURVE",
"522 263 OFFCURVE",
"522 381 CURVE SMOOTH",
"522 509 OFFCURVE",
"557 531 OFFCURVE",
"586 532 CURVE",
"625 611 OFFCURVE",
"601 787 OFFCURVE",
"551 854 CURVE",
"520 870 OFFCURVE",
"485 877 OFFCURVE",
"449 877 CURVE SMOOTH",
"374 877 OFFCURVE",
"299 846 OFFCURVE",
"265 803 CURVE",
"274 835 OFFCURVE",
"301 864 OFFCURVE",
"322 872 CURVE",
"219 891 OFFCURVE",
"60 856 OFFCURVE",
"24 803 CURVE",
"41 705 OFFCURVE",
"122 599 OFFCURVE",
"202 543 CURVE",
"117 566 OFFCURVE",
"49 632 OFFCURVE",
"13 714 CURVE",
"3 649 OFFCURVE",
"8 568 OFFCURVE",
"26 533 CURVE",
"47 532 OFFCURVE",
"92 509 OFFCURVE",
"92 381 CURVE SMOOTH",
"92 263 OFFCURVE",
"56 233 OFFCURVE",
"26 222 CURVE",
"6 165 OFFCURVE",
"10 40 OFFCURVE",
"33 -17 CURVE"
);
}
);
width = 612;
}
);
leftKerningGroup = N;
rightKerningGroup = N;
unicode = 0208;
},
{
color = 5;
glyphname = Idieresis;
layers = (
{
layerId = "863809E3-B3D3-4728-B9C6-73F0AB5A9F00";
paths = (
{
closed = 1;
nodes = (
"93 -12 OFFCURVE",
"209 -1 OFFCURVE",
"301 -1 CURVE SMOOTH",
"400 -1 OFFCURVE",
"521 -12 OFFCURVE",
"581 -17 CURVE",
"604 40 OFFCURVE",
"608 165 OFFCURVE",
"588 222 CURVE",
"558 233 OFFCURVE",
"522 263 OFFCURVE",
"522 381 CURVE SMOOTH",
"522 509 OFFCURVE",
"557 531 OFFCURVE",
"587 532 CURVE",
"598 556 OFFCURVE",
"604 600 OFFCURVE",
"604 666 CURVE SMOOTH",
"604 773 OFFCURVE",
"545 876 OFFCURVE",
"407 876 CURVE SMOOTH",
"301 876 OFFCURVE",
"245 822 OFFCURVE",
"225 760 CURVE",
"218 795 OFFCURVE",
"231 838 OFFCURVE",
"275 867 CURVE",
"252 873 OFFCURVE",
"226 876 OFFCURVE",
"201 876 CURVE SMOOTH",
"93 876 OFFCURVE",
"8 811 OFFCURVE",
"8 703 CURVE SMOOTH",
"8 598 OFFCURVE",
"101 525 OFFCURVE",
"212 537 CURVE",
"167 521 OFFCURVE",
"100 521 OFFCURVE",
"54 535 CURVE",
"73 503 OFFCURVE",
"92 456 OFFCURVE",
"92 381 CURVE SMOOTH",
"92 263 OFFCURVE",
"56 233 OFFCURVE",
"26 222 CURVE",
"6 165 OFFCURVE",
"10 40 OFFCURVE",
"33 -17 CURVE"
);
}
);
width = 612;
}
);
leftKerningGroup = N;
leftMetricsKey = "=I";
rightKerningGroup = N;
rightMetricsKey = "=I";
unicode = 00CF;
},
{
color = 5;
glyphname = Idotaccent;
layers = (
{
layerId = "863809E3-B3D3-4728-B9C6-73F0AB5A9F00";
paths = (
{
closed = 1;
nodes = (
"93 -12 OFFCURVE",
"209 -1 OFFCURVE",
"301 -1 CURVE SMOOTH",
"400 -1 OFFCURVE",
"521 -12 OFFCURVE",
"581 -17 CURVE",
"604 40 OFFCURVE",
"608 165 OFFCURVE",
"588 222 CURVE",
"558 233 OFFCURVE",
"522 263 OFFCURVE",
"522 381 CURVE SMOOTH",
"522 509 OFFCURVE",
"557 531 OFFCURVE",
"587 532 CURVE",
"610 581 OFFCURVE",
"611 712 OFFCURVE",
"584 775 CURVE",
"566 774 OFFCURVE",
"548 772 OFFCURVE",
"526 770 CURVE",
"493 840 OFFCURVE",
"425 876 OFFCURVE",
"311 876 CURVE SMOOTH",
"155 876 OFFCURVE",
"102 788 OFFCURVE",
"102 707 CURVE SMOOTH",
"102 642 OFFCURVE",
"137 588 OFFCURVE",
"189 557 CURVE",
"99 571 OFFCURVE",
"44 650 OFFCURVE",
"73 772 CURVE",
"52 773 OFFCURVE",
"40 774 OFFCURVE",
"30 775 CURVE",
"1 712 OFFCURVE",
"1 582 OFFCURVE",
"26 533 CURVE",
"47 532 OFFCURVE",
"92 509 OFFCURVE",
"92 381 CURVE SMOOTH",
"92 263 OFFCURVE",
"56 233 OFFCURVE",
"26 222 CURVE",
"6 165 OFFCURVE",
"10 40 OFFCURVE",
"33 -17 CURVE"
);
}
);
width = 612;
}
);
leftKerningGroup = N;
leftMetricsKey = "=I";
rightKerningGroup = N;
rightMetricsKey = "=I";
unicode = 0130;
},
{
color = 5;
glyphname = Idotbelow;
layers = (
{
layerId = "863809E3-B3D3-4728-B9C6-73F0AB5A9F00";
paths = (
{
closed = 1;
nodes = (
"470 -173 OFFCURVE",
"527 -95 OFFCURVE",
"531 -13 CURVE",
"550 -14 OFFCURVE",
"567 -16 OFFCURVE",
"581 -17 CURVE",
"604 40 OFFCURVE",
"608 165 OFFCURVE",
"588 222 CURVE",
"558 233 OFFCURVE",
"522 263 OFFCURVE",
"522 381 CURVE SMOOTH",
"522 509 OFFCURVE",
"557 531 OFFCURVE",
"587 532 CURVE",
"610 581 OFFCURVE",
"611 712 OFFCURVE",
"584 775 CURVE",
"524 770 OFFCURVE",
"403 760 OFFCURVE",
"304 760 CURVE SMOOTH",
"213 760 OFFCURVE",
"90 770 OFFCURVE",
"30 775 CURVE",
"1 712 OFFCURVE",
"1 582 OFFCURVE",
"26 533 CURVE",
"47 532 OFFCURVE",
"92 509 OFFCURVE",
"92 381 CURVE SMOOTH",
"92 263 OFFCURVE",
"56 233 OFFCURVE",
"26 222 CURVE",
"6 165 OFFCURVE",
"10 40 OFFCURVE",
"33 -17 CURVE",
"40 -16 OFFCURVE",
"42 -16 OFFCURVE",
"60 -15 CURVE",
"60 56 OFFCURVE",
"100 146 OFFCURVE",
"191 151 CURVE",
"121 119 OFFCURVE",
"94 59 OFFCURVE",
"94 5 CURVE SMOOTH",
"94 -97 OFFCURVE",
"170 -173 OFFCURVE",
"316 -173 CURVE SMOOTH"
);
}
);
width = 612;
}
);
leftKerningGroup = N;
leftMetricsKey = "=I";
rightKerningGroup = N;
rightMetricsKey = "=I";
unicode = 1ECA;
},
{
color = 5;
glyphname = Igrave;
layers = (
{
layerId = "863809E3-B3D3-4728-B9C6-73F0AB5A9F00";
paths = (
{
closed = 1;
nodes = (
"93 -12 OFFCURVE",
"209 -1 OFFCURVE",
"301 -1 CURVE SMOOTH",
"400 -1 OFFCURVE",
"521 -12 OFFCURVE",
"581 -17 CURVE",
"604 40 OFFCURVE",
"608 165 OFFCURVE",
"588 222 CURVE",
"558 233 OFFCURVE",
"522 263 OFFCURVE",
"522 381 CURVE SMOOTH",
"522 509 OFFCURVE",
"557 531 OFFCURVE",
"587 532 CURVE",
"610 581 OFFCURVE",
"611 712 OFFCURVE",
"584 775 CURVE",
"552 772 OFFCURVE",
"503 768 OFFCURVE",
"449 765 CURVE",
"438 801 OFFCURVE",
"422 833 OFFCURVE",
"406 854 CURVE",
"367 870 OFFCURVE",
"319 877 OFFCURVE",
"270 877 CURVE SMOOTH",
"166 877 OFFCURVE",
"58 846 OFFCURVE",
"24 803 CURVE",
"41 705 OFFCURVE",
"122 599 OFFCURVE",
"202 543 CURVE",
"117 566 OFFCURVE",
"49 632 OFFCURVE",
"13 714 CURVE",
"3 649 OFFCURVE",
"8 568 OFFCURVE",
"26 533 CURVE",
"47 532 OFFCURVE",
"92 509 OFFCURVE",
"92 381 CURVE SMOOTH",
"92 263 OFFCURVE",
"56 233 OFFCURVE",
"26 222 CURVE",
"6 165 OFFCURVE",
"10 40 OFFCURVE",
"33 -17 CURVE"
);
}
);
width = 612;
}
);
leftKerningGroup = N;
leftMetricsKey = "=I";
rightKerningGroup = N;
rightMetricsKey = "=I";
unicode = 00CC;
},
{
color = 5;
glyphname = Ihookabove;
layers = (
{
layerId = "863809E3-B3D3-4728-B9C6-73F0AB5A9F00";
paths = (
{
closed = 1;
nodes = (
"93 -12 OFFCURVE",
"209 -1 OFFCURVE",
"301 -1 CURVE SMOOTH",
"400 -1 OFFCURVE",
"521 -12 OFFCURVE",
"581 -17 CURVE",
"604 40 OFFCURVE",
"608 165 OFFCURVE",
"588 222 CURVE",
"558 233 OFFCURVE",
"522 263 OFFCURVE",
"522 381 CURVE SMOOTH",
"522 509 OFFCURVE",
"557 531 OFFCURVE",
"587 532 CURVE",
"610 581 OFFCURVE",
"611 712 OFFCURVE",
"584 775 CURVE",
"570 774 OFFCURVE",
"553 772 OFFCURVE",
"533 771 CURVE",
"516 836 OFFCURVE",
"458 876 OFFCURVE",
"361 876 CURVE SMOOTH",
"260 876 OFFCURVE",
"184 861 OFFCURVE",
"100 856 CURVE",
"80 813 OFFCURVE",
"81 692 OFFCURVE",
"99 639 CURVE",
"134 644 OFFCURVE",
"166 630 OFFCURVE",
"181 588 CURVE",
"157 605 OFFCURVE",
"125 614 OFFCURVE",
"84 609 CURVE",
"66 632 OFFCURVE",
"52 698 OFFCURVE",
"55 773 CURVE",
"46 774 OFFCURVE",
"37 774 OFFCURVE",
"30 775 CURVE",
"1 712 OFFCURVE",
"1 582 OFFCURVE",
"26 533 CURVE",
"47 532 OFFCURVE",
"92 509 OFFCURVE",
"92 381 CURVE SMOOTH",
"92 263 OFFCURVE",
"56 233 OFFCURVE",
"26 222 CURVE",
"6 165 OFFCURVE",
"10 40 OFFCURVE",
"33 -17 CURVE"
);
}
);
width = 612;
}
);
leftKerningGroup = N;
leftMetricsKey = "=I";
rightKerningGroup = N;
rightMetricsKey = "=I";
unicode = 1EC8;
},
{
color = 5;
glyphname = Iinvertedbreve;
layers = (
{
layerId = "863809E3-B3D3-4728-B9C6-73F0AB5A9F00";
paths = (
{
closed = 1;
nodes = (
"93 -12 OFFCURVE",
"209 -1 OFFCURVE",
"301 -1 CURVE SMOOTH",
"400 -1 OFFCURVE",
"521 -12 OFFCURVE",
"581 -17 CURVE",
"604 40 OFFCURVE",
"608 165 OFFCURVE",
"588 222 CURVE",
"558 233 OFFCURVE",
"522 263 OFFCURVE",
"522 381 CURVE SMOOTH",
"522 509 OFFCURVE",
"557 531 OFFCURVE",
"599 550 CURVE",
"627 725 OFFCURVE",
"514 875 OFFCURVE",
"317 875 CURVE SMOOTH",
"92 875 OFFCURVE",
"-20 745 OFFCURVE",
"11 550 CURVE",
"46 532 OFFCURVE",
"138 523 OFFCURVE",
"179 522 CURVE",
"153 510 OFFCURVE",
"107 503 OFFCURVE",
"68 504 CURVE",
"81 482 OFFCURVE",
"92 444 OFFCURVE",
"92 381 CURVE SMOOTH",
"92 263 OFFCURVE",
"56 233 OFFCURVE",
"26 222 CURVE",
"6 165 OFFCURVE",
"10 40 OFFCURVE",
"33 -17 CURVE"
);
}
);
width = 612;
}
);
leftKerningGroup = N;
rightKerningGroup = N;
unicode = 020A;
},
{
color = 5;
glyphname = Imacron;
layers = (
{
layerId = "863809E3-B3D3-4728-B9C6-73F0AB5A9F00";
paths = (
{
closed = 1;
nodes = (
"93 -12 OFFCURVE",
"209 -1 OFFCURVE",
"301 -1 CURVE SMOOTH",
"400 -1 OFFCURVE",
"521 -12 OFFCURVE",
"581 -17 CURVE",
"604 40 OFFCURVE",
"608 165 OFFCURVE",
"588 222 CURVE",
"558 233 OFFCURVE",
"522 263 OFFCURVE",
"522 381 CURVE SMOOTH",
"522 509 OFFCURVE",
"557 531 OFFCURVE",
"587 532 CURVE",
"610 580 OFFCURVE",
"611 709 OFFCURVE",
"585 773 CURVE",
"583 805 OFFCURVE",
"581 838 OFFCURVE",
"576 854 CURVE",
"439 844 OFFCURVE",
"165 844 OFFCURVE",
"30 854 CURVE",
"18 798 OFFCURVE",
"1 658 OFFCURVE",
"12 590 CURVE",
"68 593 OFFCURVE",
"136 585 OFFCURVE",
"202 558 CURVE",
"17 559 LINE",
"19 549 OFFCURVE",
"22 541 OFFCURVE",
"26 533 CURVE",
"47 532 OFFCURVE",
"92 509 OFFCURVE",
"92 381 CURVE SMOOTH",
"92 263 OFFCURVE",
"56 233 OFFCURVE",
"26 222 CURVE",
"6 165 OFFCURVE",
"10 40 OFFCURVE",
"33 -17 CURVE"
);
}
);
width = 612;
}
);
leftKerningGroup = N;
leftMetricsKey = "=I";
rightKerningGroup = N;
rightMetricsKey = "=I";
unicode = 012A;
},
{
color = 5;
glyphname = Iogonek;
layers = (
{
layerId = "863809E3-B3D3-4728-B9C6-73F0AB5A9F00";
paths = (
{
closed = 1;
nodes = (
"440 -170 OFFCURVE",
"494 -153 OFFCURVE",
"583 -160 CURVE",
"605 -76 OFFCURVE",
"608 134 OFFCURVE",
"590 222 CURVE",
"558 233 OFFCURVE",
"522 263 OFFCURVE",
"522 381 CURVE SMOOTH",
"522 509 OFFCURVE",
"557 531 OFFCURVE",
"587 532 CURVE",
"610 581 OFFCURVE",
"611 712 OFFCURVE",
"584 775 CURVE",
"524 770 OFFCURVE",
"403 760 OFFCURVE",
"304 760 CURVE SMOOTH",
"213 760 OFFCURVE",
"90 770 OFFCURVE",
"30 775 CURVE",
"1 712 OFFCURVE",
"1 582 OFFCURVE",
"26 533 CURVE",
"47 532 OFFCURVE",
"92 509 OFFCURVE",
"92 381 CURVE SMOOTH",
"92 263 OFFCURVE",
"56 233 OFFCURVE",
"26 222 CURVE",
"6 165 OFFCURVE",
"10 40 OFFCURVE",
"33 -17 CURVE",
"115 -10 LINE",
"127 37 OFFCURVE",
"159 97 OFFCURVE",
"205 114 CURVE",
"164 55 OFFCURVE",
"151 5 OFFCURVE",
"151 -35 CURVE SMOOTH",
"151 -124 OFFCURVE",
"213 -170 OFFCURVE",
"329 -170 CURVE SMOOTH"
);
}
);
width = 612;
}
);
leftKerningGroup = N;
leftMetricsKey = "=I";
rightKerningGroup = N;
rightMetricsKey = "=I";
unicode = 012E;
},
{
color = 5;
glyphname = Itilde;
layers = (
{
layerId = "863809E3-B3D3-4728-B9C6-73F0AB5A9F00";
paths = (
{
closed = 1;
nodes = (
"93 -12 OFFCURVE",
"209 -1 OFFCURVE",
"301 -1 CURVE SMOOTH",
"400 -1 OFFCURVE",
"521 -12 OFFCURVE",
"581 -17 CURVE",
"604 40 OFFCURVE",
"608 165 OFFCURVE",
"588 222 CURVE",
"558 233 OFFCURVE",
"522 263 OFFCURVE",
"522 381 CURVE SMOOTH",
"522 509 OFFCURVE",
"557 531 OFFCURVE",
"587 532 CURVE",
"607 575 OFFCURVE",
"610 680 OFFCURVE",
"593 748 CURVE",
"595 772 OFFCURVE",
"596 798 OFFCURVE",
"596 827 CURVE",
"561 845 OFFCURVE",
"469 854 OFFCURVE",
"428 855 CURVE",
"414 834 OFFCURVE",
"391 821 OFFCURVE",
"355 821 CURVE SMOOTH",
"304 821 OFFCURVE",
"248 851 OFFCURVE",
"177 851 CURVE SMOOTH",
"63 851 OFFCURVE",
"8 785 OFFCURVE",
"8 566 CURVE",
"75 561 OFFCURVE",
"154 547 OFFCURVE",
"195 533 CURVE",
"26 533 LINE",
"47 532 OFFCURVE",
"92 509 OFFCURVE",
"92 381 CURVE SMOOTH",
"92 263 OFFCURVE",
"56 233 OFFCURVE",
"26 222 CURVE",
"6 165 OFFCURVE",
"10 40 OFFCURVE",
"33 -17 CURVE"
);
}
);
width = 612;
}
);
leftKerningGroup = N;
leftMetricsKey = "=I";
rightKerningGroup = N;
rightMetricsKey = "=I";
unicode = 0128;
},
{
color = 4;
glyphname = J;
layers = (
{
layerId = "863809E3-B3D3-4728-B9C6-73F0AB5A9F00";
paths = (
{
closed = 1;
nodes = (
"653 -34 OFFCURVE",
"806 47 OFFCURVE",
"806 252 CURVE SMOOTH",
"806 301 OFFCURVE",
"793 357 OFFCURVE",
"793 420 CURVE SMOOTH",
"793 517 OFFCURVE",
"828 531 OFFCURVE",
"858 532 CURVE",
"881 581 OFFCURVE",
"882 712 OFFCURVE",
"855 775 CURVE",
"795 770 OFFCURVE",
"674 760 OFFCURVE",
"565 760 CURVE SMOOTH",
"474 760 OFFCURVE",
"341 763 OFFCURVE",
"119 775 CURVE",
"90 712 OFFCURVE",
"90 582 OFFCURVE",
"115 533 CURVE",
"307 533 OFFCURVE",
"416 427 OFFCURVE",
"436 278 CURVE",
"409 273 LINE",
"377 450 OFFCURVE",
"281 459 OFFCURVE",
"213 459 CURVE SMOOTH",
"69 459 OFFCURVE",
"10 360 OFFCURVE",
"10 251 CURVE SMOOTH",
"10 71 OFFCURVE",
"151 -34 OFFCURVE",
"405 -34 CURVE SMOOTH"
);
}
);
width = 883;
}
);
leftKerningGroup = J;
rightKerningGroup = U;
unicode = 004A;
},
{
color = 5;
glyphname = Jacute;
layers = (
{
layerId = "863809E3-B3D3-4728-B9C6-73F0AB5A9F00";
paths = (
{
closed = 1;
nodes = (
"653 -34 OFFCURVE",
"806 47 OFFCURVE",
"806 252 CURVE SMOOTH",
"806 301 OFFCURVE",
"793 357 OFFCURVE",
"793 420 CURVE SMOOTH",
"793 517 OFFCURVE",
"828 531 OFFCURVE",
"858 532 CURVE",
"881 581 OFFCURVE",
"882 712 OFFCURVE",
"855 775 CURVE",
"823 772 OFFCURVE",
"781 768 OFFCURVE",
"731 765 CURVE",
"736 780 OFFCURVE",
"742 793 OFFCURVE",
"750 803 CURVE",
"716 846 OFFCURVE",
"608 877 OFFCURVE",
"504 877 CURVE SMOOTH",
"455 877 OFFCURVE",
"407 870 OFFCURVE",
"368 854 CURVE",
"311 773 OFFCURVE",
"296 677 OFFCURVE",
"318 604 CURVE",
"275 647 OFFCURVE",
"271 714 OFFCURVE",
"286 768 CURVE",
"238 770 OFFCURVE",
"173 772 OFFCURVE",
"119 775 CURVE",
"90 712 OFFCURVE",
"90 582 OFFCURVE",
"115 533 CURVE",
"307 533 OFFCURVE",
"416 427 OFFCURVE",
"436 278 CURVE",
"409 273 LINE",
"377 450 OFFCURVE",
"281 459 OFFCURVE",
"213 459 CURVE SMOOTH",
"69 459 OFFCURVE",
"10 360 OFFCURVE",
"10 251 CURVE SMOOTH",
"10 71 OFFCURVE",
"151 -34 OFFCURVE",
"405 -34 CURVE SMOOTH"
);
}
);
width = 883;
}
);
leftKerningGroup = J;
leftMetricsKey = "=J";
rightKerningGroup = U;
rightMetricsKey = "=J";
},
{
color = 5;
glyphname = Jcircumflex;
layers = (
{
layerId = "863809E3-B3D3-4728-B9C6-73F0AB5A9F00";
paths = (
{
closed = 1;
nodes = (
"653 -34 OFFCURVE",
"806 47 OFFCURVE",
"806 252 CURVE SMOOTH",
"806 301 OFFCURVE",
"793 357 OFFCURVE",
"793 420 CURVE SMOOTH",
"793 517 OFFCURVE",
"828 531 OFFCURVE",
"858 532 CURVE",
"881 581 OFFCURVE",
"882 712 OFFCURVE",
"855 775 CURVE",
"827 773 OFFCURVE",
"782 769 OFFCURVE",
"736 766 CURVE",
"709 810 OFFCURVE",
"676 846 OFFCURVE",
"646 867 CURVE",
"618 872 OFFCURVE",
"559 875 OFFCURVE",
"498 875 CURVE SMOOTH",
"442 875 OFFCURVE",
"383 873 OFFCURVE",
"344 867 CURVE",
"281 824 OFFCURVE",
"220 728 OFFCURVE",
"207 623 CURVE",
"196 674 OFFCURVE",
"201 735 OFFCURVE",
"221 770 CURVE",
"192 771 OFFCURVE",
"154 773 OFFCURVE",
"119 775 CURVE",
"90 712 OFFCURVE",
"90 582 OFFCURVE",
"115 533 CURVE",
"307 533 OFFCURVE",
"416 427 OFFCURVE",
"436 278 CURVE",
"409 273 LINE",
"377 450 OFFCURVE",
"281 459 OFFCURVE",
"213 459 CURVE SMOOTH",
"69 459 OFFCURVE",
"10 360 OFFCURVE",
"10 251 CURVE SMOOTH",
"10 71 OFFCURVE",
"151 -34 OFFCURVE",
"405 -34 CURVE SMOOTH"
);
}
);
width = 883;
}
);
leftKerningGroup = J;
leftMetricsKey = "=J";
rightKerningGroup = U;
rightMetricsKey = "=J";
unicode = 0134;
},
{
color = 4;
glyphname = K;
layers = (
{
layerId = "863809E3-B3D3-4728-B9C6-73F0AB5A9F00";
paths = (
{
closed = 1;
nodes = (
"91 -11 OFFCURVE",
"179 -1 OFFCURVE",
"313 -1 CURVE SMOOTH",
"432 -1 OFFCURVE",
"478 -12 OFFCURVE",
"533 -17 CURVE",
"548 40 OFFCURVE",
"551 175 OFFCURVE",
"540 222 CURVE",
"503 222 LINE",
"503 315 LINE",
"573 256 OFFCURVE",
"576 188 OFFCURVE",
"576 106 CURVE SMOOTH",
"576 71 OFFCURVE",
"573 31 OFFCURVE",
"569 -17 CURVE",
"624 -12 OFFCURVE",
"685 -1 OFFCURVE",
"872 -1 CURVE SMOOTH",
"970 -1 OFFCURVE",
"1032 -12 OFFCURVE",
"1087 -17 CURVE",
"1109 40 OFFCURVE",
"1112 165 OFFCURVE",
"1094 222 CURVE",
"1012 261 OFFCURVE",
"966 334 OFFCURVE",
"951 484 CURVE",
"983 512 OFFCURVE",
"1022 532 OFFCURVE",
"1079 536 CURVE",
"1097 593 OFFCURVE",
"1094 718 OFFCURVE",
"1072 775 CURVE",
"1007 769 OFFCURVE",
"965 759 OFFCURVE",
"857 759 CURVE SMOOTH",
"680 759 OFFCURVE",
"620 770 OFFCURVE",
"565 775 CURVE",
"570 721 OFFCURVE",
"574 675 OFFCURVE",
"574 635 CURVE SMOOTH",
"574 550 OFFCURVE",
"563 477 OFFCURVE",
"503 414 CURVE",
"504 517 LINE",
"537 517 LINE",
"550 566 OFFCURVE",
"549 712 OFFCURVE",
"532 775 CURVE",
"477 770 OFFCURVE",
"413 761 OFFCURVE",
"314 761 CURVE SMOOTH",
"200 761 OFFCURVE",
"84 770 OFFCURVE",
"29 775 CURVE",
"2 712 OFFCURVE",
"2 582 OFFCURVE",
"25 533 CURVE",
"49 532 OFFCURVE",
"91 509 OFFCURVE",
"91 381 CURVE SMOOTH",
"91 263 OFFCURVE",
"57 233 OFFCURVE",
"25 222 CURVE",
"7 165 OFFCURVE",
"10 40 OFFCURVE",
"32 -17 CURVE"
);
}
);
width = 1114;
}
);
leftKerningGroup = N;
rightKerningGroup = K;
unicode = 004B;
},
{
color = 5;
glyphname = Kcommaaccent;
layers = (
{
layerId = "863809E3-B3D3-4728-B9C6-73F0AB5A9F00";
paths = (
{
closed = 1;
nodes = (
"674 -128 OFFCURVE",
"734 -73 OFFCURVE",
"752 -4 CURVE",
"787 -2 OFFCURVE",
"822 -1 OFFCURVE",
"872 -1 CURVE SMOOTH",
"970 -1 OFFCURVE",
"1032 -12 OFFCURVE",
"1087 -17 CURVE",
"1109 40 OFFCURVE",
"1112 165 OFFCURVE",
"1094 222 CURVE",
"1012 261 OFFCURVE",
"966 334 OFFCURVE",
"951 484 CURVE",
"983 512 OFFCURVE",
"1022 532 OFFCURVE",
"1079 536 CURVE",
"1097 593 OFFCURVE",
"1094 718 OFFCURVE",
"1072 775 CURVE",
"1007 769 OFFCURVE",
"965 759 OFFCURVE",
"857 759 CURVE SMOOTH",
"680 759 OFFCURVE",
"620 770 OFFCURVE",
"565 775 CURVE",
"570 721 OFFCURVE",
"574 675 OFFCURVE",
"574 635 CURVE SMOOTH",
"574 550 OFFCURVE",
"563 477 OFFCURVE",
"503 414 CURVE",
"504 517 LINE",
"537 517 LINE",
"550 566 OFFCURVE",
"549 712 OFFCURVE",
"532 775 CURVE",
"477 770 OFFCURVE",
"413 761 OFFCURVE",
"314 761 CURVE SMOOTH",
"200 761 OFFCURVE",
"84 770 OFFCURVE",
"29 775 CURVE",
"2 712 OFFCURVE",
"2 582 OFFCURVE",
"25 533 CURVE",
"49 532 OFFCURVE",
"91 509 OFFCURVE",
"91 381 CURVE SMOOTH",
"91 263 OFFCURVE",
"57 233 OFFCURVE",
"25 222 CURVE",
"7 165 OFFCURVE",
"10 40 OFFCURVE",
"32 -17 CURVE",
"90 -11 OFFCURVE",
"173 -2 OFFCURVE",
"306 -2 CURVE",
"326 28 OFFCURVE",
"326 69 OFFCURVE",
"325 117 CURVE",
"378 -14 OFFCURVE",
"357 -95 OFFCURVE",
"343 -163 CURVE",
"380 -174 OFFCURVE",
"549 -177 OFFCURVE",
"588 -170 CURVE"
);
},
{
closed = 1;
nodes = (
"502 279 LINE",
"538 279 LINE",
"538 188 LINE",
"502 188 LINE"
);
}
);
width = 1114;
}
);
leftKerningGroup = N;
leftMetricsKey = "=K";
rightKerningGroup = K;
rightMetricsKey = "=K";
unicode = 0136;
},
{
color = 4;
glyphname = L;
layers = (
{
layerId = "863809E3-B3D3-4728-B9C6-73F0AB5A9F00";
paths = (
{
closed = 1;
nodes = (
"90 -11 OFFCURVE",
"309 -2 OFFCURVE",
"458 -2 CURVE SMOOTH",
"609 -2 OFFCURVE",
"754 -15 OFFCURVE",
"888 -17 CURVE",
"905 45 OFFCURVE",
"908 348 OFFCURVE",
"888 435 CURVE",
"794 451 OFFCURVE",
"650 451 OFFCURVE",
"559 435 CURVE",
"554 409 OFFCURVE",
"549 343 OFFCURVE",
"552 281 CURVE",
"523 281 LINE",
"523 385 LINE SMOOTH",
"523 453 OFFCURVE",
"529 516 OFFCURVE",
"577 516 CURVE",
"597 573 OFFCURVE",
"602 718 OFFCURVE",
"579 775 CURVE",
"529 770 OFFCURVE",
"419 760 OFFCURVE",
"329 760 CURVE SMOOTH",
"247 760 OFFCURVE",
"94 770 OFFCURVE",
"29 775 CURVE",
"3 718 OFFCURVE",
"1 590 OFFCURVE",
"25 533 CURVE",
"58 529 OFFCURVE",
"91 496 OFFCURVE",
"91 377 CURVE SMOOTH",
"91 253 OFFCURVE",
"49 230 OFFCURVE",
"25 222 CURVE",
"8 173 OFFCURVE",
"8 46 OFFCURVE",
"31 -17 CURVE"
);
}
);
width = 909;
}
);
leftKerningGroup = N;
rightKerningGroup = L;
unicode = 004C;
},
{
color = 5;
glyphname = Lacute;
layers = (
{
layerId = "863809E3-B3D3-4728-B9C6-73F0AB5A9F00";
paths = (
{
closed = 1;
nodes = (
"90 -11 OFFCURVE",
"309 -2 OFFCURVE",
"458 -2 CURVE SMOOTH",
"609 -2 OFFCURVE",
"754 -15 OFFCURVE",
"888 -17 CURVE",
"905 45 OFFCURVE",
"908 348 OFFCURVE",
"888 435 CURVE",
"794 451 OFFCURVE",
"650 451 OFFCURVE",
"559 435 CURVE",
"554 409 OFFCURVE",
"549 343 OFFCURVE",
"552 281 CURVE",
"523 281 LINE",
"523 385 LINE SMOOTH",
"523 453 OFFCURVE",
"529 516 OFFCURVE",
"577 516 CURVE",
"597 573 OFFCURVE",
"602 718 OFFCURVE",
"579 775 CURVE",
"575 775 OFFCURVE",
"567 774 OFFCURVE",
"557 774 CURVE",
"560 783 OFFCURVE",
"562 793 OFFCURVE",
"564 803 CURVE",
"530 846 OFFCURVE",
"422 877 OFFCURVE",
"318 877 CURVE SMOOTH",
"269 877 OFFCURVE",
"221 870 OFFCURVE",
"182 854 CURVE",
"120 760 OFFCURVE",
"109 643 OFFCURVE",
"148 570 CURVE",
"90 608 OFFCURVE",
"82 700 OFFCURVE",
"104 769 CURVE",
"72 771 OFFCURVE",
"51 773 OFFCURVE",
"29 775 CURVE",
"3 718 OFFCURVE",
"1 590 OFFCURVE",
"25 533 CURVE",
"58 529 OFFCURVE",
"91 496 OFFCURVE",
"91 377 CURVE SMOOTH",
"91 253 OFFCURVE",
"49 230 OFFCURVE",
"25 222 CURVE",
"8 173 OFFCURVE",
"8 46 OFFCURVE",
"31 -17 CURVE"
);
}
);
width = 909;
}
);
leftKerningGroup = N;
leftMetricsKey = "=L";
rightKerningGroup = L;
rightMetricsKey = "=L";
unicode = 0139;
},
{
color = 5;
glyphname = Lcaron;
layers = (
{
layerId = "863809E3-B3D3-4728-B9C6-73F0AB5A9F00";
paths = (
{
closed = 1;
nodes = (
"90 -11 OFFCURVE",
"309 -2 OFFCURVE",
"458 -2 CURVE SMOOTH",
"609 -2 OFFCURVE",
"754 -15 OFFCURVE",
"888 -17 CURVE",
"905 45 OFFCURVE",
"908 348 OFFCURVE",
"888 435 CURVE",
"794 451 OFFCURVE",
"650 451 OFFCURVE",
"559 435 CURVE",
"554 409 OFFCURVE",
"549 343 OFFCURVE",
"552 281 CURVE",
"523 281 LINE",
"523 493 LINE",
"581 483 OFFCURVE",
"704 492 OFFCURVE",
"724 506 CURVE",
"762 599 OFFCURVE",
"789 712 OFFCURVE",
"796 814 CURVE",
"768 842 OFFCURVE",
"686 857 OFFCURVE",
"606 857 CURVE SMOOTH",
"530 857 OFFCURVE",
"456 845 OFFCURVE",
"426 818 CURVE",
"409 769 OFFCURVE",
"408 656 OFFCURVE",
"415 596 CURVE",
"386 649 OFFCURVE",
"380 709 OFFCURVE",
"379 761 CURVE",
"259 760 OFFCURVE",
"173 762 OFFCURVE",
"29 775 CURVE",
"3 718 OFFCURVE",
"1 590 OFFCURVE",
"25 533 CURVE",
"58 529 OFFCURVE",
"91 496 OFFCURVE",
"91 377 CURVE SMOOTH",
"91 253 OFFCURVE",
"49 230 OFFCURVE",
"25 222 CURVE",
"8 173 OFFCURVE",
"8 46 OFFCURVE",
"31 -17 CURVE"
);
}
);
width = 909;
}
);
leftKerningGroup = N;
leftMetricsKey = "=L";
rightKerningGroup = L;
rightMetricsKey = "=L";
unicode = 013D;
},
{
color = 5;
glyphname = Lcommaaccent;
layers = (
{
layerId = "863809E3-B3D3-4728-B9C6-73F0AB5A9F00";
paths = (
{
closed = 1;
nodes = (
"564 -129 OFFCURVE",
"624 -74 OFFCURVE",
"643 -7 CURVE",
"727 -11 OFFCURVE",
"810 -16 OFFCURVE",
"888 -17 CURVE",
"905 45 OFFCURVE",
"908 348 OFFCURVE",
"888 435 CURVE",
"794 451 OFFCURVE",
"650 451 OFFCURVE",
"559 435 CURVE",
"554 409 OFFCURVE",
"549 343 OFFCURVE",
"552 281 CURVE",
"523 281 LINE",
"523 385 LINE SMOOTH",
"523 453 OFFCURVE",
"529 516 OFFCURVE",
"577 516 CURVE",
"597 573 OFFCURVE",
"602 718 OFFCURVE",
"579 775 CURVE",
"529 770 OFFCURVE",
"419 760 OFFCURVE",
"329 760 CURVE SMOOTH",
"247 760 OFFCURVE",
"94 770 OFFCURVE",
"29 775 CURVE",
"3 718 OFFCURVE",
"1 590 OFFCURVE",
"25 533 CURVE",
"58 529 OFFCURVE",
"91 496 OFFCURVE",
"91 377 CURVE SMOOTH",
"91 253 OFFCURVE",
"49 230 OFFCURVE",
"25 222 CURVE",
"8 173 OFFCURVE",
"8 46 OFFCURVE",
"31 -17 CURVE",
"59 -14 OFFCURVE",
"125 -11 OFFCURVE",
"195 -8 CURVE",
"217 24 OFFCURVE",
"217 69 OFFCURVE",
"216 117 CURVE",
"269 -14 OFFCURVE",
"248 -95 OFFCURVE",
"234 -163 CURVE",
"271 -174 OFFCURVE",
"440 -177 OFFCURVE",
"479 -170 CURVE"
);
}
);
width = 909;
}
);
leftKerningGroup = N;
leftMetricsKey = "=L";
rightKerningGroup = L;
rightMetricsKey = "=L";
unicode = 013B;
},
{
color = 4;
glyphname = Ldot;
layers = (
{
layerId = "863809E3-B3D3-4728-B9C6-73F0AB5A9F00";
paths = (
{
closed = 1;
nodes = (
"90 -11 OFFCURVE",
"309 -2 OFFCURVE",
"458 -2 CURVE SMOOTH",
"609 -2 OFFCURVE",
"754 -15 OFFCURVE",
"888 -17 CURVE",
"893 1 OFFCURVE",
"901 133 OFFCURVE",
"903 237 CURVE",
"947 269 OFFCURVE",
"969 317 OFFCURVE",
"969 382 CURVE SMOOTH",
"969 506 OFFCURVE",
"892 567 OFFCURVE",
"742 567 CURVE SMOOTH",
"671 567 OFFCURVE",
"617 552 OFFCURVE",
"579 524 CURVE",
"597 593 OFFCURVE",
"601 720 OFFCURVE",
"579 775 CURVE",
"529 770 OFFCURVE",
"419 760 OFFCURVE",
"329 760 CURVE SMOOTH",
"247 760 OFFCURVE",
"94 770 OFFCURVE",
"29 775 CURVE",
"3 718 OFFCURVE",
"1 590 OFFCURVE",
"25 533 CURVE",
"58 529 OFFCURVE",
"91 496 OFFCURVE",
"91 377 CURVE SMOOTH",
"91 253 OFFCURVE",
"49 230 OFFCURVE",
"25 222 CURVE",
"8 173 OFFCURVE",
"8 46 OFFCURVE",
"31 -17 CURVE"
);
},
{
closed = 1;
nodes = (
"774 195 OFFCURVE",
"804 198 OFFCURVE",
"831 205 CURVE",
"697 115 OFFCURVE",
"449 173 OFFCURVE",
"517 377 CURVE",
"519 255 OFFCURVE",
"594 195 OFFCURVE",
"739 195 CURVE SMOOTH"
);
}
);
width = 969;
}
);
leftKerningGroup = N;
rightKerningGroup = periodcentered;
unicode = 013F;
},
{
color = 5;
glyphname = Lslash;
layers = (
{
layerId = "863809E3-B3D3-4728-B9C6-73F0AB5A9F00";
paths = (
{
closed = 1;
nodes = (
"90 -11 OFFCURVE",
"309 -2 OFFCURVE",
"458 -2 CURVE SMOOTH",
"609 -2 OFFCURVE",
"754 -15 OFFCURVE",
"888 -17 CURVE",
"905 45 OFFCURVE",
"908 348 OFFCURVE",
"888 435 CURVE",
"850 441 OFFCURVE",
"804 445 OFFCURVE",
"757 447 CURVE",
"753 499 OFFCURVE",
"733 558 OFFCURVE",
"696 628 CURVE",
"660 616 OFFCURVE",
"625 604 OFFCURVE",
"591 593 CURVE",
"597 657 OFFCURVE",
"595 736 OFFCURVE",
"579 775 CURVE",
"529 770 OFFCURVE",
"419 760 OFFCURVE",
"329 760 CURVE SMOOTH",
"247 760 OFFCURVE",
"94 770 OFFCURVE",
"29 775 CURVE",
"3 718 OFFCURVE",
"1 590 OFFCURVE",
"25 533 CURVE",
"43 531 OFFCURVE",
"63 518 OFFCURVE",
"76 491 CURVE",
"174 505 LINE",
"144 477 OFFCURVE",
"116 464 OFFCURVE",
"23 448 CURVE",
"19 394 OFFCURVE",
"35 335 OFFCURVE",
"70 262 CURVE",
"56 235 OFFCURVE",
"38 226 OFFCURVE",
"25 222 CURVE",
"8 173 OFFCURVE",
"8 46 OFFCURVE",
"31 -17 CURVE"
);
},
{
closed = 1;
nodes = (
"523 365 LINE",
"552 365 LINE",
"552 281 LINE",
"523 281 LINE"
);
}
);
width = 909;
}
);
leftKerningGroup = Lslash;
leftMetricsKey = "=L";
rightKerningGroup = L;
rightMetricsKey = "=L";
unicode = 0141;
},
{
color = 4;
glyphname = M;
layers = (
{
layerId = "863809E3-B3D3-4728-B9C6-73F0AB5A9F00";
paths = (
{
closed = 1;
nodes = (
"79 -12 OFFCURVE",
"182 -1 OFFCURVE",
"330 -1 CURVE SMOOTH",
"432 -1 OFFCURVE",
"573 -12 OFFCURVE",
"625 -17 CURVE",
"646 126 OFFCURVE",
"589 145 OFFCURVE",
"527 173 CURVE SMOOTH",
"418 222 LINE",
"430 249 LINE",
"624 164 LINE",
"683 334 LINE",
"693 222 LINE",
"658 222 LINE",
"650 165 OFFCURVE",
"653 40 OFFCURVE",
"665 -17 CURVE",
"720 -12 OFFCURVE",
"830 -1 OFFCURVE",
"944 -1 CURVE SMOOTH",
"1062 -1 OFFCURVE",
"1136 -12 OFFCURVE",
"1191 -17 CURVE",
"1213 40 OFFCURVE",
"1216 165 OFFCURVE",
"1198 222 CURVE",
"1166 233 OFFCURVE",
"1131 263 OFFCURVE",
"1105 380 CURVE SMOOTH",
"1077 507 OFFCURVE",
"1128 532 OFFCURVE",
"1148 533 CURVE",
"1171 582 OFFCURVE",
"1171 712 OFFCURVE",
"1144 775 CURVE",
"1093 770 OFFCURVE",
"983 761 OFFCURVE",
"915 761 CURVE SMOOTH",
"811 761 OFFCURVE",
"749 770 OFFCURVE",
"666 775 CURVE",
"656 723 OFFCURVE",
"654 643 OFFCURVE",
"653 570 CURVE",
"617 641 OFFCURVE",
"617 724 OFFCURVE",
"625 775 CURVE",
"537 767 OFFCURVE",
"393 761 OFFCURVE",
"282 761 CURVE SMOOTH",
"190 761 OFFCURVE",
"117 769 OFFCURVE",
"66 775 CURVE",
"39 712 OFFCURVE",
"39 582 OFFCURVE",
"62 533 CURVE",
"82 532 OFFCURVE",
"135 507 OFFCURVE",
"114 378 CURVE SMOOTH",
"95 262 OFFCURVE",
"52 233 OFFCURVE",
"20 222 CURVE",
"2 165 OFFCURVE",
"5 40 OFFCURVE",
"27 -17 CURVE"
);
}
);
width = 1218;
}
);
leftKerningGroup = M;
rightKerningGroup = M;
unicode = 004D;
},
{
color = 4;
glyphname = N;
layers = (
{
layerId = "863809E3-B3D3-4728-B9C6-73F0AB5A9F00";
paths = (
{
closed = 1;
nodes = (
"87 -12 OFFCURVE",
"174 -1 OFFCURVE",
"255 -1 CURVE SMOOTH",
"341 -1 OFFCURVE",
"404 -12 OFFCURVE",
"448 -17 CURVE",
"473 98 OFFCURVE",
"461 157 OFFCURVE",
"375 215 CURVE",
"391 239 LINE",
"487 176 OFFCURVE",
"507 114 OFFCURVE",
"479 -17 CURVE",
"601 -12 OFFCURVE",
"701 -1 OFFCURVE",
"813 -1 CURVE SMOOTH",
"899 -1 OFFCURVE",
"986 -10 OFFCURVE",
"1039 -17 CURVE",
"1061 40 OFFCURVE",
"1064 165 OFFCURVE",
"1046 222 CURVE",
"1014 233 OFFCURVE",
"980 263 OFFCURVE",
"980 381 CURVE SMOOTH",
"980 509 OFFCURVE",
"1021 531 OFFCURVE",
"1045 532 CURVE",
"1066 581 OFFCURVE",
"1067 712 OFFCURVE",
"1042 775 CURVE",
"987 770 OFFCURVE",
"921 760 OFFCURVE",
"838 760 CURVE SMOOTH",
"744 760 OFFCURVE",
"673 773 OFFCURVE",
"616 775 CURVE",
"586 653 OFFCURVE",
"599 615 OFFCURVE",
"725 556 CURVE",
"712 530 LINE",
"573 596 OFFCURVE",
"553 643 OFFCURVE",
"586 775 CURVE",
"443 766 OFFCURVE",
"342 761 OFFCURVE",
"245 761 CURVE SMOOTH",
"177 761 OFFCURVE",
"84 770 OFFCURVE",
"29 775 CURVE",
"2 712 OFFCURVE",
"2 582 OFFCURVE",
"25 533 CURVE",
"49 532 OFFCURVE",
"91 509 OFFCURVE",
"91 381 CURVE SMOOTH",
"91 263 OFFCURVE",
"57 233 OFFCURVE",
"25 222 CURVE",
"7 165 OFFCURVE",
"10 40 OFFCURVE",
"32 -17 CURVE"
);
}
);
width = 1069;
}
);
leftKerningGroup = N;
rightKerningGroup = N;
unicode = 004E;
},
{
color = 5;
glyphname = Nacute;
layers = (
{
layerId = "863809E3-B3D3-4728-B9C6-73F0AB5A9F00";
paths = (
{
closed = 1;
nodes = (
"87 -12 OFFCURVE",
"174 -1 OFFCURVE",
"255 -1 CURVE SMOOTH",
"341 -1 OFFCURVE",
"404 -12 OFFCURVE",
"448 -17 CURVE",
"473 98 OFFCURVE",
"461 157 OFFCURVE",
"375 215 CURVE",
"391 239 LINE",
"487 176 OFFCURVE",
"507 114 OFFCURVE",
"479 -17 CURVE",
"601 -12 OFFCURVE",
"701 -1 OFFCURVE",
"813 -1 CURVE SMOOTH",
"899 -1 OFFCURVE",
"986 -10 OFFCURVE",
"1039 -17 CURVE",
"1061 40 OFFCURVE",
"1064 165 OFFCURVE",
"1046 222 CURVE",
"1014 233 OFFCURVE",
"980 263 OFFCURVE",
"980 381 CURVE SMOOTH",
"980 509 OFFCURVE",
"1021 531 OFFCURVE",
"1045 532 CURVE",
"1066 581 OFFCURVE",
"1067 712 OFFCURVE",
"1042 775 CURVE",
"987 770 OFFCURVE",
"921 760 OFFCURVE",
"838 760 CURVE SMOOTH",
"817 760 OFFCURVE",
"798 761 OFFCURVE",
"779 761 CURVE",
"784 777 OFFCURVE",
"788 792 OFFCURVE",
"790 803 CURVE",
"756 846 OFFCURVE",
"648 877 OFFCURVE",
"544 877 CURVE SMOOTH",
"495 877 OFFCURVE",
"447 870 OFFCURVE",
"408 854 CURVE",
"330 745 OFFCURVE",
"331 606 OFFCURVE",
"394 539 CURVE",
"301 573 OFFCURVE",
"306 683 OFFCURVE",
"323 762 CURVE",
"296 762 OFFCURVE",
"270 761 OFFCURVE",
"245 761 CURVE SMOOTH",
"177 761 OFFCURVE",
"84 770 OFFCURVE",
"29 775 CURVE",
"2 712 OFFCURVE",
"2 582 OFFCURVE",
"25 533 CURVE",
"49 532 OFFCURVE",
"91 509 OFFCURVE",
"91 381 CURVE SMOOTH",
"91 263 OFFCURVE",
"57 233 OFFCURVE",
"25 222 CURVE",
"7 165 OFFCURVE",
"10 40 OFFCURVE",
"32 -17 CURVE"
);
},
{
closed = 1;
nodes = (
"709 580 LINE",
"742 580 LINE",
"742 499 LINE",
"709 499 LINE"
);
}
);
width = 1069;
}
);
leftKerningGroup = N;
leftMetricsKey = "=N";
rightKerningGroup = N;
rightMetricsKey = "=N";
unicode = 0143;
},
{
color = 5;
glyphname = Ncaron;
layers = (
{
layerId = "863809E3-B3D3-4728-B9C6-73F0AB5A9F00";
paths = (
{
closed = 1;
nodes = (
"87 -12 OFFCURVE",
"174 -1 OFFCURVE",
"255 -1 CURVE SMOOTH",
"341 -1 OFFCURVE",
"404 -12 OFFCURVE",
"448 -17 CURVE",
"473 98 OFFCURVE",
"461 157 OFFCURVE",
"375 215 CURVE",
"391 239 LINE",
"487 176 OFFCURVE",
"507 114 OFFCURVE",
"479 -17 CURVE",
"601 -12 OFFCURVE",
"701 -1 OFFCURVE",
"813 -1 CURVE SMOOTH",
"899 -1 OFFCURVE",
"986 -10 OFFCURVE",
"1039 -17 CURVE",
"1061 40 OFFCURVE",
"1064 165 OFFCURVE",
"1046 222 CURVE",
"1014 233 OFFCURVE",
"980 263 OFFCURVE",
"980 381 CURVE SMOOTH",
"980 509 OFFCURVE",
"1021 531 OFFCURVE",
"1045 532 CURVE",
"1066 581 OFFCURVE",
"1067 712 OFFCURVE",
"1042 775 CURVE",
"994 771 OFFCURVE",
"937 762 OFFCURVE",
"868 760 CURVE",
"874 790 OFFCURVE",
"875 819 OFFCURVE",
"871 847 CURVE",
"836 865 OFFCURVE",
"738 874 OFFCURVE",
"693 875 CURVE",
"640 861 OFFCURVE",
"579 811 OFFCURVE",
"524 748 CURVE",
"499 765 LINE",
"517 785 OFFCURVE",
"535 804 OFFCURVE",
"553 821 CURVE",
"519 846 OFFCURVE",
"480 867 OFFCURVE",
"451 875 CURVE",
"410 874 OFFCURVE",
"318 865 OFFCURVE",
"283 847 CURVE",
"267 747 OFFCURVE",
"321 627 OFFCURVE",
"384 560 CURVE",
"312 591 OFFCURVE",
"251 688 OFFCURVE",
"247 761 CURVE",
"175 762 OFFCURVE",
"97 769 OFFCURVE",
"29 775 CURVE",
"2 712 OFFCURVE",
"2 582 OFFCURVE",
"25 533 CURVE",
"49 532 OFFCURVE",
"91 509 OFFCURVE",
"91 381 CURVE SMOOTH",
"91 263 OFFCURVE",
"57 233 OFFCURVE",
"25 222 CURVE",
"7 165 OFFCURVE",
"10 40 OFFCURVE",
"32 -17 CURVE"
);
},
{
closed = 1;
nodes = (
"709 550 LINE",
"742 550 LINE",
"742 499 LINE",
"709 499 LINE"
);
}
);
width = 1069;
}
);
leftKerningGroup = N;
leftMetricsKey = "=N";
rightKerningGroup = N;
rightMetricsKey = "=N";
unicode = 0147;
},
{
color = 5;
glyphname = Ncommaaccent;
layers = (
{
layerId = "863809E3-B3D3-4728-B9C6-73F0AB5A9F00";
paths = (
{
closed = 1;
nodes = (
"692 -128 OFFCURVE",
"752 -73 OFFCURVE",
"770 -4 CURVE",
"799 -2 OFFCURVE",
"817 -1 OFFCURVE",
"833 -1 CURVE SMOOTH",
"899 -1 OFFCURVE",
"986 -10 OFFCURVE",
"1039 -17 CURVE",
"1061 40 OFFCURVE",
"1064 165 OFFCURVE",
"1046 222 CURVE",
"1014 233 OFFCURVE",
"980 263 OFFCURVE",
"980 381 CURVE SMOOTH",
"980 509 OFFCURVE",
"1021 531 OFFCURVE",
"1045 532 CURVE",
"1066 581 OFFCURVE",
"1067 712 OFFCURVE",
"1042 775 CURVE",
"987 770 OFFCURVE",
"921 760 OFFCURVE",
"838 760 CURVE SMOOTH",
"744 760 OFFCURVE",
"673 773 OFFCURVE",
"616 775 CURVE",
"586 653 OFFCURVE",
"599 615 OFFCURVE",
"725 556 CURVE",
"712 530 LINE",
"573 596 OFFCURVE",
"553 643 OFFCURVE",
"586 775 CURVE",
"443 766 OFFCURVE",
"342 761 OFFCURVE",
"245 761 CURVE SMOOTH",
"177 761 OFFCURVE",
"84 770 OFFCURVE",
"29 775 CURVE",
"2 712 OFFCURVE",
"2 582 OFFCURVE",
"25 533 CURVE",
"49 532 OFFCURVE",
"91 509 OFFCURVE",
"91 381 CURVE SMOOTH",
"91 263 OFFCURVE",
"57 233 OFFCURVE",
"25 222 CURVE",
"7 165 OFFCURVE",
"10 40 OFFCURVE",
"32 -17 CURVE",
"148 -5 OFFCURVE",
"237 -2 OFFCURVE",
"329 -2 CURVE",
"340 29 OFFCURVE",
"341 108 OFFCURVE",
"336 177 CURVE",
"399 51 OFFCURVE",
"374 -100 OFFCURVE",
"361 -163 CURVE",
"385 -170 OFFCURVE",
"462 -174 OFFCURVE",
"525 -174 CURVE SMOOTH",
"561 -174 OFFCURVE",
"592 -173 OFFCURVE",
"606 -170 CURVE"
);
}
);
width = 1069;
}
);
leftKerningGroup = N;
leftMetricsKey = "=N";
rightKerningGroup = N;
rightMetricsKey = "=N";
unicode = 0145;
},
{
color = 5;
glyphname = Eng;
layers = (
{
layerId = "863809E3-B3D3-4728-B9C6-73F0AB5A9F00";
paths = (
{
closed = 1;
nodes = (
"851 -173 OFFCURVE",
"1023 -122 OFFCURVE",
"1023 81 CURVE SMOOTH",
"1023 204 OFFCURVE",
"980 250 OFFCURVE",
"980 391 CURVE SMOOTH",
"980 509 OFFCURVE",
"1021 531 OFFCURVE",
"1045 532 CURVE",
"1066 581 OFFCURVE",
"1067 712 OFFCURVE",
"1042 775 CURVE",
"987 770 OFFCURVE",
"921 760 OFFCURVE",
"838 760 CURVE SMOOTH",
"744 760 OFFCURVE",
"673 773 OFFCURVE",
"616 775 CURVE",
"586 653 OFFCURVE",
"599 615 OFFCURVE",
"725 556 CURVE",
"712 530 LINE",
"573 596 OFFCURVE",
"553 643 OFFCURVE",
"586 775 CURVE",
"443 766 OFFCURVE",
"342 761 OFFCURVE",
"245 761 CURVE SMOOTH",
"177 761 OFFCURVE",
"84 770 OFFCURVE",
"29 775 CURVE",
"2 712 OFFCURVE",
"2 582 OFFCURVE",
"25 533 CURVE",
"49 532 OFFCURVE",
"91 509 OFFCURVE",
"91 381 CURVE SMOOTH",
"91 263 OFFCURVE",
"57 233 OFFCURVE",
"25 222 CURVE",
"7 165 OFFCURVE",
"10 40 OFFCURVE",
"32 -17 CURVE",
"87 -12 OFFCURVE",
"174 -1 OFFCURVE",
"255 -1 CURVE SMOOTH",
"341 -1 OFFCURVE",
"404 -12 OFFCURVE",
"448 -17 CURVE",
"473 98 OFFCURVE",
"461 157 OFFCURVE",
"375 215 CURVE",
"391 239 LINE",
"486 178 OFFCURVE",
"506 119 OFFCURVE",
"480 0 CURVE SMOOTH",
"467 -60 OFFCURVE",
"463 -111 OFFCURVE",
"486 -167 CURVE",
"537 -172 OFFCURVE",
"585 -173 OFFCURVE",
"628 -173 CURVE SMOOTH"
);
}
);
width = 1069;
}
);
leftKerningGroup = N;
leftMetricsKey = "=N";
rightKerningGroup = Eng;
rightMetricsKey = "=N";
unicode = 014A;
},
{
color = 5;
glyphname = Nhookleft;
layers = (
{
layerId = "863809E3-B3D3-4728-B9C6-73F0AB5A9F00";
paths = (
{
closed = 1;
nodes = (
"336 -175 OFFCURVE",
"474 -121 OFFCURVE",
"474 14 CURVE SMOOTH",
"474 101 OFFCURVE",
"441 158 OFFCURVE",
"375 215 CURVE",
"394 237 LINE",
"470 171 OFFCURVE",
"503 104 OFFCURVE",
"503 14 CURVE SMOOTH",
"503 4 OFFCURVE",
"503 -6 OFFCURVE",
"502 -16 CURVE",
"614 -11 OFFCURVE",
"708 -1 OFFCURVE",
"813 -1 CURVE SMOOTH",
"899 -1 OFFCURVE",
"986 -10 OFFCURVE",
"1039 -17 CURVE",
"1061 40 OFFCURVE",
"1064 165 OFFCURVE",
"1046 222 CURVE",
"1014 233 OFFCURVE",
"980 263 OFFCURVE",
"980 381 CURVE SMOOTH",
"980 509 OFFCURVE",
"1021 531 OFFCURVE",
"1045 532 CURVE",
"1066 581 OFFCURVE",
"1067 712 OFFCURVE",
"1042 775 CURVE",
"987 770 OFFCURVE",
"921 760 OFFCURVE",
"838 760 CURVE SMOOTH",
"744 760 OFFCURVE",
"673 773 OFFCURVE",
"616 775 CURVE",
"586 653 OFFCURVE",
"599 615 OFFCURVE",
"725 556 CURVE",
"712 530 LINE",
"573 596 OFFCURVE",
"553 643 OFFCURVE",
"586 775 CURVE",
"443 766 OFFCURVE",
"342 761 OFFCURVE",
"245 761 CURVE SMOOTH",
"177 761 OFFCURVE",
"84 770 OFFCURVE",
"29 775 CURVE",
"2 712 OFFCURVE",
"2 582 OFFCURVE",
"25 533 CURVE",
"49 532 OFFCURVE",
"81 509 OFFCURVE",
"80 301 CURVE SMOOTH",
"79 101 OFFCURVE",
"40 40 OFFCURVE",
"2 0 CURVE",
"-19 -55 OFFCURVE",
"-17 -125 OFFCURVE",
"6 -167 CURVE",
"48 -172 OFFCURVE",
"96 -175 OFFCURVE",
"142 -175 CURVE SMOOTH"
);
}
);
width = 1069;
}
);
rightKerningGroup = N;
rightMetricsKey = "=N";
unicode = 019D;
},
{
color = 5;
glyphname = Ntilde;
layers = (
{
layerId = "863809E3-B3D3-4728-B9C6-73F0AB5A9F00";
paths = (
{
closed = 1;
nodes = (
"87 -12 OFFCURVE",
"174 -1 OFFCURVE",
"255 -1 CURVE SMOOTH",
"341 -1 OFFCURVE",
"404 -12 OFFCURVE",
"448 -17 CURVE",
"473 98 OFFCURVE",
"461 157 OFFCURVE",
"375 215 CURVE",
"391 239 LINE",
"487 176 OFFCURVE",
"507 114 OFFCURVE",
"479 -17 CURVE",
"601 -12 OFFCURVE",
"701 -1 OFFCURVE",
"813 -1 CURVE SMOOTH",
"899 -1 OFFCURVE",
"986 -10 OFFCURVE",
"1039 -17 CURVE",
"1061 40 OFFCURVE",
"1064 165 OFFCURVE",
"1046 222 CURVE",
"1014 233 OFFCURVE",
"980 263 OFFCURVE",
"980 381 CURVE SMOOTH",
"980 509 OFFCURVE",
"1021 531 OFFCURVE",
"1045 532 CURVE",
"1066 581 OFFCURVE",
"1067 712 OFFCURVE",
"1042 775 CURVE",
"987 770 OFFCURVE",
"921 760 OFFCURVE",
"838 760 CURVE SMOOTH",
"826 760 OFFCURVE",
"814 760 OFFCURVE",
"803 761 CURVE",
"804 781 OFFCURVE",
"805 803 OFFCURVE",
"805 827 CURVE",
"770 845 OFFCURVE",
"678 854 OFFCURVE",
"637 855 CURVE",
"623 834 OFFCURVE",
"600 821 OFFCURVE",
"564 821 CURVE SMOOTH",
"513 821 OFFCURVE",
"457 851 OFFCURVE",
"386 851 CURVE SMOOTH",
"276 851 OFFCURVE",
"221 774 OFFCURVE",
"217 575 CURVE",
"196 608 OFFCURVE",
"189 686 OFFCURVE",
"206 762 CURVE",
"145 764 OFFCURVE",
"74 771 OFFCURVE",
"29 775 CURVE",
"2 712 OFFCURVE",
"2 582 OFFCURVE",
"25 533 CURVE",
"49 532 OFFCURVE",
"91 509 OFFCURVE",
"91 381 CURVE SMOOTH",
"91 263 OFFCURVE",
"57 233 OFFCURVE",
"25 222 CURVE",
"7 165 OFFCURVE",
"10 40 OFFCURVE",
"32 -17 CURVE"
);
},
{
closed = 1;
nodes = (
"709 555 LINE",
"742 555 LINE",
"742 499 LINE",
"709 499 LINE"
);
}
);
width = 1069;
}
);
leftKerningGroup = N;
leftMetricsKey = "=N";
rightKerningGroup = N;
rightMetricsKey = "=N";
unicode = 00D1;
},
{
color = 4;
glyphname = O;
layers = (
{
layerId = "863809E3-B3D3-4728-B9C6-73F0AB5A9F00";
paths = (
{
closed = 1;
nodes = (
"827 -35 OFFCURVE",
"998 98 OFFCURVE",
"998 395 CURVE SMOOTH",
"998 658 OFFCURVE",
"844 795 OFFCURVE",
"500 795 CURVE SMOOTH",
"177 795 OFFCURVE",
"10 662 OFFCURVE",
"10 369 CURVE SMOOTH",
"10 102 OFFCURVE",
"175 -35 OFFCURVE",
"495 -35 CURVE SMOOTH"
);
},
{
closed = 1;
nodes = (
"473 445 LINE",
"534 445 LINE",
"534 316 LINE",
"473 316 LINE"
);
}
);
width = 1008;
}
);
leftKerningGroup = O;
rightKerningGroup = O;
unicode = 004F;
},
{
color = 5;
glyphname = Oacute;
layers = (
{
layerId = "863809E3-B3D3-4728-B9C6-73F0AB5A9F00";
paths = (
{
closed = 1;
nodes = (
"827 -35 OFFCURVE",
"998 98 OFFCURVE",
"998 395 CURVE SMOOTH",
"998 586 OFFCURVE",
"916 711 OFFCURVE",
"737 765 CURVE",
"742 779 OFFCURVE",
"745 793 OFFCURVE",
"747 803 CURVE",
"713 846 OFFCURVE",
"605 877 OFFCURVE",
"501 877 CURVE SMOOTH",
"452 877 OFFCURVE",
"404 870 OFFCURVE",
"365 854 CURVE",
"283 739 OFFCURVE",
"288 590 OFFCURVE",
"364 528 CURVE",
"245 570 OFFCURVE",
"261 709 OFFCURVE",
"280 768 CURVE",
"102 715 OFFCURVE",
"10 585 OFFCURVE",
"10 369 CURVE SMOOTH",
"10 102 OFFCURVE",
"175 -35 OFFCURVE",
"495 -35 CURVE SMOOTH"
);
},
{
closed = 1;
nodes = (
"473 445 LINE",
"534 445 LINE",
"534 316 LINE",
"473 316 LINE"
);
}
);
width = 1008;
}
);
leftKerningGroup = O;
leftMetricsKey = "=O";
rightKerningGroup = O;
rightMetricsKey = "=O";
unicode = 00D3;
},
{
color = 5;
glyphname = Obreve;
layers = (
{
layerId = "863809E3-B3D3-4728-B9C6-73F0AB5A9F00";
paths = (
{
closed = 1;
nodes = (
"827 -35 OFFCURVE",
"998 98 OFFCURVE",
"998 395 CURVE SMOOTH",
"998 564 OFFCURVE",
"935 681 OFFCURVE",
"798 743 CURVE",
"803 775 OFFCURVE",
"802 810 OFFCURVE",
"796 847 CURVE",
"761 865 OFFCURVE",
"669 874 OFFCURVE",
"628 875 CURVE",
"608 845 OFFCURVE",
"567 830 OFFCURVE",
"507 830 CURVE SMOOTH",
"447 830 OFFCURVE",
"407 845 OFFCURVE",
"386 875 CURVE",
"341 874 OFFCURVE",
"243 865 OFFCURVE",
"208 847 CURVE",
"188 720 OFFCURVE",
"242 606 OFFCURVE",
"348 553 CURVE",
"255 567 OFFCURVE",
"196 636 OFFCURVE",
"174 721 CURVE",
"65 653 OFFCURVE",
"10 538 OFFCURVE",
"10 369 CURVE SMOOTH",
"10 102 OFFCURVE",
"175 -35 OFFCURVE",
"495 -35 CURVE SMOOTH"
);
},
{
closed = 1;
nodes = (
"473 445 LINE",
"534 445 LINE",
"534 316 LINE",
"473 316 LINE"
);
}
);
width = 1008;
}
);
leftKerningGroup = O;
leftMetricsKey = "=O";
rightKerningGroup = O;
rightMetricsKey = "=O";
unicode = 014E;
},
{
color = 5;
glyphname = Ocircumflex;
layers = (
{
layerId = "863809E3-B3D3-4728-B9C6-73F0AB5A9F00";
paths = (
{
closed = 1;
nodes = (
"827 -35 OFFCURVE",
"998 98 OFFCURVE",
"998 395 CURVE SMOOTH",
"998 583 OFFCURVE",
"919 706 OFFCURVE",
"754 762 CURVE",
"726 807 OFFCURVE",
"692 845 OFFCURVE",
"660 867 CURVE",
"632 872 OFFCURVE",
"573 875 OFFCURVE",
"512 875 CURVE SMOOTH",
"455 875 OFFCURVE",
"397 873 OFFCURVE",
"358 867 CURVE",
"282 815 OFFCURVE",
"226 697 OFFCURVE",
"214 559 CURVE",
"192 595 OFFCURVE",
"195 685 OFFCURVE",
"210 741 CURVE",
"68 667 OFFCURVE",
"10 541 OFFCURVE",
"10 369 CURVE SMOOTH",
"10 102 OFFCURVE",
"175 -35 OFFCURVE",
"495 -35 CURVE SMOOTH"
);
},
{
closed = 1;
nodes = (
"473 445 LINE",
"534 445 LINE",
"534 316 LINE",
"473 316 LINE"
);
}
);
width = 1008;
}
);
leftKerningGroup = O;
leftMetricsKey = "=O";
rightKerningGroup = O;
rightMetricsKey = "=O";
unicode = 00D4;
},
{
color = 5;
glyphname = Ocircumflexacute;
layers = (
{
layerId = "863809E3-B3D3-4728-B9C6-73F0AB5A9F00";
paths = (
{
closed = 1;
nodes = (
"827 -35 OFFCURVE",
"998 98 OFFCURVE",
"998 395 CURVE SMOOTH",
"998 568 OFFCURVE",
"931 686 OFFCURVE",
"792 747 CURVE",
"834 811 OFFCURVE",
"853 856 OFFCURVE",
"856 887 CURVE",
"828 922 OFFCURVE",
"739 948 OFFCURVE",
"653 948 CURVE SMOOTH",
"612 948 OFFCURVE",
"572 943 OFFCURVE",
"540 929 CURVE",
"506 883 OFFCURVE",
"470 776 OFFCURVE",
"509 699 CURVE",
"465 734 OFFCURVE",
"453 797 OFFCURVE",
"474 875 CURVE",
"430 874 OFFCURVE",
"388 872 OFFCURVE",
"358 867 CURVE",
"282 815 OFFCURVE",
"226 697 OFFCURVE",
"214 559 CURVE",
"192 595 OFFCURVE",
"195 685 OFFCURVE",
"210 741 CURVE",
"68 667 OFFCURVE",
"10 541 OFFCURVE",
"10 369 CURVE SMOOTH",
"10 102 OFFCURVE",
"175 -35 OFFCURVE",
"495 -35 CURVE SMOOTH"
);
},
{
closed = 1;
nodes = (
"473 445 LINE",
"534 445 LINE",
"534 316 LINE",
"473 316 LINE"
);
}
);
width = 1008;
}
);
leftKerningGroup = O;
leftMetricsKey = "=O";
rightKerningGroup = O;
rightMetricsKey = "=O";
unicode = 1ED0;
},
{
color = 5;
glyphname = Ocircumflexdotbelow;
layers = (
{
layerId = "863809E3-B3D3-4728-B9C6-73F0AB5A9F00";
paths = (
{
closed = 1;
nodes = (
"666 -173 OFFCURVE",
"723 -91 OFFCURVE",
"724 -7 CURVE",
"905 47 OFFCURVE",
"998 176 OFFCURVE",
"998 395 CURVE SMOOTH",
"998 583 OFFCURVE",
"919 706 OFFCURVE",
"754 762 CURVE",
"726 807 OFFCURVE",
"692 845 OFFCURVE",
"660 867 CURVE",
"632 872 OFFCURVE",
"573 875 OFFCURVE",
"512 875 CURVE SMOOTH",
"455 875 OFFCURVE",
"397 873 OFFCURVE",
"358 867 CURVE",
"282 815 OFFCURVE",
"226 697 OFFCURVE",
"214 559 CURVE",
"189 594 OFFCURVE",
"197 684 OFFCURVE",
"210 741 CURVE",
"68 667 OFFCURVE",
"10 541 OFFCURVE",
"10 369 CURVE SMOOTH",
"10 180 OFFCURVE",
"93 57 OFFCURVE",
"254 0 CURVE",
"259 68 OFFCURVE",
"299 146 OFFCURVE",
"384 151 CURVE",
"314 119 OFFCURVE",
"287 59 OFFCURVE",
"287 5 CURVE SMOOTH",
"287 -97 OFFCURVE",
"363 -173 OFFCURVE",
"509 -173 CURVE SMOOTH"
);
},
{
closed = 1;
nodes = (
"473 445 LINE",
"534 445 LINE",
"534 316 LINE",
"473 316 LINE"
);
}
);
width = 1008;
}
);
leftKerningGroup = O;
leftMetricsKey = "=O";
rightKerningGroup = O;
rightMetricsKey = "=O";
unicode = 1ED8;
},
{
color = 5;
glyphname = Ocircumflexgrave;
layers = (
{
layerId = "863809E3-B3D3-4728-B9C6-73F0AB5A9F00";
paths = (
{
closed = 1;
nodes = (
"827 -35 OFFCURVE",
"998 98 OFFCURVE",
"998 395 CURVE SMOOTH",
"998 537 OFFCURVE",
"953 643 OFFCURVE",
"859 710 CURVE",
"893 786 OFFCURVE",
"858 890 OFFCURVE",
"824 934 CURVE",
"792 948 OFFCURVE",
"752 953 OFFCURVE",
"711 953 CURVE SMOOTH",
"625 953 OFFCURVE",
"536 927 OFFCURVE",
"508 892 CURVE",
"519 827 OFFCURVE",
"565 758 OFFCURVE",
"616 709 CURVE",
"543 731 OFFCURVE",
"495 797 OFFCURVE",
"474 875 CURVE",
"430 874 OFFCURVE",
"388 872 OFFCURVE",
"358 867 CURVE",
"282 815 OFFCURVE",
"226 697 OFFCURVE",
"214 559 CURVE",
"192 595 OFFCURVE",
"195 685 OFFCURVE",
"210 741 CURVE",
"68 667 OFFCURVE",
"10 541 OFFCURVE",
"10 369 CURVE SMOOTH",
"10 102 OFFCURVE",
"175 -35 OFFCURVE",
"495 -35 CURVE SMOOTH"
);
},
{
closed = 1;
nodes = (
"473 445 LINE",
"534 445 LINE",
"534 316 LINE",
"473 316 LINE"
);
}
);
width = 1008;
}
);
leftKerningGroup = O;
leftMetricsKey = "=O";
rightKerningGroup = O;
rightMetricsKey = "=O";
unicode = 1ED2;
},
{
color = 5;
glyphname = Ocircumflexhookabove;
layers = (
{
layerId = "863809E3-B3D3-4728-B9C6-73F0AB5A9F00";
paths = (
{
closed = 1;
nodes = (
"827 -35 OFFCURVE",
"998 98 OFFCURVE",
"998 395 CURVE SMOOTH",
"998 546 OFFCURVE",
"947 655 OFFCURVE",
"842 721 CURVE",
"866 766 OFFCURVE",
"874 802 OFFCURVE",
"874 832 CURVE SMOOTH",
"874 906 OFFCURVE",
"823 953 OFFCURVE",
"727 953 CURVE SMOOTH",
"644 953 OFFCURVE",
"581 941 OFFCURVE",
"512 937 CURVE",
"495 901 OFFCURVE",
"496 801 OFFCURVE",
"511 758 CURVE",
"537 761 OFFCURVE",
"562 752 OFFCURVE",
"576 723 CURVE",
"547 737 OFFCURVE",
"515 734 OFFCURVE",
"494 731 CURVE",
"477 763 OFFCURVE",
"468 819 OFFCURVE",
"471 875 CURVE",
"428 874 OFFCURVE",
"387 871 OFFCURVE",
"358 867 CURVE",
"282 815 OFFCURVE",
"226 697 OFFCURVE",
"214 559 CURVE",
"192 595 OFFCURVE",
"195 685 OFFCURVE",
"210 741 CURVE",
"68 667 OFFCURVE",
"10 541 OFFCURVE",
"10 369 CURVE SMOOTH",
"10 102 OFFCURVE",
"175 -35 OFFCURVE",
"495 -35 CURVE SMOOTH"
);
},
{
closed = 1;
nodes = (
"473 445 LINE",
"534 445 LINE",
"534 316 LINE",
"473 316 LINE"
);
}
);
width = 1008;
}
);
leftKerningGroup = O;
leftMetricsKey = "=O";
rightKerningGroup = O;
rightMetricsKey = "=O";
unicode = 1ED4;
},
{
color = 5;
glyphname = Ocircumflextilde;
layers = (
{
layerId = "863809E3-B3D3-4728-B9C6-73F0AB5A9F00";
paths = (
{
closed = 1;
nodes = (
"827 -35 OFFCURVE",
"998 98 OFFCURVE",
"998 395 CURVE SMOOTH",
"998 538 OFFCURVE",
"952 644 OFFCURVE",
"858 710 CURVE",
"894 744 OFFCURVE",
"911 813 OFFCURVE",
"911 928 CURVE",
"885 943 OFFCURVE",
"816 951 OFFCURVE",
"785 952 CURVE",
"775 934 OFFCURVE",
"758 923 OFFCURVE",
"730 923 CURVE SMOOTH",
"692 923 OFFCURVE",
"650 948 OFFCURVE",
"597 948 CURVE SMOOTH",
"518 948 OFFCURVE",
"477 891 OFFCURVE",
"471 747 CURVE",
"453 781 OFFCURVE",
"450 827 OFFCURVE",
"461 875 CURVE",
"422 874 OFFCURVE",
"386 871 OFFCURVE",
"358 867 CURVE",
"282 815 OFFCURVE",
"226 697 OFFCURVE",
"214 559 CURVE",
"192 595 OFFCURVE",
"195 685 OFFCURVE",
"210 741 CURVE",
"68 667 OFFCURVE",
"10 541 OFFCURVE",
"10 369 CURVE SMOOTH",
"10 102 OFFCURVE",
"175 -35 OFFCURVE",
"495 -35 CURVE SMOOTH"
);
},
{
closed = 1;
nodes = (
"473 445 LINE",
"534 445 LINE",
"534 316 LINE",
"473 316 LINE"
);
}
);
width = 1008;
}
);
leftKerningGroup = O;
leftMetricsKey = "=O";
rightKerningGroup = O;
rightMetricsKey = "=O";
unicode = 1ED6;
},
{
color = 5;
glyphname = Odblgrave;
layers = (
{
layerId = "863809E3-B3D3-4728-B9C6-73F0AB5A9F00";
paths = (
{
closed = 1;
nodes = (
"827 -35 OFFCURVE",
"998 98 OFFCURVE",
"998 395 CURVE SMOOTH",
"998 545 OFFCURVE",
"948 654 OFFCURVE",
"841 720 CURVE",
"831 774 OFFCURVE",
"809 825 OFFCURVE",
"787 854 CURVE",
"748 870 OFFCURVE",
"700 877 OFFCURVE",
"651 877 CURVE SMOOTH",
"547 877 OFFCURVE",
"439 846 OFFCURVE",
"405 803 CURVE",
"414 835 OFFCURVE",
"441 864 OFFCURVE",
"462 872 CURVE",
"439 876 OFFCURVE",
"415 877 OFFCURVE",
"391 877 CURVE SMOOTH",
"287 877 OFFCURVE",
"179 846 OFFCURVE",
"145 803 CURVE",
"160 712 OFFCURVE",
"231 615 OFFCURVE",
"304 557 CURVE",
"243 572 OFFCURVE",
"183 617 OFFCURVE",
"136 694 CURVE",
"53 623 OFFCURVE",
"10 517 OFFCURVE",
"10 369 CURVE SMOOTH",
"10 102 OFFCURVE",
"175 -35 OFFCURVE",
"495 -35 CURVE SMOOTH"
);
},
{
closed = 1;
nodes = (
"473 445 LINE",
"534 445 LINE",
"534 316 LINE",
"473 316 LINE"
);
}
);
width = 1008;
}
);
leftKerningGroup = O;
leftMetricsKey = "=O";
rightKerningGroup = O;
rightMetricsKey = "=O";
unicode = 020C;
},
{
color = 5;
glyphname = Odieresis;
layers = (
{
layerId = "863809E3-B3D3-4728-B9C6-73F0AB5A9F00";
paths = (
{
closed = 1;
nodes = (
"827 -35 OFFCURVE",
"998 98 OFFCURVE",
"998 395 CURVE SMOOTH",
"998 531 OFFCURVE",
"957 633 OFFCURVE",
"872 700 CURVE",
"871 791 OFFCURVE",
"813 876 OFFCURVE",
"656 876 CURVE SMOOTH",
"528 876 OFFCURVE",
"465 822 OFFCURVE",
"444 760 CURVE",
"436 795 OFFCURVE",
"448 837 OFFCURVE",
"492 866 CURVE",
"468 871 OFFCURVE",
"439 876 OFFCURVE",
"406 876 CURVE SMOOTH",
"241 876 OFFCURVE",
"186 786 OFFCURVE",
"186 707 CURVE SMOOTH",
"186 621 OFFCURVE",
"248 554 OFFCURVE",
"327 535 CURVE",
"227 531 OFFCURVE",
"149 593 OFFCURVE",
"142 699 CURVE",
"55 629 OFFCURVE",
"10 521 OFFCURVE",
"10 369 CURVE SMOOTH",
"10 102 OFFCURVE",
"175 -35 OFFCURVE",
"495 -35 CURVE SMOOTH"
);
},
{
closed = 1;
nodes = (
"473 445 LINE",
"534 445 LINE",
"534 316 LINE",
"473 316 LINE"
);
}
);
width = 1008;
}
);
leftKerningGroup = O;
leftMetricsKey = "=O";
rightKerningGroup = O;
rightMetricsKey = "=O";
unicode = 00D6;
},
{
color = 5;
glyphname = Odieresismacron;
layers = (
{
layerId = "863809E3-B3D3-4728-B9C6-73F0AB5A9F00";
paths = (
{
closed = 1;
nodes = (
"827 -35 OFFCURVE",
"998 98 OFFCURVE",
"998 395 CURVE SMOOTH",
"998 531 OFFCURVE",
"957 633 OFFCURVE",
"872 700 CURVE",
"871 771 OFFCURVE",
"836 838 OFFCURVE",
"747 864 CURVE",
"746 904 OFFCURVE",
"744 937 OFFCURVE",
"741 949 CURVE",
"628 941 OFFCURVE",
"423 941 OFFCURVE",
"310 949 CURVE",
"302 914 OFFCURVE",
"302 802 OFFCURVE",
"306 739 CURVE",
"286 769 OFFCURVE",
"275 806 OFFCURVE",
"269 846 CURVE",
"209 813 OFFCURVE",
"186 758 OFFCURVE",
"186 707 CURVE SMOOTH",
"186 621 OFFCURVE",
"248 554 OFFCURVE",
"327 535 CURVE",
"227 531 OFFCURVE",
"149 593 OFFCURVE",
"142 699 CURVE",
"55 629 OFFCURVE",
"10 521 OFFCURVE",
"10 369 CURVE SMOOTH",
"10 102 OFFCURVE",
"175 -35 OFFCURVE",
"495 -35 CURVE SMOOTH"
);
},
{
closed = 1;
nodes = (
"473 445 LINE",
"534 445 LINE",
"534 316 LINE",
"473 316 LINE"
);
}
);
width = 1008;
}
);
leftKerningGroup = O;
leftMetricsKey = "=O";
rightKerningGroup = O;
rightMetricsKey = "=O";
unicode = 022A;
},
{
color = 5;
glyphname = Odotaccentmacron;
layers = (
{
layerId = "863809E3-B3D3-4728-B9C6-73F0AB5A9F00";
paths = (
{
closed = 1;
nodes = (
"827 -35 OFFCURVE",
"998 98 OFFCURVE",
"998 395 CURVE SMOOTH",
"998 584 OFFCURVE",
"919 708 OFFCURVE",
"747 762 CURVE",
"749 832 OFFCURVE",
"747 927 OFFCURVE",
"741 949 CURVE",
"628 941 OFFCURVE",
"423 941 OFFCURVE",
"310 949 CURVE",
"300 905 OFFCURVE",
"304 743 OFFCURVE",
"309 703 CURVE SMOOTH",
"319 624 OFFCURVE",
"366 561 OFFCURVE",
"438 538 CURVE",
"333 542 OFFCURVE",
"240 624 OFFCURVE",
"269 764 CURVE",
"97 709 OFFCURVE",
"10 581 OFFCURVE",
"10 369 CURVE SMOOTH",
"10 102 OFFCURVE",
"175 -35 OFFCURVE",
"495 -35 CURVE SMOOTH"
);
},
{
closed = 1;
nodes = (
"473 445 LINE",
"534 445 LINE",
"534 316 LINE",
"473 316 LINE"
);
}
);
width = 1008;
}
);
leftKerningGroup = O;
leftMetricsKey = "=O";
rightKerningGroup = O;
rightMetricsKey = "=O";
unicode = 0230;
},
{
color = 5;
glyphname = Odotbelow;
layers = (
{
layerId = "863809E3-B3D3-4728-B9C6-73F0AB5A9F00";
paths = (
{
closed = 1;
nodes = (
"666 -173 OFFCURVE",
"723 -91 OFFCURVE",
"724 -7 CURVE",
"905 47 OFFCURVE",
"998 176 OFFCURVE",
"998 395 CURVE SMOOTH",
"998 658 OFFCURVE",
"844 795 OFFCURVE",
"500 795 CURVE SMOOTH",
"177 795 OFFCURVE",
"10 662 OFFCURVE",
"10 369 CURVE SMOOTH",
"10 180 OFFCURVE",
"93 57 OFFCURVE",
"254 0 CURVE",
"259 68 OFFCURVE",
"299 146 OFFCURVE",
"384 151 CURVE",
"314 119 OFFCURVE",
"287 59 OFFCURVE",
"287 5 CURVE SMOOTH",
"287 -97 OFFCURVE",
"363 -173 OFFCURVE",
"509 -173 CURVE SMOOTH"
);
},
{
closed = 1;
nodes = (
"473 445 LINE",
"534 445 LINE",
"534 316 LINE",
"473 316 LINE"
);
}
);
width = 1008;
}
);
leftKerningGroup = O;
leftMetricsKey = "=O";
rightKerningGroup = O;
rightMetricsKey = "=O";
unicode = 1ECC;
},
{
color = 5;
glyphname = Ograve;
layers = (
{
layerId = "863809E3-B3D3-4728-B9C6-73F0AB5A9F00";
paths = (
{
closed = 1;
nodes = (
"827 -35 OFFCURVE",
"998 98 OFFCURVE",
"998 395 CURVE SMOOTH",
"998 619 OFFCURVE",
"886 752 OFFCURVE",
"641 786 CURVE",
"630 813 OFFCURVE",
"618 837 OFFCURVE",
"605 854 CURVE",
"566 870 OFFCURVE",
"518 877 OFFCURVE",
"469 877 CURVE SMOOTH",
"365 877 OFFCURVE",
"257 846 OFFCURVE",
"223 803 CURVE",
"238 712 OFFCURVE",
"309 615 OFFCURVE",
"383 556 CURVE",
"298 580 OFFCURVE",
"237 642 OFFCURVE",
"197 735 CURVE",
"73 670 OFFCURVE",
"10 549 OFFCURVE",
"10 369 CURVE SMOOTH",
"10 102 OFFCURVE",
"175 -35 OFFCURVE",
"495 -35 CURVE SMOOTH"
);
},
{
closed = 1;
nodes = (
"473 445 LINE",
"534 445 LINE",
"534 316 LINE",
"473 316 LINE"
);
}
);
width = 1008;
}
);
leftKerningGroup = O;
leftMetricsKey = "=O";
rightKerningGroup = O;
rightMetricsKey = "=O";
unicode = 00D2;
},
{
color = 5;
glyphname = Ohookabove;
layers = (
{
layerId = "863809E3-B3D3-4728-B9C6-73F0AB5A9F00";
paths = (
{
closed = 1;
nodes = (
"827 -35 OFFCURVE",
"998 98 OFFCURVE",
"998 395 CURVE SMOOTH",
"998 593 OFFCURVE",
"911 720 OFFCURVE",
"720 770 CURVE",
"704 836 OFFCURVE",
"645 876 OFFCURVE",
"548 876 CURVE SMOOTH",
"447 876 OFFCURVE",
"371 861 OFFCURVE",
"287 856 CURVE",
"267 813 OFFCURVE",
"268 692 OFFCURVE",
"286 639 CURVE",
"321 644 OFFCURVE",
"353 630 OFFCURVE",
"368 588 CURVE",
"344 605 OFFCURVE",
"312 614 OFFCURVE",
"271 609 CURVE",
"254 630 OFFCURVE",
"241 687 OFFCURVE",
"242 755 CURVE",
"88 695 OFFCURVE",
"10 570 OFFCURVE",
"10 369 CURVE SMOOTH",
"10 102 OFFCURVE",
"175 -35 OFFCURVE",
"495 -35 CURVE SMOOTH"
);
},
{
closed = 1;
nodes = (
"473 445 LINE",
"534 445 LINE",
"534 316 LINE",
"473 316 LINE"
);
}
);
width = 1008;
}
);
leftKerningGroup = O;
leftMetricsKey = "=O";
rightKerningGroup = O;
rightMetricsKey = "=O";
unicode = 1ECE;
},
{
color = 5;
glyphname = Ohorn;
layers = (
{
layerId = "863809E3-B3D3-4728-B9C6-73F0AB5A9F00";
paths = (
{
closed = 1;
nodes = (
"827 -35 OFFCURVE",
"998 98 OFFCURVE",
"998 367 CURVE SMOOTH",
"998 456 OFFCURVE",
"948 524 OFFCURVE",
"857 503 CURVE",
"850 529 LINE",
"919 553 OFFCURVE",
"972 593 OFFCURVE",
"972 691 CURVE SMOOTH",
"972 751 OFFCURVE",
"954 817 OFFCURVE",
"933 854 CURVE",
"921 856 OFFCURVE",
"897 857 OFFCURVE",
"869 857 CURVE SMOOTH",
"808 857 OFFCURVE",
"727 853 OFFCURVE",
"702 845 CURVE",
"705 807 OFFCURVE",
"692 791 OFFCURVE",
"611 791 CURVE SMOOTH",
"580 791 OFFCURVE",
"542 795 OFFCURVE",
"500 795 CURVE SMOOTH",
"177 795 OFFCURVE",
"10 662 OFFCURVE",
"10 369 CURVE SMOOTH",
"10 102 OFFCURVE",
"175 -35 OFFCURVE",
"495 -35 CURVE SMOOTH"
);
},
{
closed = 1;
nodes = (
"473 445 LINE",
"534 445 LINE",
"534 316 LINE",
"473 316 LINE"
);
}
);
width = 1008;
}
);
leftKerningGroup = O;
leftMetricsKey = "=O";
rightKerningGroup = O;
rightMetricsKey = "=O";
unicode = 01A0;
},
{
color = 5;
glyphname = Ohornacute;
layers = (
{
layerId = "863809E3-B3D3-4728-B9C6-73F0AB5A9F00";
paths = (
{
closed = 1;
nodes = (
"827 -35 OFFCURVE",
"998 98 OFFCURVE",
"998 367 CURVE SMOOTH",
"998 456 OFFCURVE",
"948 524 OFFCURVE",
"857 503 CURVE",
"850 529 LINE",
"919 553 OFFCURVE",
"972 593 OFFCURVE",
"972 691 CURVE SMOOTH",
"972 751 OFFCURVE",
"954 817 OFFCURVE",
"933 854 CURVE",
"922 856 OFFCURVE",
"900 857 OFFCURVE",
"873 857 CURVE SMOOTH",
"815 857 OFFCURVE",
"737 853 OFFCURVE",
"715 845 CURVE",
"709 821 OFFCURVE",
"702 793 OFFCURVE",
"692 765 CURVE",
"665 775 LINE",
"673 796 OFFCURVE",
"680 824 OFFCURVE",
"685 844 CURVE",
"636 864 OFFCURVE",
"569 877 OFFCURVE",
"502 877 CURVE SMOOTH",
"453 877 OFFCURVE",
"405 870 OFFCURVE",
"365 854 CURVE",
"283 739 OFFCURVE",
"288 590 OFFCURVE",
"364 528 CURVE",
"245 570 OFFCURVE",
"261 709 OFFCURVE",
"280 768 CURVE",
"102 715 OFFCURVE",
"10 585 OFFCURVE",
"10 369 CURVE SMOOTH",
"10 102 OFFCURVE",
"175 -35 OFFCURVE",
"495 -35 CURVE SMOOTH"
);
},
{
closed = 1;
nodes = (
"473 445 LINE",
"534 445 LINE",
"534 316 LINE",
"473 316 LINE"
);
}
);
width = 1008;
},
{
associatedMasterId = "863809E3-B3D3-4728-B9C6-73F0AB5A9F00";
background = {
paths = (
{
closed = 0;
nodes = (
"495 -35 LINE SMOOTH",
"827 -35 OFFCURVE",
"998 98 OFFCURVE",
"998 367 CURVE SMOOTH",
"998 456 OFFCURVE",
"948 520 OFFCURVE",
"857 499 CURVE",
"851 529 LINE",
"919 553 OFFCURVE",
"972 593 OFFCURVE",
"972 691 CURVE SMOOTH",
"972 751 OFFCURVE",
"954 817 OFFCURVE",
"933 854 CURVE",
"895 861 OFFCURVE",
"738 856 OFFCURVE",
"702 845 CURVE",
"705 807 OFFCURVE",
"692 791 OFFCURVE",
"611 791 CURVE SMOOTH"
);
}
);
};
layerId = "256EC779-68FC-4A71-8FDF-29456B9B1920";
name = "Dec 9 20, 19:57";
paths = (
{
closed = 1;
nodes = (
"827 -35 OFFCURVE",
"998 98 OFFCURVE",
"998 395 CURVE SMOOTH",
"998 452 OFFCURVE",
"991 503 OFFCURVE",
"976 549 CURVE",
"949 526 OFFCURVE",
"910 510 OFFCURVE",
"857 499 CURVE",
"851 529 LINE",
"948 549 OFFCURVE",
"998 593 OFFCURVE",
"998 688 CURVE SMOOTH",
"998 751 OFFCURVE",
"980 817 OFFCURVE",
"959 854 CURVE",
"921 861 OFFCURVE",
"751 856 OFFCURVE",
"715 845 CURVE",
"709 821 OFFCURVE",
"702 793 OFFCURVE",
"692 765 CURVE",
"665 775 LINE",
"673 796 OFFCURVE",
"680 824 OFFCURVE",
"685 844 CURVE",
"600 879 OFFCURVE",
"458 891 OFFCURVE",
"365 854 CURVE",
"283 739 OFFCURVE",
"288 590 OFFCURVE",
"364 528 CURVE",
"245 570 OFFCURVE",
"261 709 OFFCURVE",
"280 768 CURVE",
"102 715 OFFCURVE",
"10 585 OFFCURVE",
"10 369 CURVE SMOOTH",
"10 102 OFFCURVE",
"175 -35 OFFCURVE",
"495 -35 CURVE SMOOTH"
);
},
{
closed = 1;
nodes = (
"473 445 LINE",
"534 445 LINE",
"534 316 LINE",
"473 316 LINE"
);
}
);
width = 1008;
}
);
leftKerningGroup = O;
leftMetricsKey = "=O";
rightKerningGroup = O;
rightMetricsKey = "=O";
unicode = 1EDA;
},
{
color = 5;
glyphname = Ohorndotbelow;
layers = (
{
layerId = "863809E3-B3D3-4728-B9C6-73F0AB5A9F00";
paths = (
{
closed = 1;
nodes = (
"666 -173 OFFCURVE",
"723 -91 OFFCURVE",
"724 -7 CURVE",
"905 45 OFFCURVE",
"998 169 OFFCURVE",
"998 367 CURVE SMOOTH",
"998 456 OFFCURVE",
"948 524 OFFCURVE",
"857 503 CURVE",
"850 529 LINE",
"919 553 OFFCURVE",
"972 593 OFFCURVE",
"972 691 CURVE SMOOTH",
"972 751 OFFCURVE",
"954 817 OFFCURVE",
"933 854 CURVE",
"921 856 OFFCURVE",
"897 857 OFFCURVE",
"869 857 CURVE SMOOTH",
"808 857 OFFCURVE",
"727 853 OFFCURVE",
"702 845 CURVE",
"705 807 OFFCURVE",
"692 791 OFFCURVE",
"611 791 CURVE SMOOTH",
"580 791 OFFCURVE",
"542 795 OFFCURVE",
"500 795 CURVE SMOOTH",
"177 795 OFFCURVE",
"10 662 OFFCURVE",
"10 369 CURVE SMOOTH",
"10 180 OFFCURVE",
"93 57 OFFCURVE",
"254 0 CURVE",
"259 68 OFFCURVE",
"299 146 OFFCURVE",
"384 151 CURVE",
"314 119 OFFCURVE",
"287 59 OFFCURVE",
"287 5 CURVE SMOOTH",
"287 -97 OFFCURVE",
"363 -173 OFFCURVE",
"509 -173 CURVE SMOOTH"
);
},
{
closed = 1;
nodes = (
"473 445 LINE",
"534 445 LINE",
"534 316 LINE",
"473 316 LINE"
);
}
);
width = 1008;
},
{
associatedMasterId = "863809E3-B3D3-4728-B9C6-73F0AB5A9F00";
background = {
paths = (
{
closed = 0;
nodes = (
"495 -35 LINE SMOOTH",
"827 -35 OFFCURVE",
"998 98 OFFCURVE",
"998 367 CURVE SMOOTH",
"998 456 OFFCURVE",
"948 520 OFFCURVE",
"857 499 CURVE",
"851 529 LINE",
"919 553 OFFCURVE",
"972 593 OFFCURVE",
"972 691 CURVE SMOOTH",
"972 751 OFFCURVE",
"954 817 OFFCURVE",
"933 854 CURVE",
"895 861 OFFCURVE",
"738 856 OFFCURVE",
"702 845 CURVE",
"705 807 OFFCURVE",
"692 791 OFFCURVE",
"611 791 CURVE SMOOTH"
);
}
);
};
layerId = "AF4B9F9C-CFC3-47F1-9322-AECF3F74F8B5";
name = "Dec 9 20, 19:58";
paths = (
{
closed = 1;
nodes = (
"666 -173 OFFCURVE",
"723 -91 OFFCURVE",
"724 -7 CURVE",
"905 47 OFFCURVE",
"998 176 OFFCURVE",
"998 395 CURVE SMOOTH",
"998 452 OFFCURVE",
"991 503 OFFCURVE",
"976 549 CURVE",
"949 526 OFFCURVE",
"910 510 OFFCURVE",
"857 499 CURVE",
"851 529 LINE",
"948 548 OFFCURVE",
"998 593 OFFCURVE",
"998 688 CURVE SMOOTH",
"998 751 OFFCURVE",
"971 834 OFFCURVE",
"930 884 CURVE",
"891 891 OFFCURVE",
"722 886 OFFCURVE",
"685 875 CURVE",
"693 804 OFFCURVE",
"663 791 OFFCURVE",
"611 791 CURVE SMOOTH",
"580 791 OFFCURVE",
"542 795 OFFCURVE",
"500 795 CURVE SMOOTH",
"177 795 OFFCURVE",
"10 662 OFFCURVE",
"10 369 CURVE SMOOTH",
"10 180 OFFCURVE",
"93 57 OFFCURVE",
"254 0 CURVE",
"259 68 OFFCURVE",
"299 146 OFFCURVE",
"384 151 CURVE",
"314 119 OFFCURVE",
"287 59 OFFCURVE",
"287 5 CURVE SMOOTH",
"287 -97 OFFCURVE",
"363 -173 OFFCURVE",
"509 -173 CURVE SMOOTH"
);
},
{
closed = 1;
nodes = (
"473 445 LINE",
"534 445 LINE",
"534 316 LINE",
"473 316 LINE"
);
}
);
width = 1008;
}
);
leftKerningGroup = O;
leftMetricsKey = "=O";
rightKerningGroup = O;
rightMetricsKey = "=O";
unicode = 1EE2;
},
{
color = 5;
glyphname = Ohorngrave;
layers = (
{
layerId = "863809E3-B3D3-4728-B9C6-73F0AB5A9F00";
paths = (
{
closed = 1;
nodes = (
"827 -35 OFFCURVE",
"998 98 OFFCURVE",
"998 367 CURVE SMOOTH",
"998 456 OFFCURVE",
"948 524 OFFCURVE",
"857 503 CURVE",
"850 529 LINE",
"919 553 OFFCURVE",
"972 593 OFFCURVE",
"972 691 CURVE SMOOTH",
"972 751 OFFCURVE",
"954 817 OFFCURVE",
"933 854 CURVE",
"921 856 OFFCURVE",
"897 857 OFFCURVE",
"869 857 CURVE SMOOTH",
"808 857 OFFCURVE",
"727 853 OFFCURVE",
"702 845 CURVE",
"705 807 OFFCURVE",
"684 792 OFFCURVE",
"639 792 CURVE",
"628 817 OFFCURVE",
"617 838 OFFCURVE",
"605 854 CURVE",
"566 870 OFFCURVE",
"518 877 OFFCURVE",
"469 877 CURVE SMOOTH",
"365 877 OFFCURVE",
"257 846 OFFCURVE",
"223 803 CURVE",
"238 712 OFFCURVE",
"309 615 OFFCURVE",
"383 556 CURVE",
"298 580 OFFCURVE",
"237 642 OFFCURVE",
"197 735 CURVE",
"73 670 OFFCURVE",
"10 549 OFFCURVE",
"10 369 CURVE SMOOTH",
"10 102 OFFCURVE",
"175 -35 OFFCURVE",
"495 -35 CURVE SMOOTH"
);
},
{
closed = 1;
nodes = (
"473 445 LINE",
"534 445 LINE",
"534 316 LINE",
"473 316 LINE"
);
}
);
width = 1008;
},
{
associatedMasterId = "863809E3-B3D3-4728-B9C6-73F0AB5A9F00";
background = {
paths = (
{
closed = 0;
nodes = (
"495 -35 LINE SMOOTH",
"827 -35 OFFCURVE",
"998 98 OFFCURVE",
"998 367 CURVE SMOOTH",
"998 456 OFFCURVE",
"948 520 OFFCURVE",
"857 499 CURVE",
"851 529 LINE",
"919 553 OFFCURVE",
"972 593 OFFCURVE",
"972 691 CURVE SMOOTH",
"972 751 OFFCURVE",
"954 817 OFFCURVE",
"933 854 CURVE",
"895 861 OFFCURVE",
"738 856 OFFCURVE",
"702 845 CURVE",
"705 807 OFFCURVE",
"692 791 OFFCURVE",
"611 791 CURVE SMOOTH"
);
}
);
};
layerId = "D580CB84-7639-4397-A75B-7C7440988E6B";
name = "Dec 9 20, 19:58";
paths = (
{
closed = 1;
nodes = (
"827 -35 OFFCURVE",
"998 98 OFFCURVE",
"998 395 CURVE SMOOTH",
"998 452 OFFCURVE",
"991 503 OFFCURVE",
"976 549 CURVE",
"949 526 OFFCURVE",
"910 510 OFFCURVE",
"857 499 CURVE",
"851 529 LINE",
"948 549 OFFCURVE",
"998 593 OFFCURVE",
"998 688 CURVE SMOOTH",
"998 751 OFFCURVE",
"980 817 OFFCURVE",
"959 854 CURVE",
"921 861 OFFCURVE",
"751 856 OFFCURVE",
"715 845 CURVE",
"718 807 OFFCURVE",
"705 791 OFFCURVE",
"639 792 CURVE",
"628 817 OFFCURVE",
"617 838 OFFCURVE",
"605 854 CURVE",
"483 904 OFFCURVE",
"273 866 OFFCURVE",
"223 803 CURVE",
"238 712 OFFCURVE",
"309 615 OFFCURVE",
"383 556 CURVE",
"298 580 OFFCURVE",
"237 642 OFFCURVE",
"197 735 CURVE",
"73 670 OFFCURVE",
"10 549 OFFCURVE",
"10 369 CURVE SMOOTH",
"10 102 OFFCURVE",
"175 -35 OFFCURVE",
"495 -35 CURVE SMOOTH"
);
},
{
closed = 1;
nodes = (
"473 445 LINE",
"534 445 LINE",
"534 316 LINE",
"473 316 LINE"
);
}
);
width = 1008;
}
);
leftKerningGroup = O;
leftMetricsKey = "=O";
rightKerningGroup = O;
rightMetricsKey = "=O";
unicode = 1EDC;
},
{
color = 5;
glyphname = Ohornhookabove;
layers = (
{
layerId = "863809E3-B3D3-4728-B9C6-73F0AB5A9F00";
paths = (
{
closed = 1;
nodes = (
"827 -35 OFFCURVE",
"998 98 OFFCURVE",
"998 367 CURVE SMOOTH",
"998 456 OFFCURVE",
"948 524 OFFCURVE",
"857 503 CURVE",
"850 529 LINE",
"919 553 OFFCURVE",
"972 593 OFFCURVE",
"972 691 CURVE SMOOTH",
"972 751 OFFCURVE",
"954 817 OFFCURVE",
"933 854 CURVE",
"921 856 OFFCURVE",
"897 857 OFFCURVE",
"869 857 CURVE SMOOTH",
"808 857 OFFCURVE",
"727 853 OFFCURVE",
"702 845 CURVE",
"704 820 OFFCURVE",
"698 804 OFFCURVE",
"670 797 CURVE",
"649 847 OFFCURVE",
"598 876 OFFCURVE",
"523 876 CURVE SMOOTH",
"432 876 OFFCURVE",
"363 861 OFFCURVE",
"287 856 CURVE",
"267 813 OFFCURVE",
"268 692 OFFCURVE",
"286 639 CURVE",
"321 644 OFFCURVE",
"353 630 OFFCURVE",
"368 588 CURVE",
"344 605 OFFCURVE",
"312 614 OFFCURVE",
"271 609 CURVE",
"254 630 OFFCURVE",
"241 687 OFFCURVE",
"242 755 CURVE",
"88 695 OFFCURVE",
"10 570 OFFCURVE",
"10 369 CURVE SMOOTH",
"10 102 OFFCURVE",
"175 -35 OFFCURVE",
"495 -35 CURVE SMOOTH"
);
},
{
closed = 1;
nodes = (
"473 445 LINE",
"534 445 LINE",
"534 316 LINE",
"473 316 LINE"
);
}
);
width = 1008;
},
{
associatedMasterId = "863809E3-B3D3-4728-B9C6-73F0AB5A9F00";
background = {
paths = (
{
closed = 0;
nodes = (
"495 -35 LINE SMOOTH",
"827 -35 OFFCURVE",
"998 98 OFFCURVE",
"998 367 CURVE SMOOTH",
"998 456 OFFCURVE",
"948 520 OFFCURVE",
"857 499 CURVE",
"851 529 LINE",
"919 553 OFFCURVE",
"972 593 OFFCURVE",
"972 691 CURVE SMOOTH",
"972 751 OFFCURVE",
"954 817 OFFCURVE",
"933 854 CURVE",
"895 861 OFFCURVE",
"738 856 OFFCURVE",
"702 845 CURVE",
"705 807 OFFCURVE",
"692 791 OFFCURVE",
"611 791 CURVE SMOOTH"
);
}
);
};
layerId = "5467D28A-45B5-4727-92F0-83A5D12F26D5";
name = "Dec 9 20, 19:58";
paths = (
{
closed = 1;
nodes = (
"827 -35 OFFCURVE",
"998 98 OFFCURVE",
"998 395 CURVE SMOOTH",
"998 452 OFFCURVE",
"991 503 OFFCURVE",
"976 549 CURVE",
"949 526 OFFCURVE",
"910 510 OFFCURVE",
"857 499 CURVE",
"851 529 LINE",
"948 549 OFFCURVE",
"998 593 OFFCURVE",
"998 688 CURVE SMOOTH",
"998 751 OFFCURVE",
"980 817 OFFCURVE",
"959 854 CURVE",
"921 861 OFFCURVE",
"751 856 OFFCURVE",
"715 845 CURVE",
"717 817 OFFCURVE",
"711 801 OFFCURVE",
"671 795 CURVE",
"650 846 OFFCURVE",
"599 876 OFFCURVE",
"523 876 CURVE SMOOTH",
"432 876 OFFCURVE",
"363 861 OFFCURVE",
"287 856 CURVE",
"267 813 OFFCURVE",
"268 692 OFFCURVE",
"286 639 CURVE",
"321 644 OFFCURVE",
"353 630 OFFCURVE",
"368 588 CURVE",
"344 605 OFFCURVE",
"312 614 OFFCURVE",
"271 609 CURVE",
"254 630 OFFCURVE",
"241 687 OFFCURVE",
"242 755 CURVE",
"88 695 OFFCURVE",
"10 570 OFFCURVE",
"10 369 CURVE SMOOTH",
"10 102 OFFCURVE",
"175 -35 OFFCURVE",
"495 -35 CURVE SMOOTH"
);
},
{
closed = 1;
nodes = (
"473 445 LINE",
"534 445 LINE",
"534 316 LINE",
"473 316 LINE"
);
}
);
width = 1008;
}
);
leftKerningGroup = O;
leftMetricsKey = "=O";
rightKerningGroup = O;
rightMetricsKey = "=O";
unicode = 1EDE;
},
{
color = 5;
glyphname = Ohorntilde;
layers = (
{
layerId = "863809E3-B3D3-4728-B9C6-73F0AB5A9F00";
paths = (
{
closed = 1;
nodes = (
"827 -35 OFFCURVE",
"998 98 OFFCURVE",
"998 367 CURVE SMOOTH",
"998 456 OFFCURVE",
"948 524 OFFCURVE",
"857 503 CURVE",
"850 529 LINE",
"919 553 OFFCURVE",
"972 593 OFFCURVE",
"972 691 CURVE SMOOTH",
"972 751 OFFCURVE",
"954 817 OFFCURVE",
"933 854 CURVE",
"925 855 OFFCURVE",
"903 856 OFFCURVE",
"876 856 CURVE SMOOTH",
"836 856 OFFCURVE",
"787 854 OFFCURVE",
"753 849 CURVE",
"753 818 OFFCURVE",
"753 789 OFFCURVE",
"751 763 CURVE",
"721 765 LINE",
"723 787 OFFCURVE",
"723 811 OFFCURVE",
"723 838 CURVE",
"698 846 OFFCURVE",
"629 854 OFFCURVE",
"591 855 CURVE",
"578 834 OFFCURVE",
"556 821 OFFCURVE",
"522 821 CURVE SMOOTH",
"475 821 OFFCURVE",
"422 851 OFFCURVE",
"356 851 CURVE SMOOTH",
"250 851 OFFCURVE",
"201 753 OFFCURVE",
"202 539 CURVE",
"178 575 OFFCURVE",
"164 655 OFFCURVE",
"171 713 CURVE",
"61 644 OFFCURVE",
"10 531 OFFCURVE",
"10 369 CURVE SMOOTH",
"10 102 OFFCURVE",
"175 -35 OFFCURVE",
"495 -35 CURVE SMOOTH"
);
},
{
closed = 1;
nodes = (
"473 445 LINE",
"534 445 LINE",
"534 316 LINE",
"473 316 LINE"
);
}
);
width = 1008;
},
{
associatedMasterId = "863809E3-B3D3-4728-B9C6-73F0AB5A9F00";
background = {
paths = (
{
closed = 0;
nodes = (
"495 -35 LINE SMOOTH",
"827 -35 OFFCURVE",
"998 98 OFFCURVE",
"998 367 CURVE SMOOTH",
"998 456 OFFCURVE",
"948 520 OFFCURVE",
"857 499 CURVE",
"851 529 LINE",
"919 553 OFFCURVE",
"972 593 OFFCURVE",
"972 691 CURVE SMOOTH",
"972 751 OFFCURVE",
"954 817 OFFCURVE",
"933 854 CURVE",
"895 861 OFFCURVE",
"738 856 OFFCURVE",
"702 845 CURVE",
"705 807 OFFCURVE",
"692 791 OFFCURVE",
"611 791 CURVE SMOOTH"
);
}
);
};
layerId = "FB224BAC-E049-4975-BDF2-8DD20DD21EAD";
name = "Dec 9 20, 19:59";
paths = (
{
closed = 1;
nodes = (
"827 -35 OFFCURVE",
"998 98 OFFCURVE",
"998 395 CURVE SMOOTH",
"998 452 OFFCURVE",
"991 503 OFFCURVE",
"976 549 CURVE",
"949 526 OFFCURVE",
"910 510 OFFCURVE",
"857 499 CURVE",
"851 529 LINE",
"948 549 OFFCURVE",
"998 593 OFFCURVE",
"998 688 CURVE SMOOTH",
"998 751 OFFCURVE",
"980 817 OFFCURVE",
"959 854 CURVE",
"937 858 OFFCURVE",
"818 858 OFFCURVE",
"753 849 CURVE",
"753 818 OFFCURVE",
"753 789 OFFCURVE",
"751 763 CURVE",
"721 765 LINE",
"723 787 OFFCURVE",
"723 811 OFFCURVE",
"723 838 CURVE",
"698 846 OFFCURVE",
"629 854 OFFCURVE",
"591 855 CURVE",
"578 834 OFFCURVE",
"556 821 OFFCURVE",
"522 821 CURVE SMOOTH",
"475 821 OFFCURVE",
"422 851 OFFCURVE",
"356 851 CURVE SMOOTH",
"250 851 OFFCURVE",
"201 753 OFFCURVE",
"202 539 CURVE",
"178 575 OFFCURVE",
"164 655 OFFCURVE",
"171 713 CURVE",
"61 644 OFFCURVE",
"10 531 OFFCURVE",
"10 369 CURVE SMOOTH",
"10 102 OFFCURVE",
"175 -35 OFFCURVE",
"495 -35 CURVE SMOOTH"
);
},
{
closed = 1;
nodes = (
"473 445 LINE",
"534 445 LINE",
"534 316 LINE",
"473 316 LINE"
);
}
);
width = 1008;
}
);
leftKerningGroup = O;
leftMetricsKey = "=O";
rightKerningGroup = O;
rightMetricsKey = "=O";
unicode = 1EE0;
},
{
color = 5;
glyphname = Ohungarumlaut;
layers = (
{
layerId = "863809E3-B3D3-4728-B9C6-73F0AB5A9F00";
paths = (
{
closed = 1;
nodes = (
"827 -35 OFFCURVE",
"998 98 OFFCURVE",
"998 395 CURVE SMOOTH",
"998 541 OFFCURVE",
"950 649 OFFCURVE",
"854 716 CURVE",
"869 745 OFFCURVE",
"879 774 OFFCURVE",
"884 803 CURVE",
"850 846 OFFCURVE",
"742 877 OFFCURVE",
"638 877 CURVE SMOOTH",
"589 877 OFFCURVE",
"541 870 OFFCURVE",
"502 854 CURVE",
"475 818 OFFCURVE",
"448 752 OFFCURVE",
"445 685 CURVE",
"444 685 LINE",
"430 757 OFFCURVE",
"448 832 OFFCURVE",
"472 871 CURVE",
"446 875 OFFCURVE",
"416 877 OFFCURVE",
"387 877 CURVE SMOOTH",
"334 877 OFFCURVE",
"281 870 OFFCURVE",
"242 854 CURVE",
"195 791 OFFCURVE",
"145 630 OFFCURVE",
"230 538 CURVE",
"164 564 OFFCURVE",
"143 632 OFFCURVE",
"147 702 CURVE",
"56 633 OFFCURVE",
"10 523 OFFCURVE",
"10 369 CURVE SMOOTH",
"10 102 OFFCURVE",
"175 -35 OFFCURVE",
"495 -35 CURVE SMOOTH"
);
},
{
closed = 1;
nodes = (
"473 445 LINE",
"534 445 LINE",
"534 316 LINE",
"473 316 LINE"
);
}
);
width = 1008;
}
);
leftKerningGroup = O;
leftMetricsKey = "=O";
rightKerningGroup = O;
rightMetricsKey = "=O";
unicode = 0150;
},
{
color = 5;
glyphname = Oinvertedbreve;
layers = (
{
layerId = "863809E3-B3D3-4728-B9C6-73F0AB5A9F00";
paths = (
{
closed = 1;
nodes = (
"827 -35 OFFCURVE",
"998 98 OFFCURVE",
"998 395 CURVE SMOOTH",
"998 580 OFFCURVE",
"922 703 OFFCURVE",
"757 759 CURVE",
"709 829 OFFCURVE",
"626 875 OFFCURVE",
"517 875 CURVE SMOOTH",
"292 875 OFFCURVE",
"180 745 OFFCURVE",
"211 550 CURVE",
"175 589 OFFCURVE",
"168 653 OFFCURVE",
"191 732 CURVE",
"71 665 OFFCURVE",
"10 547 OFFCURVE",
"10 369 CURVE SMOOTH",
"10 102 OFFCURVE",
"175 -35 OFFCURVE",
"495 -35 CURVE SMOOTH"
);
},
{
closed = 1;
nodes = (
"473 445 LINE",
"534 445 LINE",
"534 316 LINE",
"473 316 LINE"
);
}
);
width = 1008;
}
);
leftKerningGroup = O;
leftMetricsKey = "=O";
rightKerningGroup = O;
rightMetricsKey = "=O";
unicode = 020E;
},
{
color = 5;
glyphname = Omacron;
layers = (
{
layerId = "863809E3-B3D3-4728-B9C6-73F0AB5A9F00";
paths = (
{
closed = 1;
nodes = (
"827 -35 OFFCURVE",
"998 98 OFFCURVE",
"998 395 CURVE SMOOTH",
"998 577 OFFCURVE",
"924 698 OFFCURVE",
"766 756 CURVE",
"764 793 OFFCURVE",
"761 835 OFFCURVE",
"756 854 CURVE",
"619 844 OFFCURVE",
"367 844 OFFCURVE",
"232 854 CURVE",
"221 803 OFFCURVE",
"222 621 OFFCURVE",
"230 555 CURVE",
"196 604 OFFCURVE",
"186 684 OFFCURVE",
"183 727 CURVE",
"68 660 OFFCURVE",
"10 541 OFFCURVE",
"10 369 CURVE SMOOTH",
"10 102 OFFCURVE",
"175 -35 OFFCURVE",
"495 -35 CURVE SMOOTH"
);
},
{
closed = 1;
nodes = (
"473 445 LINE",
"534 445 LINE",
"534 316 LINE",
"473 316 LINE"
);
}
);
width = 1008;
}
);
leftKerningGroup = O;
leftMetricsKey = "=O";
rightKerningGroup = O;
rightMetricsKey = "=O";
unicode = 014C;
},
{
color = 5;
glyphname = Oogonek;
layers = (
{
layerId = "863809E3-B3D3-4728-B9C6-73F0AB5A9F00";
paths = (
{
closed = 1;
nodes = (
"624 -170 OFFCURVE",
"648 -153 OFFCURVE",
"737 -160 CURVE",
"752 -125 OFFCURVE",
"758 -55 OFFCURVE",
"755 4 CURVE",
"916 62 OFFCURVE",
"998 189 OFFCURVE",
"998 395 CURVE SMOOTH",
"998 658 OFFCURVE",
"844 795 OFFCURVE",
"500 795 CURVE SMOOTH",
"177 795 OFFCURVE",
"10 662 OFFCURVE",
"10 369 CURVE SMOOTH",
"10 176 OFFCURVE",
"96 51 OFFCURVE",
"265 -4 CURVE",
"276 26 OFFCURVE",
"305 92 OFFCURVE",
"367 105 CURVE",
"323 58 OFFCURVE",
"305 6 OFFCURVE",
"305 -35 CURVE SMOOTH",
"305 -124 OFFCURVE",
"367 -170 OFFCURVE",
"483 -170 CURVE SMOOTH"
);
},
{
closed = 1;
nodes = (
"473 445 LINE",
"534 445 LINE",
"534 316 LINE",
"473 316 LINE"
);
}
);
width = 1008;
}
);
leftKerningGroup = O;
leftMetricsKey = "=O";
rightKerningGroup = O;
rightMetricsKey = "=O";
unicode = 01EA;
},
{
color = 5;
glyphname = Oslash;
layers = (
{
layerId = "863809E3-B3D3-4728-B9C6-73F0AB5A9F00";
paths = (
{
closed = 1;
nodes = (
"221 -74 OFFCURVE",
"250 -40 OFFCURVE",
"277 -7 CURVE",
"339 -26 OFFCURVE",
"412 -35 OFFCURVE",
"495 -35 CURVE SMOOTH",
"827 -35 OFFCURVE",
"998 98 OFFCURVE",
"998 384 CURVE SMOOTH",
"998 524 OFFCURVE",
"934 600 OFFCURVE",
"833 573 CURVE",
"881 619 OFFCURVE",
"930 665 OFFCURVE",
"978 710 CURVE",
"949 764 OFFCURVE",
"895 812 OFFCURVE",
"812 860 CURVE",
"786 828 OFFCURVE",
"760 797 OFFCURVE",
"734 766 CURVE",
"669 785 OFFCURVE",
"591 795 OFFCURVE",
"500 795 CURVE SMOOTH",
"177 795 OFFCURVE",
"10 662 OFFCURVE",
"10 369 CURVE SMOOTH",
"10 258 OFFCURVE",
"38 170 OFFCURVE",
"95 104 CURVE",
"27 41 LINE",
"56 -13 OFFCURVE",
"110 -61 OFFCURVE",
"193 -109 CURVE"
);
},
{
closed = 1;
nodes = (
"516 349 LINE",
"574 349 LINE",
"574 275 LINE",
"516 275 LINE"
);
},
{
closed = 1;
nodes = (
"426 473 LINE",
"484 473 LINE",
"484 399 LINE",
"426 399 LINE"
);
}
);
width = 1004;
}
);
leftKerningGroup = O;
leftMetricsKey = "=O";
rightKerningGroup = O;
rightMetricsKey = "=O-4";
unicode = 00D8;
},
{
color = 5;
glyphname = Oslashacute;
layers = (
{
layerId = "863809E3-B3D3-4728-B9C6-73F0AB5A9F00";
paths = (
{
closed = 1;
nodes = (
"221 -74 OFFCURVE",
"250 -40 OFFCURVE",
"277 -7 CURVE",
"339 -26 OFFCURVE",
"412 -35 OFFCURVE",
"495 -35 CURVE SMOOTH",
"827 -35 OFFCURVE",
"998 98 OFFCURVE",
"998 384 CURVE SMOOTH",
"998 524 OFFCURVE",
"934 600 OFFCURVE",
"833 573 CURVE",
"881 619 OFFCURVE",
"930 665 OFFCURVE",
"978 710 CURVE",
"949 764 OFFCURVE",
"895 812 OFFCURVE",
"812 860 CURVE",
"788 830 OFFCURVE",
"763 800 OFFCURVE",
"739 771 CURVE",
"743 783 OFFCURVE",
"745 794 OFFCURVE",
"747 803 CURVE",
"713 846 OFFCURVE",
"605 877 OFFCURVE",
"501 877 CURVE SMOOTH",
"452 877 OFFCURVE",
"404 870 OFFCURVE",
"365 854 CURVE",
"283 739 OFFCURVE",
"288 590 OFFCURVE",
"364 528 CURVE",
"245 570 OFFCURVE",
"261 709 OFFCURVE",
"280 768 CURVE",
"102 715 OFFCURVE",
"10 585 OFFCURVE",
"10 369 CURVE SMOOTH",
"10 258 OFFCURVE",
"38 170 OFFCURVE",
"95 104 CURVE",
"27 41 LINE",
"56 -13 OFFCURVE",
"110 -61 OFFCURVE",
"193 -109 CURVE"
);
},
{
closed = 1;
nodes = (
"516 349 LINE",
"574 349 LINE",
"574 275 LINE",
"516 275 LINE"
);
},
{
closed = 1;
nodes = (
"426 473 LINE",
"484 473 LINE",
"484 399 LINE",
"426 399 LINE"
);
}
);
width = 1004;
}
);
leftKerningGroup = O;
leftMetricsKey = "=Oslash";
rightKerningGroup = O;
rightMetricsKey = "=Oslash";
unicode = 01FE;
},
{
color = 5;
glyphname = Otilde;
layers = (
{
layerId = "863809E3-B3D3-4728-B9C6-73F0AB5A9F00";
paths = (
{
closed = 1;
nodes = (
"827 -35 OFFCURVE",
"998 98 OFFCURVE",
"998 395 CURVE SMOOTH",
"998 573 OFFCURVE",
"932 693 OFFCURVE",
"783 752 CURVE",
"785 775 OFFCURVE",
"786 800 OFFCURVE",
"786 827 CURVE",
"751 845 OFFCURVE",
"659 854 OFFCURVE",
"618 855 CURVE",
"604 834 OFFCURVE",
"581 821 OFFCURVE",
"545 821 CURVE SMOOTH",
"494 821 OFFCURVE",
"438 851 OFFCURVE",
"367 851 CURVE SMOOTH",
"253 851 OFFCURVE",
"201 753 OFFCURVE",
"202 539 CURVE",
"178 575 OFFCURVE",
"164 655 OFFCURVE",
"171 713 CURVE",
"61 644 OFFCURVE",
"10 531 OFFCURVE",
"10 369 CURVE SMOOTH",
"10 102 OFFCURVE",
"175 -35 OFFCURVE",
"495 -35 CURVE SMOOTH"
);
},
{
closed = 1;
nodes = (
"473 445 LINE",
"534 445 LINE",
"534 316 LINE",
"473 316 LINE"
);
}
);
width = 1008;
}
);
leftKerningGroup = O;
leftMetricsKey = "=O";
rightKerningGroup = O;
rightMetricsKey = "=O";
unicode = 00D5;
},
{
color = 5;
glyphname = Otildemacron;
layers = (
{
layerId = "863809E3-B3D3-4728-B9C6-73F0AB5A9F00";
paths = (
{
closed = 1;
nodes = (
"827 -35 OFFCURVE",
"998 98 OFFCURVE",
"998 395 CURVE SMOOTH",
"998 573 OFFCURVE",
"932 693 OFFCURVE",
"783 752 CURVE",
"785 775 OFFCURVE",
"786 800 OFFCURVE",
"786 827 CURVE",
"773 834 OFFCURVE",
"753 839 OFFCURVE",
"730 843 CURVE",
"729 891 OFFCURVE",
"727 935 OFFCURVE",
"723 949 CURVE",
"610 941 OFFCURVE",
"423 941 OFFCURVE",
"310 949 CURVE",
"302 910 OFFCURVE",
"302 779 OFFCURVE",
"307 722 CURVE",
"286 747 OFFCURVE",
"280 781 OFFCURVE",
"274 818 CURVE",
"224 774 OFFCURVE",
"201 682 OFFCURVE",
"202 539 CURVE",
"178 575 OFFCURVE",
"164 655 OFFCURVE",
"171 713 CURVE",
"61 644 OFFCURVE",
"10 531 OFFCURVE",
"10 369 CURVE SMOOTH",
"10 102 OFFCURVE",
"175 -35 OFFCURVE",
"495 -35 CURVE SMOOTH"
);
},
{
closed = 1;
nodes = (
"473 445 LINE",
"534 445 LINE",
"534 316 LINE",
"473 316 LINE"
);
}
);
width = 1008;
}
);
leftKerningGroup = O;
leftMetricsKey = "=O";
rightKerningGroup = O;
rightMetricsKey = "=O";
unicode = 022C;
},
{
color = 5;
glyphname = OE;
layers = (
{
layerId = "863809E3-B3D3-4728-B9C6-73F0AB5A9F00";
paths = (
{
closed = 1;
nodes = (
"699 -24 OFFCURVE",
"763 -2 OFFCURVE",
"937 -2 CURVE SMOOTH",
"1094 -2 OFFCURVE",
"1266 -15 OFFCURVE",
"1406 -17 CURVE",
"1421 40 OFFCURVE",
"1424 315 OFFCURVE",
"1413 374 CURVE",
"1311 381 OFFCURVE",
"1189 381 OFFCURVE",
"1077 374 CURVE",
"1069 343 OFFCURVE",
"1069 311 OFFCURVE",
"1077 280 CURVE",
"960 280 LINE",
"960 323 LINE",
"1054 323 LINE",
"1054 462 LINE",
"961 462 LINE",
"961 504 LINE",
"1077 504 LINE",
"1069 473 OFFCURVE",
"1069 442 OFFCURVE",
"1077 411 CURVE",
"1181 399 OFFCURVE",
"1313 399 OFFCURVE",
"1407 411 CURVE",
"1427 482 OFFCURVE",
"1419 713 OFFCURVE",
"1402 776 CURVE",
"1262 774 OFFCURVE",
"1090 761 OFFCURVE",
"933 761 CURVE SMOOTH",
"759 761 OFFCURVE",
"684 783 OFFCURVE",
"455 783 CURVE SMOOTH",
"163 783 OFFCURVE",
"10 641 OFFCURVE",
"10 383 CURVE SMOOTH",
"10 166 OFFCURVE",
"94 -24 OFFCURVE",
"477 -24 CURVE SMOOTH"
);
},
{
closed = 1;
nodes = (
"472 445 LINE",
"533 445 LINE",
"533 316 LINE",
"472 316 LINE"
);
}
);
width = 1428;
}
);
leftKerningGroup = O;
leftMetricsKey = "=O";
rightKerningGroup = E;
rightMetricsKey = "=E";
unicode = 0152;
},
{
color = 4;
glyphname = P;
layers = (
{
layerId = "863809E3-B3D3-4728-B9C6-73F0AB5A9F00";
paths = (
{
closed = 1;
nodes = (
"90 -11 OFFCURVE",
"202 -2 OFFCURVE",
"315 -1 CURVE SMOOTH",
"463 0 OFFCURVE",
"582 -11 OFFCURVE",
"648 -16 CURVE",
"670 41 OFFCURVE",
"672 128 OFFCURVE",
"654 185 CURVE",
"580 188 OFFCURVE",
"533 210 OFFCURVE",
"499 251 CURVE",
"520 270 LINE",
"562 221 OFFCURVE",
"607 212 OFFCURVE",
"692 212 CURVE SMOOTH",
"894 212 OFFCURVE",
"1014 288 OFFCURVE",
"1014 494 CURVE SMOOTH",
"1014 732 OFFCURVE",
"859 791 OFFCURVE",
"578 791 CURVE SMOOTH",
"323 791 OFFCURVE",
"225 768 OFFCURVE",
"29 775 CURVE",
"2 712 OFFCURVE",
"2 582 OFFCURVE",
"25 533 CURVE",
"49 532 OFFCURVE",
"91 509 OFFCURVE",
"91 381 CURVE SMOOTH",
"91 263 OFFCURVE",
"56 233 OFFCURVE",
"27 222 CURVE",
"7 165 OFFCURVE",
"11 40 OFFCURVE",
"34 -17 CURVE"
);
},
{
closed = 1;
nodes = (
"499 491 LINE",
"560 491 LINE",
"560 424 LINE",
"499 424 LINE"
);
}
);
width = 1024;
}
);
leftKerningGroup = N;
rightKerningGroup = P;
unicode = 0050;
},
{
color = 5;
glyphname = Thorn;
layers = (
{
layerId = "863809E3-B3D3-4728-B9C6-73F0AB5A9F00";
paths = (
{
closed = 1;
nodes = (
"90 -11 OFFCURVE",
"202 -2 OFFCURVE",
"315 -1 CURVE SMOOTH",
"467 0 OFFCURVE",
"586 -11 OFFCURVE",
"652 -16 CURVE",
"660 18 OFFCURVE",
"662 32 OFFCURVE",
"658 83 CURVE",
"609 85 OFFCURVE",
"564 96 OFFCURVE",
"529 117 CURVE",
"545 144 LINE",
"595 115 OFFCURVE",
"655 110 OFFCURVE",
"708 110 CURVE SMOOTH",
"876 110 OFFCURVE",
"1018 175 OFFCURVE",
"1018 391 CURVE SMOOTH",
"1018 619 OFFCURVE",
"874 653 OFFCURVE",
"752 653 CURVE SMOOTH",
"690 653 OFFCURVE",
"606 645 OFFCURVE",
"545 605 CURVE",
"531 628 LINE",
"583 660 OFFCURVE",
"648 677 OFFCURVE",
"658 680 CURVE",
"662 707 OFFCURVE",
"660 740 OFFCURVE",
"652 774 CURVE",
"586 769 OFFCURVE",
"467 758 OFFCURVE",
"315 759 CURVE SMOOTH",
"202 760 OFFCURVE",
"85 769 OFFCURVE",
"29 775 CURVE",
"2 712 OFFCURVE",
"2 582 OFFCURVE",
"25 533 CURVE",
"49 532 OFFCURVE",
"91 509 OFFCURVE",
"91 381 CURVE SMOOTH",
"91 263 OFFCURVE",
"56 233 OFFCURVE",
"27 222 CURVE",
"7 165 OFFCURVE",
"11 40 OFFCURVE",
"34 -17 CURVE"
);
},
{
closed = 1;
nodes = (
"503 402 LINE",
"564 402 LINE",
"564 335 LINE",
"503 335 LINE"
);
}
);
width = 1028;
}
);
leftKerningGroup = N;
leftMetricsKey = "=P";
rightKerningGroup = Thorn;
rightMetricsKey = "=P";
unicode = 00DE;
},
{
color = 4;
glyphname = Q;
layers = (
{
layerId = "863809E3-B3D3-4728-B9C6-73F0AB5A9F00";
paths = (
{
closed = 1;
nodes = (
"1013 -173 OFFCURVE",
"1012 -21 OFFCURVE",
"992 140 CURVE",
"960 146 OFFCURVE",
"920 142 OFFCURVE",
"887 136 CURVE",
"886 49 LINE",
"855 49 LINE",
"855 129 LINE",
"920 168 OFFCURVE",
"998 248 OFFCURVE",
"998 414 CURVE SMOOTH",
"998 656 OFFCURVE",
"844 795 OFFCURVE",
"500 795 CURVE SMOOTH",
"177 795 OFFCURVE",
"10 660 OFFCURVE",
"10 378 CURVE SMOOTH",
"10 105 OFFCURVE",
"183 -35 OFFCURVE",
"484 -35 CURVE",
"491 18 OFFCURVE",
"518 67 OFFCURVE",
"569 83 CURVE",
"543 53 OFFCURVE",
"531 26 OFFCURVE",
"531 -24 CURVE SMOOTH",
"531 -127 OFFCURVE",
"626 -173 OFFCURVE",
"767 -173 CURVE SMOOTH"
);
},
{
closed = 1;
nodes = (
"473 445 LINE",
"534 445 LINE",
"534 316 LINE",
"473 316 LINE"
);
}
);
width = 1008;
}
);
leftKerningGroup = O;
rightKerningGroup = Q;
unicode = 0051;
},
{
color = 4;
glyphname = R;
layers = (
{
layerId = "863809E3-B3D3-4728-B9C6-73F0AB5A9F00";
paths = (
{
closed = 1;
nodes = (
"89 -12 OFFCURVE",
"180 -2 OFFCURVE",
"273 -1 CURVE SMOOTH",
"380 0 OFFCURVE",
"475 -11 OFFCURVE",
"531 -16 CURVE",
"551 41 OFFCURVE",
"555 153 OFFCURVE",
"538 221 CURVE",
"502 222 LINE",
"502 314 LINE",
"583 241 OFFCURVE",
"588 145 OFFCURVE",
"567 -17 CURVE",
"619 -12 OFFCURVE",
"680 -1 OFFCURVE",
"830 -1 CURVE SMOOTH",
"942 -1 OFFCURVE",
"994 -12 OFFCURVE",
"1039 -17 CURVE",
"1061 40 OFFCURVE",
"1064 165 OFFCURVE",
"1046 222 CURVE",
"1015 237 OFFCURVE",
"978 267 OFFCURVE",
"951 321 CURVE",
"997 363 OFFCURVE",
"1023 426 OFFCURVE",
"1023 504 CURVE SMOOTH",
"1024 732 OFFCURVE",
"859 791 OFFCURVE",
"578 791 CURVE SMOOTH",
"323 791 OFFCURVE",
"225 768 OFFCURVE",
"29 775 CURVE",
"2 712 OFFCURVE",
"2 582 OFFCURVE",
"25 533 CURVE",
"49 532 OFFCURVE",
"91 509 OFFCURVE",
"91 381 CURVE SMOOTH",
"91 263 OFFCURVE",
"56 233 OFFCURVE",
"27 222 CURVE",
"7 165 OFFCURVE",
"11 40 OFFCURVE",
"34 -17 CURVE"
);
},
{
closed = 1;
nodes = (
"498 490 LINE",
"559 490 LINE",
"559 421 LINE",
"498 421 LINE"
);
}
);
width = 1066;
}
);
leftKerningGroup = N;
rightKerningGroup = R;
unicode = 0052;
},
{
color = 5;
glyphname = Racute;
layers = (
{
layerId = "863809E3-B3D3-4728-B9C6-73F0AB5A9F00";
paths = (
{
closed = 1;
nodes = (
"89 -12 OFFCURVE",
"180 -2 OFFCURVE",
"273 -1 CURVE SMOOTH",
"380 0 OFFCURVE",
"475 -11 OFFCURVE",
"531 -16 CURVE",
"551 41 OFFCURVE",
"555 153 OFFCURVE",
"538 221 CURVE",
"502 222 LINE",
"502 314 LINE",
"583 241 OFFCURVE",
"588 145 OFFCURVE",
"567 -17 CURVE",
"619 -12 OFFCURVE",
"680 -1 OFFCURVE",
"830 -1 CURVE SMOOTH",
"942 -1 OFFCURVE",
"994 -12 OFFCURVE",
"1039 -17 CURVE",
"1061 40 OFFCURVE",
"1064 165 OFFCURVE",
"1046 222 CURVE",
"1015 237 OFFCURVE",
"978 267 OFFCURVE",
"951 321 CURVE",
"997 363 OFFCURVE",
"1023 426 OFFCURVE",
"1023 504 CURVE SMOOTH",
"1024 674 OFFCURVE",
"933 750 OFFCURVE",
"770 778 CURVE",
"773 787 OFFCURVE",
"775 796 OFFCURVE",
"776 803 CURVE",
"742 846 OFFCURVE",
"634 877 OFFCURVE",
"530 877 CURVE SMOOTH",
"481 877 OFFCURVE",
"433 870 OFFCURVE",
"394 854 CURVE",
"317 746 OFFCURVE",
"317 609 OFFCURVE",
"379 541 CURVE",
"286 580 OFFCURVE",
"292 704 OFFCURVE",
"317 782 CURVE",
"225 776 OFFCURVE",
"136 771 OFFCURVE",
"29 775 CURVE",
"2 712 OFFCURVE",
"2 582 OFFCURVE",
"25 533 CURVE",
"49 532 OFFCURVE",
"91 509 OFFCURVE",
"91 381 CURVE SMOOTH",
"91 263 OFFCURVE",
"56 233 OFFCURVE",
"27 222 CURVE",
"7 165 OFFCURVE",
"11 40 OFFCURVE",
"34 -17 CURVE"
);
},
{
closed = 1;
nodes = (
"498 490 LINE",
"559 490 LINE",
"559 421 LINE",
"498 421 LINE"
);
}
);
width = 1066;
}
);
leftKerningGroup = N;
leftMetricsKey = "=R";
rightKerningGroup = R;
rightMetricsKey = "=R";
unicode = 0154;
},
{
color = 5;
glyphname = Rcaron;
layers = (
{
layerId = "863809E3-B3D3-4728-B9C6-73F0AB5A9F00";
paths = (
{
closed = 1;
nodes = (
"89 -12 OFFCURVE",
"180 -2 OFFCURVE",
"273 -1 CURVE SMOOTH",
"380 0 OFFCURVE",
"475 -11 OFFCURVE",
"531 -16 CURVE",
"551 41 OFFCURVE",
"555 153 OFFCURVE",
"538 221 CURVE",
"502 222 LINE",
"502 314 LINE",
"583 241 OFFCURVE",
"588 145 OFFCURVE",
"567 -17 CURVE",
"619 -12 OFFCURVE",
"680 -1 OFFCURVE",
"830 -1 CURVE SMOOTH",
"942 -1 OFFCURVE",
"994 -12 OFFCURVE",
"1039 -17 CURVE",
"1061 40 OFFCURVE",
"1064 165 OFFCURVE",
"1046 222 CURVE",
"1015 237 OFFCURVE",
"978 267 OFFCURVE",
"951 321 CURVE",
"997 363 OFFCURVE",
"1023 426 OFFCURVE",
"1023 504 CURVE SMOOTH",
"1024 658 OFFCURVE",
"949 735 OFFCURVE",
"813 769 CURVE",
"817 795 OFFCURVE",
"818 822 OFFCURVE",
"814 847 CURVE",
"779 865 OFFCURVE",
"681 874 OFFCURVE",
"636 875 CURVE",
"583 861 OFFCURVE",
"522 811 OFFCURVE",
"467 748 CURVE",
"442 765 LINE",
"460 785 OFFCURVE",
"478 804 OFFCURVE",
"496 821 CURVE",
"462 846 OFFCURVE",
"423 867 OFFCURVE",
"394 875 CURVE",
"353 874 OFFCURVE",
"261 865 OFFCURVE",
"226 847 CURVE",
"211 752 OFFCURVE",
"258 640 OFFCURVE",
"316 572 CURVE",
"246 606 OFFCURVE",
"191 700 OFFCURVE",
"189 776 CURVE",
"148 774 OFFCURVE",
"94 772 OFFCURVE",
"29 775 CURVE",
"2 712 OFFCURVE",
"2 582 OFFCURVE",
"25 533 CURVE",
"49 532 OFFCURVE",
"91 509 OFFCURVE",
"91 381 CURVE SMOOTH",
"91 263 OFFCURVE",
"56 233 OFFCURVE",
"27 222 CURVE",
"7 165 OFFCURVE",
"11 40 OFFCURVE",
"34 -17 CURVE"
);
},
{
closed = 1;
nodes = (
"498 490 LINE",
"559 490 LINE",
"559 421 LINE",
"498 421 LINE"
);
}
);
width = 1066;
}
);
leftKerningGroup = N;
leftMetricsKey = "=R";
rightKerningGroup = R;
rightMetricsKey = "=R";
unicode = 0158;
},
{
color = 5;
glyphname = Rcommaaccent;
layers = (
{
layerId = "863809E3-B3D3-4728-B9C6-73F0AB5A9F00";
paths = (
{
closed = 1;
nodes = (
"635 -128 OFFCURVE",
"695 -73 OFFCURVE",
"713 -4 CURVE",
"748 -2 OFFCURVE",
"783 -1 OFFCURVE",
"833 -1 CURVE SMOOTH",
"942 -1 OFFCURVE",
"994 -12 OFFCURVE",
"1039 -17 CURVE",
"1061 40 OFFCURVE",
"1064 165 OFFCURVE",
"1046 222 CURVE",
"1015 237 OFFCURVE",
"978 267 OFFCURVE",
"951 321 CURVE",
"997 363 OFFCURVE",
"1023 426 OFFCURVE",
"1023 504 CURVE SMOOTH",
"1024 732 OFFCURVE",
"859 791 OFFCURVE",
"578 791 CURVE SMOOTH",
"323 791 OFFCURVE",
"225 768 OFFCURVE",
"29 775 CURVE",
"2 712 OFFCURVE",
"2 582 OFFCURVE",
"25 533 CURVE",
"49 532 OFFCURVE",
"91 509 OFFCURVE",
"91 381 CURVE SMOOTH",
"91 263 OFFCURVE",
"56 233 OFFCURVE",
"27 222 CURVE",
"7 165 OFFCURVE",
"11 40 OFFCURVE",
"34 -17 CURVE",
"89 -12 OFFCURVE",
"180 -2 OFFCURVE",
"267 -2 CURVE",
"287 28 OFFCURVE",
"287 69 OFFCURVE",
"286 117 CURVE",
"339 -14 OFFCURVE",
"318 -95 OFFCURVE",
"304 -163 CURVE",
"328 -170 OFFCURVE",
"405 -174 OFFCURVE",
"468 -174 CURVE SMOOTH",
"504 -174 OFFCURVE",
"535 -173 OFFCURVE",
"549 -170 CURVE"
);
},
{
closed = 1;
nodes = (
"502 279 LINE",
"538 279 LINE",
"538 188 LINE",
"502 188 LINE"
);
},
{
closed = 1;
nodes = (
"498 490 LINE",
"559 490 LINE",
"559 421 LINE",
"498 421 LINE"
);
}
);
width = 1066;
}
);
leftKerningGroup = N;
leftMetricsKey = "=R";
rightKerningGroup = R;
rightMetricsKey = "=R";
unicode = 0156;
},
{
color = 5;
glyphname = Rdblgrave;
layers = (
{
layerId = "863809E3-B3D3-4728-B9C6-73F0AB5A9F00";
paths = (
{
closed = 1;
nodes = (
"89 -12 OFFCURVE",
"180 -2 OFFCURVE",
"273 -1 CURVE SMOOTH",
"380 0 OFFCURVE",
"475 -11 OFFCURVE",
"531 -16 CURVE",
"551 41 OFFCURVE",
"555 153 OFFCURVE",
"538 221 CURVE",
"502 222 LINE",
"502 314 LINE",
"583 241 OFFCURVE",
"588 145 OFFCURVE",
"567 -17 CURVE",
"619 -12 OFFCURVE",
"680 -1 OFFCURVE",
"830 -1 CURVE SMOOTH",
"942 -1 OFFCURVE",
"994 -12 OFFCURVE",
"1039 -17 CURVE",
"1061 40 OFFCURVE",
"1064 165 OFFCURVE",
"1046 222 CURVE",
"1015 237 OFFCURVE",
"978 267 OFFCURVE",
"951 321 CURVE",
"997 363 OFFCURVE",
"1023 426 OFFCURVE",
"1023 504 CURVE SMOOTH",
"1024 655 OFFCURVE",
"951 732 OFFCURVE",
"820 767 CURVE",
"809 802 OFFCURVE",
"793 833 OFFCURVE",
"778 854 CURVE",
"739 870 OFFCURVE",
"691 877 OFFCURVE",
"642 877 CURVE SMOOTH",
"538 877 OFFCURVE",
"430 846 OFFCURVE",
"396 803 CURVE",
"405 835 OFFCURVE",
"432 864 OFFCURVE",
"453 872 CURVE",
"430 876 OFFCURVE",
"406 877 OFFCURVE",
"382 877 CURVE SMOOTH",
"278 877 OFFCURVE",
"170 846 OFFCURVE",
"136 803 CURVE",
"151 712 OFFCURVE",
"222 615 OFFCURVE",
"295 557 CURVE",
"215 582 OFFCURVE",
"144 644 OFFCURVE",
"100 774 CURVE",
"78 774 OFFCURVE",
"54 774 OFFCURVE",
"29 775 CURVE",
"2 712 OFFCURVE",
"2 582 OFFCURVE",
"25 533 CURVE",
"49 532 OFFCURVE",
"91 509 OFFCURVE",
"91 381 CURVE SMOOTH",
"91 263 OFFCURVE",
"56 233 OFFCURVE",
"27 222 CURVE",
"7 165 OFFCURVE",
"11 40 OFFCURVE",
"34 -17 CURVE"
);
},
{
closed = 1;
nodes = (
"498 490 LINE",
"559 490 LINE",
"559 421 LINE",
"498 421 LINE"
);
}
);
width = 1066;
}
);
leftKerningGroup = N;
leftMetricsKey = "=R";
rightKerningGroup = R;
rightMetricsKey = "=R";
unicode = 0210;
},
{
color = 5;
glyphname = Rinvertedbreve;
layers = (
{
layerId = "863809E3-B3D3-4728-B9C6-73F0AB5A9F00";
paths = (
{
closed = 1;
nodes = (
"89 -12 OFFCURVE",
"180 -2 OFFCURVE",
"273 -1 CURVE SMOOTH",
"380 0 OFFCURVE",
"475 -11 OFFCURVE",
"531 -16 CURVE",
"551 41 OFFCURVE",
"555 153 OFFCURVE",
"538 221 CURVE",
"502 222 LINE",
"502 314 LINE",
"583 241 OFFCURVE",
"588 145 OFFCURVE",
"567 -17 CURVE",
"619 -12 OFFCURVE",
"680 -1 OFFCURVE",
"830 -1 CURVE SMOOTH",
"942 -1 OFFCURVE",
"994 -12 OFFCURVE",
"1039 -17 CURVE",
"1061 40 OFFCURVE",
"1064 165 OFFCURVE",
"1046 222 CURVE",
"1015 237 OFFCURVE",
"978 267 OFFCURVE",
"951 321 CURVE",
"997 363 OFFCURVE",
"1023 426 OFFCURVE",
"1023 504 CURVE SMOOTH",
"1024 675 OFFCURVE",
"932 751 OFFCURVE",
"767 778 CURVE",
"718 837 OFFCURVE",
"641 875 OFFCURVE",
"542 875 CURVE SMOOTH",
"317 875 OFFCURVE",
"205 745 OFFCURVE",
"236 550 CURVE",
"198 618 OFFCURVE",
"196 700 OFFCURVE",
"236 778 CURVE",
"172 774 OFFCURVE",
"108 772 OFFCURVE",
"29 775 CURVE",
"2 712 OFFCURVE",
"2 582 OFFCURVE",
"25 533 CURVE",
"49 532 OFFCURVE",
"91 509 OFFCURVE",
"91 381 CURVE SMOOTH",
"91 263 OFFCURVE",
"56 233 OFFCURVE",
"27 222 CURVE",
"7 165 OFFCURVE",
"11 40 OFFCURVE",
"34 -17 CURVE"
);
},
{
closed = 1;
nodes = (
"498 490 LINE",
"559 490 LINE",
"559 421 LINE",
"498 421 LINE"
);
}
);
width = 1066;
}
);
leftKerningGroup = N;
leftMetricsKey = "=R";
rightKerningGroup = R;
rightMetricsKey = "=R";
unicode = 0212;
},
{
color = 4;
glyphname = S;
layers = (
{
layerId = "863809E3-B3D3-4728-B9C6-73F0AB5A9F00";
paths = (
{
closed = 1;
nodes = (
"757 -32 OFFCURVE",
"928 -12 OFFCURVE",
"928 210 CURVE SMOOTH",
"928 329 OFFCURVE",
"868 383 OFFCURVE",
"765 429 CURVE SMOOTH",
"718 450 OFFCURVE",
"663 475 OFFCURVE",
"612 512 CURVE",
"630 535 LINE",
"709 478 OFFCURVE",
"777 451 OFFCURVE",
"892 449 CURVE",
"909 565 OFFCURVE",
"907 679 OFFCURVE",
"887 775 CURVE",
"811 774 OFFCURVE",
"750 769 OFFCURVE",
"607 767 CURVE",
"622 717 OFFCURVE",
"632 676 OFFCURVE",
"614 626 CURVE",
"611 752 OFFCURVE",
"520 792 OFFCURVE",
"351 792 CURVE SMOOTH",
"95 792 OFFCURVE",
"6 678 OFFCURVE",
"6 534 CURVE SMOOTH",
"6 418 OFFCURVE",
"85 353 OFFCURVE",
"188 318 CURVE SMOOTH",
"241 300 OFFCURVE",
"296 277 OFFCURVE",
"341 241 CURVE",
"321 220 LINE",
"250 275 OFFCURVE",
"132 309 OFFCURVE",
"23 309 CURVE",
"6 192 OFFCURVE",
"8 91 OFFCURVE",
"28 -16 CURVE",
"105 -17 OFFCURVE",
"192 -11 OFFCURVE",
"335 -7 CURVE",
"320 34 OFFCURVE",
"310 75 OFFCURVE",
"328 125 CURVE",
"331 8 OFFCURVE",
"422 -32 OFFCURVE",
"611 -32 CURVE SMOOTH"
);
}
);
width = 934;
}
);
leftKerningGroup = S;
rightKerningGroup = S;
unicode = 0053;
},
{
color = 5;
glyphname = Sacute;
layers = (
{
layerId = "863809E3-B3D3-4728-B9C6-73F0AB5A9F00";
paths = (
{
closed = 1;
nodes = (
"757 -32 OFFCURVE",
"928 -12 OFFCURVE",
"928 210 CURVE SMOOTH",
"928 329 OFFCURVE",
"868 383 OFFCURVE",
"765 429 CURVE SMOOTH",
"718 450 OFFCURVE",
"663 475 OFFCURVE",
"612 512 CURVE",
"630 535 LINE",
"709 478 OFFCURVE",
"777 451 OFFCURVE",
"892 449 CURVE",
"909 565 OFFCURVE",
"907 679 OFFCURVE",
"887 775 CURVE",
"833 774 OFFCURVE",
"787 772 OFFCURVE",
"714 769 CURVE",
"722 803 LINE",
"688 846 OFFCURVE",
"580 877 OFFCURVE",
"476 877 CURVE SMOOTH",
"427 877 OFFCURVE",
"379 870 OFFCURVE",
"340 854 CURVE",
"264 748 OFFCURVE",
"263 613 OFFCURVE",
"322 545 CURVE",
"209 598 OFFCURVE",
"245 748 OFFCURVE",
"265 787 CURVE",
"75 762 OFFCURVE",
"6 660 OFFCURVE",
"6 534 CURVE SMOOTH",
"6 418 OFFCURVE",
"85 353 OFFCURVE",
"188 318 CURVE SMOOTH",
"241 300 OFFCURVE",
"296 277 OFFCURVE",
"341 241 CURVE",
"321 220 LINE",
"250 275 OFFCURVE",
"132 309 OFFCURVE",
"23 309 CURVE",
"6 192 OFFCURVE",
"8 91 OFFCURVE",
"28 -16 CURVE",
"105 -17 OFFCURVE",
"192 -11 OFFCURVE",
"335 -7 CURVE",
"320 34 OFFCURVE",
"310 75 OFFCURVE",
"328 125 CURVE",
"331 8 OFFCURVE",
"422 -32 OFFCURVE",
"611 -32 CURVE SMOOTH"
);
}
);
width = 934;
}
);
leftKerningGroup = S;
leftMetricsKey = "=S";
rightKerningGroup = S;
rightMetricsKey = "=S";
unicode = 015A;
},
{
color = 5;
glyphname = Scaron;
layers = (
{
layerId = "863809E3-B3D3-4728-B9C6-73F0AB5A9F00";
paths = (
{
closed = 1;
nodes = (
"757 -32 OFFCURVE",
"928 -12 OFFCURVE",
"928 210 CURVE SMOOTH",
"928 329 OFFCURVE",
"868 383 OFFCURVE",
"765 429 CURVE SMOOTH",
"718 450 OFFCURVE",
"663 475 OFFCURVE",
"612 512 CURVE",
"630 535 LINE",
"709 478 OFFCURVE",
"777 451 OFFCURVE",
"892 449 CURVE",
"909 565 OFFCURVE",
"907 679 OFFCURVE",
"887 775 CURVE",
"850 775 OFFCURVE",
"817 773 OFFCURVE",
"776 772 CURVE",
"780 797 OFFCURVE",
"781 823 OFFCURVE",
"777 847 CURVE",
"742 865 OFFCURVE",
"644 874 OFFCURVE",
"599 875 CURVE",
"546 861 OFFCURVE",
"485 811 OFFCURVE",
"430 748 CURVE",
"405 765 LINE",
"423 785 OFFCURVE",
"441 804 OFFCURVE",
"459 821 CURVE",
"425 846 OFFCURVE",
"386 867 OFFCURVE",
"357 875 CURVE",
"316 874 OFFCURVE",
"224 865 OFFCURVE",
"189 847 CURVE",
"172 738 OFFCURVE",
"237 605 OFFCURVE",
"307 543 CURVE",
"237 567 OFFCURVE",
"161 668 OFFCURVE",
"154 759 CURVE",
"48 715 OFFCURVE",
"6 632 OFFCURVE",
"6 534 CURVE SMOOTH",
"6 418 OFFCURVE",
"85 353 OFFCURVE",
"188 318 CURVE SMOOTH",
"241 300 OFFCURVE",
"296 277 OFFCURVE",
"341 241 CURVE",
"321 220 LINE",
"250 275 OFFCURVE",
"132 309 OFFCURVE",
"23 309 CURVE",
"6 192 OFFCURVE",
"8 91 OFFCURVE",
"28 -16 CURVE",
"105 -17 OFFCURVE",
"192 -11 OFFCURVE",
"335 -7 CURVE",
"320 34 OFFCURVE",
"310 75 OFFCURVE",
"328 125 CURVE",
"331 8 OFFCURVE",
"422 -32 OFFCURVE",
"611 -32 CURVE SMOOTH"
);
}
);
width = 934;
}
);
leftKerningGroup = S;
leftMetricsKey = "=S";
rightKerningGroup = S;
rightMetricsKey = "=S";
unicode = 0160;
},
